<svg xmlns="http://www.w3.org/2000/svg" xmlns:xlink="http://www.w3.org/1999/xlink" contentStyleType="text/css" height="1199px" preserveAspectRatio="none" style="width:224px;height:1199px;background:#FFFFFF;" version="1.1" viewBox="0 0 224 1199" width="224px" zoomAndPan="magnify"><defs/><g><ellipse cx="107.6711" cy="20" fill="#222222" rx="10" ry="10" style="stroke:#222222;stroke-width:1;"/><rect fill="#F5F7FA" height="31.499" rx="12.5" ry="12.5" style="stroke:#3C5488;stroke-width:0.5;" width="112.5879" x="51.3772" y="50"/><text fill="#000000" font-family="Times New Roman" font-size="10" lengthAdjust="spacing" textLength="92.5879" x="61.3772" y="69.3359">&#36755;&#20837; n&#215;n &#20004;&#20004;&#27604;&#36739;&#30697;&#38453; A</text><rect fill="#F5F7FA" height="31.499" rx="12.5" ry="12.5" style="stroke:#3C5488;stroke-width:0.5;" width="89.7266" x="62.8079" y="101.499"/><text fill="#000000" font-family="Times New Roman" font-size="10" lengthAdjust="spacing" textLength="69.7266" x="72.8079" y="120.835">&#36755;&#20837;&#35838;&#31243;&#30446;&#26631;&#25968;&#37327; n</text><rect fill="none" height="237.1204" style="stroke:#000000;stroke-width:1.5;" width="188.4971" x="25.4226" y="142.998"/><path d="M97.0925,142.998 L97.0925,147.4971 L87.0925,157.4971 L25.4226,157.4971 " fill="none" style="stroke:#000000;stroke-width:1.5;"/><text fill="#000000" font-family="Times New Roman" font-size="10" lengthAdjust="spacing" textLength="61.6699" x="28.4226" y="153.334">Step 1: &#21015;&#24402;&#19968;&#21270;</text><rect fill="#F5F7FA" height="31.499" rx="12.5" ry="12.5" style="stroke:#3C5488;stroke-width:0.5;" width="93.6084" x="60.8669" y="225.9961"/><text fill="#000000" font-family="Times New Roman" font-size="10" lengthAdjust="spacing" textLength="73.6084" x="70.8669" y="245.332">&#35745;&#31639;&#21015;&#21644; colSum[j]</text><rect fill="#F5F7FA" height="42.998" rx="12.5" ry="12.5" style="stroke:#3C5488;stroke-width:0.5;" width="144.4971" x="35.4226" y="281.1204"/><text fill="#000000" font-family="Times New Roman" font-size="10" lengthAdjust="spacing" textLength="36.3916" x="45.4226" y="300.4563">&#23545;&#27599;&#19968;&#34892; i</text><text fill="#000000" font-family="Times New Roman" font-size="10" lengthAdjust="spacing" textLength="124.4971" x="45.4226" y="311.9553">norm[i][j] = A[i][j] / colSum[j]</text><rect fill="#F5F7FA" height="31.499" rx="12.5" ry="12.5" style="stroke:#3C5488;stroke-width:0.5;" width="56.3916" x="79.4753" y="174.4971"/><text fill="#000000" font-family="Times New Roman" font-size="10" lengthAdjust="spacing" textLength="36.3916" x="89.4753" y="193.833">&#23545;&#27599;&#19968;&#21015; j</text><polygon fill="#F5F7FA" points="93.7844,344.1184,121.5579,344.1184,133.5579,356.1184,121.5579,368.1184,93.7844,368.1184,81.7844,356.1184,93.7844,344.1184" style="stroke:#3C5488;stroke-width:0.5;"/><text fill="#000000" font-family="Times New Roman" font-size="10" lengthAdjust="spacing" textLength="27.7734" x="93.7844" y="359.7048">&#36824;&#26377;&#21015;?</text><text fill="#000000" font-family="Times New Roman" font-size="10" lengthAdjust="spacing" textLength="7.7783" x="133.5579" y="353.9553">&#26159;</text><rect fill="none" height="170.4971" style="stroke:#000000;stroke-width:1.5;" width="156.5439" x="41.3992" y="411.6174"/><path d="M128.6257,411.6174 L128.6257,416.1165 L118.6257,426.1165 L41.3992,426.1165 " fill="none" style="stroke:#000000;stroke-width:1.5;"/><text fill="#000000" font-family="Times New Roman" font-size="10" lengthAdjust="spacing" textLength="77.2266" x="44.3992" y="421.9534">Step 2: &#35745;&#31639;&#26435;&#37325;&#21521;&#37327;</text><rect fill="#F5F7FA" height="31.499" rx="12.5" ry="12.5" style="stroke:#3C5488;stroke-width:0.5;" width="112.5439" x="51.3992" y="494.6155"/><text fill="#000000" font-family="Times New Roman" font-size="10" lengthAdjust="spacing" textLength="92.5439" x="61.3992" y="513.9514">w[i] = &#931;(norm[i][j]) / n</text><rect fill="#F5F7FA" height="31.499" rx="12.5" ry="12.5" style="stroke:#3C5488;stroke-width:0.5;" width="56.3916" x="79.4753" y="443.1165"/><text fill="#000000" font-family="Times New Roman" font-size="10" lengthAdjust="spacing" textLength="36.3916" x="89.4753" y="462.4524">&#23545;&#27599;&#19968;&#34892; i</text><polygon fill="#F5F7FA" points="93.7844,546.1145,121.5579,546.1145,133.5579,558.1145,121.5579,570.1145,93.7844,570.1145,81.7844,558.1145,93.7844,546.1145" style="stroke:#3C5488;stroke-width:0.5;"/><text fill="#000000" font-family="Times New Roman" font-size="10" lengthAdjust="spacing" textLength="27.7734" x="93.7844" y="561.7009">&#36824;&#26377;&#34892;?</text><text fill="#000000" font-family="Times New Roman" font-size="10" lengthAdjust="spacing" textLength="7.7783" x="133.5579" y="555.9514">&#26159;</text><rect fill="none" height="126.4971" style="stroke:#000000;stroke-width:1.5;" width="146.2842" x="34.5291" y="613.6135"/><path d="M115.2078,613.6135 L115.2078,618.1125 L105.2078,628.1125 L34.5291,628.1125 " fill="none" style="stroke:#000000;stroke-width:1.5;"/><text fill="#000000" font-family="Times New Roman" font-size="10" lengthAdjust="spacing" textLength="70.6787" x="37.5291" y="623.9495">Step 3: &#35745;&#31639; &#955;max</text><rect fill="#F5F7FA" height="31.499" rx="12.5" ry="12.5" style="stroke:#3C5488;stroke-width:0.5;" width="88.2227" x="63.5598" y="645.1125"/><text fill="#000000" font-family="Times New Roman" font-size="10" lengthAdjust="spacing" textLength="68.2227" x="73.5598" y="664.4485">&#35745;&#31639; Aw = A &#215; w</text><rect fill="#F5F7FA" height="31.499" rx="12.5" ry="12.5" style="stroke:#3C5488;stroke-width:0.5;" width="126.2842" x="44.5291" y="696.6116"/><text fill="#000000" font-family="Times New Roman" font-size="10" lengthAdjust="spacing" textLength="106.2842" x="54.5291" y="715.9475">&#955;max = &#931;(Aw[i] / w[i]) / n</text><rect fill="none" height="177.9961" style="stroke:#000000;stroke-width:1.5;" width="135.4639" x="39.9392" y="750.1106"/><path d="M119.3875,750.1106 L119.3875,754.6096 L109.3875,764.6096 L39.9392,764.6096 " fill="none" style="stroke:#000000;stroke-width:1.5;"/><text fill="#000000" font-family="Times New Roman" font-size="10" lengthAdjust="spacing" textLength="69.4482" x="42.9392" y="760.4465">Step 4: &#19968;&#33268;&#24615;&#26816;&#39564;</text><rect fill="#F5F7FA" height="31.499" rx="12.5" ry="12.5" style="stroke:#3C5488;stroke-width:0.5;" width="115.4639" x="49.9392" y="781.6096"/><text fill="#000000" font-family="Times New Roman" font-size="10" lengthAdjust="spacing" textLength="95.4639" x="59.9392" y="800.9456">CI = (&#955;max - n) / (n - 1)</text><rect fill="#F5F7FA" height="31.499" rx="12.5" ry="12.5" style="stroke:#3C5488;stroke-width:0.5;" width="75.2734" x="70.0344" y="833.1086"/><text fill="#000000" font-family="Times New Roman" font-size="10" lengthAdjust="spacing" textLength="55.2734" x="80.0344" y="852.4446">&#26597;&#34920;&#33719;&#21462; RI(n)</text><rect fill="#F5F7FA" height="31.499" rx="12.5" ry="12.5" style="stroke:#3C5488;stroke-width:0.5;" width="71.7578" x="71.7922" y="884.6077"/><text fill="#000000" font-family="Times New Roman" font-size="10" lengthAdjust="spacing" textLength="51.7578" x="81.7922" y="903.9436">CR = CI / RI</text><polygon fill="#F5F7FA" points="87.2122,948.1067,128.1301,948.1067,140.1301,960.1067,128.1301,972.1067,87.2122,972.1067,75.2122,960.1067,87.2122,948.1067" style="stroke:#3C5488;stroke-width:0.5;"/><text fill="#000000" font-family="Times New Roman" font-size="10" lengthAdjust="spacing" textLength="40.918" x="87.2122" y="963.6931">CR &lt; 0.1?</text><text fill="#000000" font-family="Times New Roman" font-size="10" lengthAdjust="spacing" textLength="7.7783" x="67.4338" y="957.9436">&#26159;</text><text fill="#000000" font-family="Times New Roman" font-size="10" lengthAdjust="spacing" textLength="7.7783" x="140.1301" y="957.9436">&#21542;</text><rect fill="#F5F7FA" height="31.499" rx="12.5" ry="12.5" style="stroke:#3C5488;stroke-width:0.5;" width="84.7266" x="11" y="982.1067"/><text fill="#000000" font-family="Times New Roman" font-size="10" lengthAdjust="spacing" textLength="64.7266" x="21" y="1001.4426">&#9989; &#36890;&#36807;&#19968;&#33268;&#24615;&#26816;&#39564;</text><rect fill="#F5F7FA" height="31.499" rx="12.5" ry="12.5" style="stroke:#3C5488;stroke-width:0.5;" width="76.3916" x="15.1675" y="1033.6057"/><text fill="#000000" font-family="Times New Roman" font-size="10" lengthAdjust="spacing" textLength="56.3916" x="25.1675" y="1052.9417">&#20445;&#23384;&#26435;&#37325;&#21521;&#37327; w</text><rect fill="#F5F7FA" height="31.499" rx="12.5" ry="12.5" style="stroke:#3C5488;stroke-width:0.5;" width="92.5049" x="115.7266" y="982.1067"/><text fill="#000000" font-family="Times New Roman" font-size="10" lengthAdjust="spacing" textLength="72.5049" x="125.7266" y="1001.4426">&#10060; &#26410;&#36890;&#36807;&#19968;&#33268;&#24615;&#26816;&#39564;</text><rect fill="#F5F7FA" height="31.499" rx="12.5" ry="12.5" style="stroke:#3C5488;stroke-width:0.5;" width="82.2266" x="120.8657" y="1033.6057"/><text fill="#000000" font-family="Times New Roman" font-size="10" lengthAdjust="spacing" textLength="62.2266" x="130.8657" y="1052.9417">&#25552;&#31034;&#25945;&#24072;&#35843;&#25972;&#30697;&#38453;</text><rect fill="#F5F7FA" height="31.499" rx="12.5" ry="12.5" style="stroke:#3C5488;stroke-width:0.5;" width="66.6699" x="128.644" y="1085.1047"/><text fill="#000000" font-family="Times New Roman" font-size="10" lengthAdjust="spacing" textLength="46.6699" x="138.644" y="1104.4407">&#36820;&#22238;&#37325;&#26032;&#36755;&#20837;</text><polygon fill="#F5F7FA" points="107.6711,1122.6038,119.6711,1134.6038,107.6711,1146.6038,95.6711,1134.6038,107.6711,1122.6038" style="stroke:#3C5488;stroke-width:0.5;"/><ellipse cx="107.6711" cy="1177.6038" fill="none" rx="11" ry="11" style="stroke:#222222;stroke-width:1;"/><ellipse cx="107.6711" cy="1177.6038" fill="#222222" rx="6" ry="6" style="stroke:#222222;stroke-width:1;"/><line style="stroke:#181818;stroke-width:1;" x1="107.6711" x2="107.6711" y1="30" y2="50"/><polygon fill="#181818" points="103.6711,40,107.6711,50,111.6711,40,107.6711,44" style="stroke:#181818;stroke-width:1;"/><line style="stroke:#181818;stroke-width:1;" x1="107.6711" x2="107.6711" y1="81.499" y2="101.499"/><polygon fill="#181818" points="103.6711,91.499,107.6711,101.499,111.6711,91.499,107.6711,95.499" style="stroke:#181818;stroke-width:1;"/><line style="stroke:#181818;stroke-width:1;" x1="107.6711" x2="107.6711" y1="257.4951" y2="281.1204"/><polygon fill="#181818" points="103.6711,271.1204,107.6711,281.1204,111.6711,271.1204,107.6711,275.1204" style="stroke:#181818;stroke-width:1;"/><line style="stroke:#181818;stroke-width:1;" x1="107.6711" x2="107.6711" y1="205.9961" y2="225.9961"/><polygon fill="#181818" points="103.6711,215.9961,107.6711,225.9961,111.6711,215.9961,107.6711,219.9961" style="stroke:#181818;stroke-width:1;"/><line style="stroke:#181818;stroke-width:1;" x1="133.5579" x2="191.9197" y1="356.1184" y2="356.1184"/><polygon fill="#181818" points="187.9197,277.4951,191.9197,267.4951,195.9197,277.4951,191.9197,273.4951" style="stroke:#181818;stroke-width:1;"/><line style="stroke:#181818;stroke-width:1;" x1="191.9197" x2="191.9197" y1="190.2466" y2="356.1184"/><line style="stroke:#181818;stroke-width:1;" x1="191.9197" x2="135.8669" y1="190.2466" y2="190.2466"/><polygon fill="#181818" points="145.8669,186.2466,135.8669,190.2466,145.8669,194.2466,141.8669,190.2466" style="stroke:#181818;stroke-width:1;"/><line style="stroke:#181818;stroke-width:1;" x1="107.6711" x2="107.6711" y1="324.1184" y2="344.1184"/><polygon fill="#181818" points="103.6711,334.1184,107.6711,344.1184,111.6711,334.1184,107.6711,338.1184" style="stroke:#181818;stroke-width:1;"/><line style="stroke:#181818;stroke-width:1;" x1="107.6711" x2="107.6711" y1="132.998" y2="174.4971"/><polygon fill="#181818" points="103.6711,164.4971,107.6711,174.4971,111.6711,164.4971,107.6711,168.4971" style="stroke:#181818;stroke-width:1;"/><line style="stroke:#181818;stroke-width:1;" x1="107.6711" x2="107.6711" y1="474.6155" y2="494.6155"/><polygon fill="#181818" points="103.6711,484.6155,107.6711,494.6155,111.6711,484.6155,107.6711,488.6155" style="stroke:#181818;stroke-width:1;"/><line style="stroke:#181818;stroke-width:1;" x1="133.5579" x2="175.9431" y1="558.1145" y2="558.1145"/><polygon fill="#181818" points="171.9431,518.4902,175.9431,508.4902,179.9431,518.4902,175.9431,514.4902" style="stroke:#181818;stroke-width:1;"/><line style="stroke:#181818;stroke-width:1;" x1="175.9431" x2="175.9431" y1="458.866" y2="558.1145"/><line style="stroke:#181818;stroke-width:1;" x1="175.9431" x2="135.8669" y1="458.866" y2="458.866"/><polygon fill="#181818" points="145.8669,454.866,135.8669,458.866,145.8669,462.866,141.8669,458.866" style="stroke:#181818;stroke-width:1;"/><line style="stroke:#181818;stroke-width:1;" x1="107.6711" x2="107.6711" y1="526.1145" y2="546.1145"/><polygon fill="#181818" points="103.6711,536.1145,107.6711,546.1145,111.6711,536.1145,107.6711,540.1145" style="stroke:#181818;stroke-width:1;"/><line style="stroke:#181818;stroke-width:1;" x1="107.6711" x2="107.6711" y1="368.1184" y2="443.1165"/><polygon fill="#181818" points="103.6711,433.1165,107.6711,443.1165,111.6711,433.1165,107.6711,437.1165" style="stroke:#181818;stroke-width:1;"/><text fill="#000000" font-family="Times New Roman" font-size="10" lengthAdjust="spacing" textLength="7.7783" x="111.6711" y="400.1174">&#21542;</text><line style="stroke:#181818;stroke-width:1;" x1="107.6711" x2="107.6711" y1="676.6116" y2="696.6116"/><polygon fill="#181818" points="103.6711,686.6116,107.6711,696.6116,111.6711,686.6116,107.6711,690.6116" style="stroke:#181818;stroke-width:1;"/><line style="stroke:#181818;stroke-width:1;" x1="107.6711" x2="107.6711" y1="570.1145" y2="645.1125"/><polygon fill="#181818" points="103.6711,635.1125,107.6711,645.1125,111.6711,635.1125,107.6711,639.1125" style="stroke:#181818;stroke-width:1;"/><text fill="#000000" font-family="Times New Roman" font-size="10" lengthAdjust="spacing" textLength="7.7783" x="111.6711" y="602.1135">&#21542;</text><line style="stroke:#181818;stroke-width:1;" x1="107.6711" x2="107.6711" y1="813.1086" y2="833.1086"/><polygon fill="#181818" points="103.6711,823.1086,107.6711,833.1086,111.6711,823.1086,107.6711,827.1086" style="stroke:#181818;stroke-width:1;"/><line style="stroke:#181818;stroke-width:1;" x1="107.6711" x2="107.6711" y1="864.6077" y2="884.6077"/><polygon fill="#181818" points="103.6711,874.6077,107.6711,884.6077,111.6711,874.6077,107.6711,878.6077" style="stroke:#181818;stroke-width:1;"/><line style="stroke:#181818;stroke-width:1;" x1="107.6711" x2="107.6711" y1="728.1106" y2="781.6096"/><polygon fill="#181818" points="103.6711,771.6096,107.6711,781.6096,111.6711,771.6096,107.6711,775.6096" style="stroke:#181818;stroke-width:1;"/><line style="stroke:#181818;stroke-width:1;" x1="53.3633" x2="53.3633" y1="1013.6057" y2="1033.6057"/><polygon fill="#181818" points="49.3633,1023.6057,53.3633,1033.6057,57.3633,1023.6057,53.3633,1027.6057" style="stroke:#181818;stroke-width:1;"/><line style="stroke:#181818;stroke-width:1;" x1="161.979" x2="161.979" y1="1013.6057" y2="1033.6057"/><polygon fill="#181818" points="157.979,1023.6057,161.979,1033.6057,165.979,1023.6057,161.979,1027.6057" style="stroke:#181818;stroke-width:1;"/><line style="stroke:#181818;stroke-width:1;" x1="161.979" x2="161.979" y1="1065.1047" y2="1085.1047"/><polygon fill="#181818" points="157.979,1075.1047,161.979,1085.1047,165.979,1075.1047,161.979,1079.1047" style="stroke:#181818;stroke-width:1;"/><line style="stroke:#181818;stroke-width:1;" x1="75.2122" x2="53.3633" y1="960.1067" y2="960.1067"/><line style="stroke:#181818;stroke-width:1;" x1="53.3633" x2="53.3633" y1="960.1067" y2="982.1067"/><polygon fill="#181818" points="49.3633,972.1067,53.3633,982.1067,57.3633,972.1067,53.3633,976.1067" style="stroke:#181818;stroke-width:1;"/><line style="stroke:#181818;stroke-width:1;" x1="140.1301" x2="161.979" y1="960.1067" y2="960.1067"/><line style="stroke:#181818;stroke-width:1;" x1="161.979" x2="161.979" y1="960.1067" y2="982.1067"/><polygon fill="#181818" points="157.979,972.1067,161.979,982.1067,165.979,972.1067,161.979,976.1067" style="stroke:#181818;stroke-width:1;"/><line style="stroke:#181818;stroke-width:1;" x1="53.3633" x2="53.3633" y1="1065.1047" y2="1134.6038"/><line style="stroke:#181818;stroke-width:1;" x1="53.3633" x2="95.6711" y1="1134.6038" y2="1134.6038"/><polygon fill="#181818" points="85.6711,1130.6038,95.6711,1134.6038,85.6711,1138.6038,89.6711,1134.6038" style="stroke:#181818;stroke-width:1;"/><line style="stroke:#181818;stroke-width:1;" x1="161.979" x2="161.979" y1="1116.6038" y2="1134.6038"/><line style="stroke:#181818;stroke-width:1;" x1="161.979" x2="119.6711" y1="1134.6038" y2="1134.6038"/><polygon fill="#181818" points="129.6711,1130.6038,119.6711,1134.6038,129.6711,1138.6038,125.6711,1134.6038" style="stroke:#181818;stroke-width:1;"/><line style="stroke:#181818;stroke-width:1;" x1="107.6711" x2="107.6711" y1="916.1067" y2="948.1067"/><polygon fill="#181818" points="103.6711,938.1067,107.6711,948.1067,111.6711,938.1067,107.6711,942.1067" style="stroke:#181818;stroke-width:1;"/><line style="stroke:#181818;stroke-width:1;" x1="107.6711" x2="107.6711" y1="1146.6038" y2="1166.6038"/><polygon fill="#181818" points="103.6711,1156.6038,107.6711,1166.6038,111.6711,1156.6038,107.6711,1160.6038" style="stroke:#181818;stroke-width:1;"/><!--SRC=[ZPHTJzDG6CVl-ocUu8NTnLm736RdIyh28ZV4W7V8HMK7ER2UBbrnliHaPY73E1qYUr50M0154Xc94AV6xO9xFeIXPzstyFG5hB8bDatQdEV__9_Vy_ISNWPZjH7ozu9qwpPTpxPpB-bcjRsNR-sNwPSYFNhMsdt155ng3fEahCaAt9EdvkvhwZo9HzM4gi6bc7rv574qBSydz9XAz55PGN07AoW5eoWDOweYayxASVmOGL3m1EKf7J_0-gCXLOiZpItM5mtrXyETL1UmGh71cEHHfdHPqzsW84X2UD0JHETvmmFzGtqXBoIM5PN4Xphq7HuETX1wUOS7hiO4WUFiufneDjuO2pj0Zii4JklRxAQr5REHRMryQbUEG8gSISnQWqs-jRfFDtEqUD3E5O14E8uLqh6ELG8zupfAGb04Ox5i_5m-hMUCVAa7dd006aeYMGVHg7sZjO8LMIp3R8H504Hplyg-hPMqd8SfDJ4-hqpCJhh1ymopcWTybn1LKoRm91F0TP3Sjy3VQMwrz0nE8E3DPeMkFMVsDts0Ky3JIit7HFuRnjA72FVqOWUz8ZX8pkupbbwpNhlqOLEvg6b6mw1EjlW_a3x6HheniUJ_PUexOuAJ7uhyqA5n9mTIsfe579SXRPKIROb38jbG0R0UBai7ztuHh5voXpJpaMvbs65p2qH7c0tl-Fc1M0uyOMz1drs8RkoOrLtprLUZK8An4Puuoz4nbiLI0spDheUdWMUBrq2u4cGTwpE8dFSi_bfRW7RcdTdC_SDWUvqsrutF5U-Ni9f4YHIR8XkMux2U1xgsrzs45fPQszzfyQrHNpGFihHuwEnkEsWsLupLzzPlfdJWx7JcJ-9usZeYQl8t]--></g></svg>