<svg xmlns="http://www.w3.org/2000/svg" xmlns:xlink="http://www.w3.org/1999/xlink" contentStyleType="text/css" height="1216px" preserveAspectRatio="none" style="width:365px;height:1216px;background:#FFFFFF;" version="1.1" viewBox="0 0 365 1216" width="365px" zoomAndPan="magnify"><defs/><g><ellipse cx="135.6399" cy="20" fill="#222222" rx="10" ry="10" style="stroke:#222222;stroke-width:1;"/><rect fill="#F5F7FA" height="42.998" rx="12.5" ry="12.5" style="stroke:#3C5488;stroke-width:0.5;" width="82.2266" x="94.5266" y="50"/><text fill="#000000" font-family="Times New Roman" font-size="10" lengthAdjust="spacing" textLength="62.2266" x="104.5266" y="69.3359">&#33719;&#21462;&#23567;&#32452;&#25104;&#21592;&#21015;&#34920;</text><text fill="#000000" font-family="Times New Roman" font-size="10" lengthAdjust="spacing" textLength="43.3154" x="104.5266" y="80.835">(members)</text><rect fill="#F5F7FA" height="31.499" rx="12.5" ry="12.5" style="stroke:#3C5488;stroke-width:0.5;" width="101.46" x="84.9099" y="112.998"/><text fill="#000000" font-family="Times New Roman" font-size="10" lengthAdjust="spacing" textLength="81.46" x="94.9099" y="132.334">&#21021;&#22987;&#21270; maxScore = 0</text><rect fill="#F5F7FA" height="42.998" rx="12.5" ry="12.5" style="stroke:#3C5488;stroke-width:0.5;" width="162.3877" x="54.446" y="227.4951"/><text fill="#000000" font-family="Times New Roman" font-size="10" lengthAdjust="spacing" textLength="81.9482" x="64.446" y="246.8311">&#27719;&#24635; Git &#25552;&#20132;&#24471;&#20998; G_i</text><text fill="#000000" font-family="Times New Roman" font-size="10" lengthAdjust="spacing" textLength="142.3877" x="64.446" y="258.3301">(Commits + Additions + Deletions)</text><rect fill="#F5F7FA" height="42.998" rx="12.5" ry="12.5" style="stroke:#3C5488;stroke-width:0.5;" width="96.3965" x="87.4417" y="290.4932"/><text fill="#000000" font-family="Times New Roman" font-size="10" lengthAdjust="spacing" textLength="76.3965" x="97.4417" y="309.8291">&#27719;&#24635;&#39033;&#30446;&#26085;&#24535;&#24471;&#20998; J_i</text><text fill="#000000" font-family="Times New Roman" font-size="10" lengthAdjust="spacing" textLength="37.7734" x="97.4417" y="321.3281">(&#26085;&#24535;&#25968;&#37327;)</text><rect fill="#F5F7FA" height="42.998" rx="12.5" ry="12.5" style="stroke:#3C5488;stroke-width:0.5;" width="99.7217" x="85.7791" y="353.4912"/><text fill="#000000" font-family="Times New Roman" font-size="10" lengthAdjust="spacing" textLength="79.7217" x="95.7791" y="372.8271">&#27719;&#24635; AI &#38382;&#31572;&#24471;&#20998; Q_i</text><text fill="#000000" font-family="Times New Roman" font-size="10" lengthAdjust="spacing" textLength="37.7734" x="95.7791" y="384.3262">(&#25552;&#38382;&#27425;&#25968;)</text><rect fill="#F5F7FA" height="42.998" rx="12.5" ry="12.5" style="stroke:#3C5488;stroke-width:0.5;" width="83.0566" x="94.1116" y="431.4893"/><text fill="#000000" font-family="Times New Roman" font-size="10" lengthAdjust="spacing" textLength="63.0566" x="104.1116" y="450.8252">&#27719;&#24635;&#33258;&#27979;&#24471;&#20998; T_i</text><text fill="#000000" font-family="Times New Roman" font-size="10" lengthAdjust="spacing" textLength="45.5518" x="104.1116" y="462.3242">(&#27491;&#31572;&#29575;&#36716;&#25442;)</text><rect fill="#F5F7FA" height="42.998" rx="12.5" ry="12.5" style="stroke:#3C5488;stroke-width:0.5;" width="145.6934" x="62.7932" y="494.4873"/><text fill="#000000" font-family="Times New Roman" font-size="10" lengthAdjust="spacing" textLength="125.625" x="72.7932" y="513.8232">&#35745;&#31639; S_i = 0.35&#215;G_i + 0.20&#215;J_i</text><text fill="#000000" font-family="Times New Roman" font-size="10" lengthAdjust="spacing" textLength="125.6934" x="72.7932" y="525.3223">+ 0.25&#215;(Q_i + T_i) + 0.20&#215;B_i</text><rect fill="#F5F7FA" height="31.499" rx="12.5" ry="12.5" style="stroke:#3C5488;stroke-width:0.5;" width="170.8838" x="50.198" y="557.4854"/><text fill="#000000" font-family="Times New Roman" font-size="10" lengthAdjust="spacing" textLength="150.8838" x="60.198" y="576.8213">&#26356;&#26032; maxScore = max(maxScore, S_i)</text><rect fill="#F5F7FA" height="42.998" rx="12.5" ry="12.5" style="stroke:#3C5488;stroke-width:0.5;" width="90.2881" x="90.4958" y="164.4971"/><text fill="#000000" font-family="Times New Roman" font-size="10" lengthAdjust="spacing" textLength="64.7266" x="100.4958" y="183.833">&#36941;&#21382;&#27599;&#20301;&#25104;&#21592; m_i</text><text fill="#000000" font-family="Times New Roman" font-size="10" lengthAdjust="spacing" textLength="70.2881" x="100.4958" y="195.332">&#35745;&#31639;&#21407;&#22987;&#36129;&#29486;&#20998; S_i</text><polygon fill="#F5F7FA" points="117.864,608.9844,153.4158,608.9844,165.4158,620.9844,153.4158,632.9844,117.864,632.9844,105.864,620.9844,117.864,608.9844" style="stroke:#3C5488;stroke-width:0.5;"/><text fill="#000000" font-family="Times New Roman" font-size="10" lengthAdjust="spacing" textLength="35.5518" x="117.864" y="624.5708">&#36824;&#26377;&#25104;&#21592;?</text><text fill="#000000" font-family="Times New Roman" font-size="10" lengthAdjust="spacing" textLength="7.7783" x="165.4158" y="618.8213">&#26159;</text><rect fill="#F5F7FA" height="31.499" rx="12.5" ry="12.5" style="stroke:#3C5488;stroke-width:0.5;" width="112.0264" x="79.6267" y="672.6465"/><text fill="#000000" font-family="Times New Roman" font-size="10" lengthAdjust="spacing" textLength="92.0264" x="89.6267" y="691.9824">&#35774;&#32622;&#20808;&#39564;&#27010;&#29575; prior = 1/n</text><rect fill="#F5F7FA" height="31.499" rx="12.5" ry="12.5" style="stroke:#3C5488;stroke-width:0.5;" width="96.4795" x="87.4001" y="724.1455"/><text fill="#000000" font-family="Times New Roman" font-size="10" lengthAdjust="spacing" textLength="76.4795" x="97.4001" y="743.4814">&#35774;&#32622;&#24179;&#28369;&#22240;&#23376; C = 50</text><rect fill="#F5F7FA" height="31.499" rx="12.5" ry="12.5" style="stroke:#3C5488;stroke-width:0.5;" width="180.8691" x="45.2053" y="838.6426"/><text fill="#000000" font-family="Times New Roman" font-size="10" lengthAdjust="spacing" textLength="160.8691" x="55.2053" y="857.9785">r_i = (S_i + C &#215; prior) / (maxScore + C)</text><polygon fill="#F5F7FA" points="111.0598,890.1416,160.22,890.1416,172.22,902.1416,160.22,914.1416,111.0598,914.1416,99.0598,902.1416,111.0598,890.1416" style="stroke:#3C5488;stroke-width:0.5;"/><text fill="#000000" font-family="Times New Roman" font-size="10" lengthAdjust="spacing" textLength="49.1602" x="111.0598" y="905.728">r_i &#26159;&#21542;&#24322;&#24120;?</text><text fill="#000000" font-family="Times New Roman" font-size="10" lengthAdjust="spacing" textLength="7.7783" x="91.2815" y="899.9785">&#26159;</text><text fill="#000000" font-family="Times New Roman" font-size="10" lengthAdjust="spacing" textLength="7.7783" x="172.22" y="899.9785">&#21542;</text><rect fill="#F5F7FA" height="31.499" rx="12.5" ry="12.5" style="stroke:#3C5488;stroke-width:0.5;" width="82.2266" x="11" y="924.1416"/><text fill="#000000" font-family="Times New Roman" font-size="10" lengthAdjust="spacing" textLength="62.2266" x="21" y="943.4775">&#26631;&#35760;&#20026;&#38656;&#20154;&#24037;&#23457;&#26680;</text><rect fill="#F5F7FA" height="42.998" rx="12.5" ry="12.5" style="stroke:#3C5488;stroke-width:0.5;" width="211.8799" x="113.2266" y="924.1416"/><text fill="#000000" font-family="Times New Roman" font-size="10" lengthAdjust="spacing" textLength="46.6699" x="123.2266" y="943.4775">&#35745;&#31639;&#26368;&#32456;&#25104;&#32489;</text><text fill="#000000" font-family="Times New Roman" font-size="10" lengthAdjust="spacing" textLength="191.8799" x="123.2266" y="954.9766">Score_final = Score_group &#215; r_i + Score_bonus</text><rect fill="#F5F7FA" height="31.499" rx="12.5" ry="12.5" style="stroke:#3C5488;stroke-width:0.5;" width="108.3105" x="165.0112" y="987.1396"/><text fill="#000000" font-family="Times New Roman" font-size="10" lengthAdjust="spacing" textLength="88.3105" x="175.0112" y="1006.4756">&#20889;&#20837; personal_score &#34920;</text><polygon fill="#F5F7FA" points="135.6399,1024.6387,147.6399,1036.6387,135.6399,1048.6387,123.6399,1036.6387,135.6399,1024.6387" style="stroke:#3C5488;stroke-width:0.5;"/><rect fill="#F5F7FA" height="42.998" rx="12.5" ry="12.5" style="stroke:#3C5488;stroke-width:0.5;" width="84.7266" x="93.2766" y="775.6445"/><text fill="#000000" font-family="Times New Roman" font-size="10" lengthAdjust="spacing" textLength="64.7266" x="103.2766" y="794.9805">&#36941;&#21382;&#27599;&#20301;&#25104;&#21592; m_i</text><text fill="#000000" font-family="Times New Roman" font-size="10" lengthAdjust="spacing" textLength="60.2783" x="103.2766" y="806.4795">&#35745;&#31639;&#36129;&#29486;&#31995;&#25968; r_i</text><polygon fill="#F5F7FA" points="117.864,1068.6387,153.4158,1068.6387,165.4158,1080.6387,153.4158,1092.6387,117.864,1092.6387,105.864,1080.6387,117.864,1068.6387" style="stroke:#3C5488;stroke-width:0.5;"/><text fill="#000000" font-family="Times New Roman" font-size="10" lengthAdjust="spacing" textLength="35.5518" x="117.864" y="1084.2251">&#36824;&#26377;&#25104;&#21592;?</text><text fill="#000000" font-family="Times New Roman" font-size="10" lengthAdjust="spacing" textLength="7.7783" x="165.4158" y="1078.4756">&#26159;</text><rect fill="#F5F7FA" height="31.499" rx="12.5" ry="12.5" style="stroke:#3C5488;stroke-width:0.5;" width="74.4482" x="98.4158" y="1132.3008"/><text fill="#000000" font-family="Times New Roman" font-size="10" lengthAdjust="spacing" textLength="54.4482" x="108.4158" y="1151.6367">&#35302;&#21457;&#36798;&#25104;&#24230;&#37325;&#31639;</text><ellipse cx="135.6399" cy="1194.7998" fill="none" rx="11" ry="11" style="stroke:#222222;stroke-width:1;"/><ellipse cx="135.6399" cy="1194.7998" fill="#222222" rx="6" ry="6" style="stroke:#222222;stroke-width:1;"/><line style="stroke:#181818;stroke-width:1;" x1="135.6399" x2="135.6399" y1="30" y2="50"/><polygon fill="#181818" points="131.6399,40,135.6399,50,139.6399,40,135.6399,44" style="stroke:#181818;stroke-width:1;"/><line style="stroke:#181818;stroke-width:1;" x1="135.6399" x2="135.6399" y1="92.998" y2="112.998"/><polygon fill="#181818" points="131.6399,102.998,135.6399,112.998,139.6399,102.998,135.6399,106.998" style="stroke:#181818;stroke-width:1;"/><line style="stroke:#181818;stroke-width:1;" x1="135.6399" x2="135.6399" y1="270.4932" y2="290.4932"/><polygon fill="#181818" points="131.6399,280.4932,135.6399,290.4932,139.6399,280.4932,135.6399,284.4932" style="stroke:#181818;stroke-width:1;"/><line style="stroke:#181818;stroke-width:1;" x1="135.6399" x2="135.6399" y1="333.4912" y2="353.4912"/><polygon fill="#181818" points="131.6399,343.4912,135.6399,353.4912,139.6399,343.4912,135.6399,347.4912" style="stroke:#181818;stroke-width:1;"/><line style="stroke:#181818;stroke-width:1;" x1="135.6399" x2="135.6399" y1="396.4893" y2="431.4893"/><polygon fill="#181818" points="131.6399,421.4893,135.6399,431.4893,139.6399,421.4893,135.6399,425.4893" style="stroke:#181818;stroke-width:1;"/><line style="stroke:#181818;stroke-width:1;" x1="135.6399" x2="135.6399" y1="474.4873" y2="494.4873"/><polygon fill="#181818" points="131.6399,484.4873,135.6399,494.4873,139.6399,484.4873,135.6399,488.4873" style="stroke:#181818;stroke-width:1;"/><line style="stroke:#181818;stroke-width:1;" x1="135.6399" x2="135.6399" y1="537.4854" y2="557.4854"/><polygon fill="#181818" points="131.6399,547.4854,135.6399,557.4854,139.6399,547.4854,135.6399,551.4854" style="stroke:#181818;stroke-width:1;"/><line style="stroke:#181818;stroke-width:1;" x1="135.6399" x2="135.6399" y1="207.4951" y2="227.4951"/><polygon fill="#181818" points="131.6399,217.4951,135.6399,227.4951,139.6399,217.4951,135.6399,221.4951" style="stroke:#181818;stroke-width:1;"/><line style="stroke:#181818;stroke-width:1;" x1="165.4158" x2="233.0818" y1="620.9844" y2="620.9844"/><polygon fill="#181818" points="229.0818,413.4902,233.0818,403.4902,237.0818,413.4902,233.0818,409.4902" style="stroke:#181818;stroke-width:1;"/><line style="stroke:#181818;stroke-width:1;" x1="233.0818" x2="233.0818" y1="185.9961" y2="620.9844"/><line style="stroke:#181818;stroke-width:1;" x1="233.0818" x2="180.7839" y1="185.9961" y2="185.9961"/><polygon fill="#181818" points="190.7839,181.9961,180.7839,185.9961,190.7839,189.9961,186.7839,185.9961" style="stroke:#181818;stroke-width:1;"/><line style="stroke:#181818;stroke-width:1;" x1="135.6399" x2="135.6399" y1="588.9844" y2="608.9844"/><polygon fill="#181818" points="131.6399,598.9844,135.6399,608.9844,139.6399,598.9844,135.6399,602.9844" style="stroke:#181818;stroke-width:1;"/><line style="stroke:#181818;stroke-width:1;" x1="135.6399" x2="135.6399" y1="144.4971" y2="164.4971"/><polygon fill="#181818" points="131.6399,154.4971,135.6399,164.4971,139.6399,154.4971,135.6399,158.4971" style="stroke:#181818;stroke-width:1;"/><line style="stroke:#181818;stroke-width:1;" x1="135.6399" x2="135.6399" y1="632.9844" y2="672.6465"/><polygon fill="#181818" points="131.6399,662.6465,135.6399,672.6465,139.6399,662.6465,135.6399,666.6465" style="stroke:#181818;stroke-width:1;"/><text fill="#000000" font-family="Times New Roman" font-size="10" lengthAdjust="spacing" textLength="7.7783" x="139.6399" y="652.9834">&#21542;</text><line style="stroke:#181818;stroke-width:1;" x1="135.6399" x2="135.6399" y1="704.1455" y2="724.1455"/><polygon fill="#181818" points="131.6399,714.1455,135.6399,724.1455,139.6399,714.1455,135.6399,718.1455" style="stroke:#181818;stroke-width:1;"/><line style="stroke:#181818;stroke-width:1;" x1="219.1665" x2="219.1665" y1="967.1396" y2="987.1396"/><polygon fill="#181818" points="215.1665,977.1396,219.1665,987.1396,223.1665,977.1396,219.1665,981.1396" style="stroke:#181818;stroke-width:1;"/><line style="stroke:#181818;stroke-width:1;" x1="99.0598" x2="52.1133" y1="902.1416" y2="902.1416"/><line style="stroke:#181818;stroke-width:1;" x1="52.1133" x2="52.1133" y1="902.1416" y2="924.1416"/><polygon fill="#181818" points="48.1133,914.1416,52.1133,924.1416,56.1133,914.1416,52.1133,918.1416" style="stroke:#181818;stroke-width:1;"/><line style="stroke:#181818;stroke-width:1;" x1="172.22" x2="219.1665" y1="902.1416" y2="902.1416"/><line style="stroke:#181818;stroke-width:1;" x1="219.1665" x2="219.1665" y1="902.1416" y2="924.1416"/><polygon fill="#181818" points="215.1665,914.1416,219.1665,924.1416,223.1665,914.1416,219.1665,918.1416" style="stroke:#181818;stroke-width:1;"/><line style="stroke:#181818;stroke-width:1;" x1="52.1133" x2="52.1133" y1="955.6406" y2="1036.6387"/><line style="stroke:#181818;stroke-width:1;" x1="52.1133" x2="123.6399" y1="1036.6387" y2="1036.6387"/><polygon fill="#181818" points="113.6399,1032.6387,123.6399,1036.6387,113.6399,1040.6387,117.6399,1036.6387" style="stroke:#181818;stroke-width:1;"/><line style="stroke:#181818;stroke-width:1;" x1="219.1665" x2="219.1665" y1="1018.6387" y2="1036.6387"/><line style="stroke:#181818;stroke-width:1;" x1="219.1665" x2="147.6399" y1="1036.6387" y2="1036.6387"/><polygon fill="#181818" points="157.6399,1032.6387,147.6399,1036.6387,157.6399,1040.6387,153.6399,1036.6387" style="stroke:#181818;stroke-width:1;"/><line style="stroke:#181818;stroke-width:1;" x1="135.6399" x2="135.6399" y1="870.1416" y2="890.1416"/><polygon fill="#181818" points="131.6399,880.1416,135.6399,890.1416,139.6399,880.1416,135.6399,884.1416" style="stroke:#181818;stroke-width:1;"/><line style="stroke:#181818;stroke-width:1;" x1="135.6399" x2="135.6399" y1="818.6426" y2="838.6426"/><polygon fill="#181818" points="131.6399,828.6426,135.6399,838.6426,139.6399,828.6426,135.6399,832.6426" style="stroke:#181818;stroke-width:1;"/><line style="stroke:#181818;stroke-width:1;" x1="165.4158" x2="339.1064" y1="1080.6387" y2="1080.6387"/><polygon fill="#181818" points="335.1064,948.8911,339.1064,938.8911,343.1064,948.8911,339.1064,944.8911" style="stroke:#181818;stroke-width:1;"/><line style="stroke:#181818;stroke-width:1;" x1="339.1064" x2="339.1064" y1="797.1436" y2="1080.6387"/><line style="stroke:#181818;stroke-width:1;" x1="339.1064" x2="178.0032" y1="797.1436" y2="797.1436"/><polygon fill="#181818" points="188.0032,793.1436,178.0032,797.1436,188.0032,801.1436,184.0032,797.1436" style="stroke:#181818;stroke-width:1;"/><line style="stroke:#181818;stroke-width:1;" x1="135.6399" x2="135.6399" y1="1048.6387" y2="1068.6387"/><polygon fill="#181818" points="131.6399,1058.6387,135.6399,1068.6387,139.6399,1058.6387,135.6399,1062.6387" style="stroke:#181818;stroke-width:1;"/><line style="stroke:#181818;stroke-width:1;" x1="135.6399" x2="135.6399" y1="755.6445" y2="775.6445"/><polygon fill="#181818" points="131.6399,765.6445,135.6399,775.6445,139.6399,765.6445,135.6399,769.6445" style="stroke:#181818;stroke-width:1;"/><line style="stroke:#181818;stroke-width:1;" x1="135.6399" x2="135.6399" y1="1092.6387" y2="1132.3008"/><polygon fill="#181818" points="131.6399,1122.3008,135.6399,1132.3008,139.6399,1122.3008,135.6399,1126.3008" style="stroke:#181818;stroke-width:1;"/><text fill="#000000" font-family="Times New Roman" font-size="10" lengthAdjust="spacing" textLength="7.7783" x="139.6399" y="1112.6377">&#21542;</text><line style="stroke:#181818;stroke-width:1;" x1="135.6399" x2="135.6399" y1="1163.7998" y2="1183.7998"/><polygon fill="#181818" points="131.6399,1173.7998,135.6399,1183.7998,139.6399,1173.7998,135.6399,1177.7998" style="stroke:#181818;stroke-width:1;"/><!--SRC=[bLDDJzj04BtdLupKGnErW2a4A16jGafGUq2YS4IA3DcK5R4TsQPV9q25f8BW89MO2b19Mm95O5819IGb7FWhxDhv5rr_45agXpRoONVdlPatRpBtWMmsmcsTO9rk4-qNBHwJYnDQNxDEI-QAGMfbqz3foJezcpVtbnaqeCnWCSFBl02J_DJCArcQ5PCnAIt9S2_k_7o894hnisarBedg22yW6CS2Kc04lO6Nai2BToF7y7i4dPmlo4-f-3LMtmrASXB9Nh6kMBYxh-ykr5-oml7UUDI7L5HULhqWnqMvlbvV4BLuGptTWrrXlqZC2vAO7BoZxxwXpZk0Vhr3FO_Z71S8ECK3_TRgET6AfAAPzGyqLo1h6oIdMwNz2J4e864IoKee4WZqazmssLicAqKG-BTZKvACO00u5f5H1l4gz3VdysHrYHvhDvTvDmy82JmXMaQ9JOwiVc5qRvQv9HXBu4W0e9_-pDAvEWnZ5QXMkAbz9mtTZW_Rr61C4WIiAl00eiaaLh4askTdA8sSSyYNebcwC3SDgk-IAztBySB9uJxHzKepg_a947qEJTqmZpvvy54NhXNOApqiCOOVRcKFwDco1nrteKVV6DjSpLgNXpJ_rKMxxThzsVwqTuMlTTOBKysrF-AkTKUJSs61uAWJOTb2BS3WhJ6RfxHOyPlDZi7RwqEx02lecVzc6gSH1Ash3RhrqJN_QGYm0a6wSHmAj3qXXR8zHCjec9S6MSmr3rPeUO59XuoCsPzY03exn4WBu2mUsTmXHmM8iM3utmVjZjWygJF_GFQQaHqtWcDEkp6urjso8UY0LajsnB6GVJW5GPl3r3FbvFS2gLPPG-eq4hsM06oFThAMKRcfrffRSpUr6ZdV9KQ9xbJjB2YjC4SOsyEwwkZMd5dFCTLc_SU4wDHDfB38fvayzsRlKyPMA3jYtST9IPnL8cuYilIPBEv2XYs6n8W9nH7F5iQfAYPnwh-dibScsfhLQDYOMhcPpJEb4RQVKkOF]--></g></svg>