<svg xmlns="http://www.w3.org/2000/svg" xmlns:xlink="http://www.w3.org/1999/xlink" contentStyleType="text/css" height="299px" preserveAspectRatio="none" style="width:402px;height:299px;background:#FFFFFF;" version="1.1" viewBox="0 0 402 299" width="402px" zoomAndPan="magnify"><defs/><g><!--class KP--><g id="elem_KP"><rect codeLine="7" fill="#F1F1F1" height="101.4951" id="KP" rx="2.5" ry="2.5" style="stroke:#181818;stroke-width:0.5;" width="98.7119" x="23" y="13"/><ellipse cx="36.5752" cy="27" fill="#ADD1B2" rx="9" ry="9" style="stroke:#181818;stroke-width:1;"/><path d="M36.044,27.5313 L36.044,29 L38.6065,29 L38.6065,28.4531 Q38.6065,28.0938 38.7471,27.9375 Q38.8877,27.7813 39.1065,27.7813 Q39.3252,27.7813 39.4659,27.9375 Q39.6065,28.0938 39.6065,28.4531 L39.6065,30 L34.8877,30 Q34.5284,30 34.3721,29.8594 Q34.2159,29.7188 34.2159,29.5 Q34.2159,29.2813 34.3721,29.1406 Q34.5284,29 34.8877,29 L35.044,29 L35.044,25.0781 L34.8877,25.0781 Q34.5284,25.0781 34.3721,24.9375 Q34.2159,24.7969 34.2159,24.5781 Q34.2159,24.3594 34.3721,24.2188 Q34.5284,24.0781 34.8877,24.0781 L39.3877,24.0781 L39.3877,25.6094 Q39.3877,25.9688 39.2471,26.125 Q39.1065,26.2656 38.8877,26.2656 Q38.6534,26.2656 38.5127,26.125 Q38.3877,25.9688 38.3877,25.6094 L38.3877,25.0781 L36.044,25.0781 L36.044,26.5313 L36.9346,26.5313 Q36.9346,26.1406 36.9971,26.0313 Q37.1534,25.7813 37.4346,25.7813 Q37.6534,25.7813 37.794,25.9375 Q37.9346,26.0938 37.9346,26.4531 L37.9346,27.6094 Q37.9346,27.9375 37.8565,28.0469 Q37.7002,28.2813 37.4346,28.2813 Q37.1534,28.2813 36.9971,28.0313 Q36.9346,27.9219 36.9346,27.5313 L36.044,27.5313 Z " fill="#000000"/><text fill="#000000" font-family="Times New Roman" font-size="10" lengthAdjust="spacing" textLength="69.4336" x="48.7031" y="30.5864">knowledge_point</text><line style="stroke:#181818;stroke-width:0.5;" x1="24" x2="120.7119" y1="41" y2="41"/><ellipse cx="34" cy="52.2495" fill="#000000" rx="3" ry="3" style="stroke:#000000;stroke-width:1;"/><text fill="#000000" font-family="Times New Roman" font-size="10" lengthAdjust="spacing" textLength="33.0615" x="41" y="54.3359">id &#171;PK&#187;</text><line style="stroke:#181818;stroke-width:1;" x1="24" x2="120.7119" y1="60.499" y2="60.499"/><ellipse cx="34" cy="71.7485" fill="#000000" rx="3" ry="3" style="stroke:#000000;stroke-width:1;"/><text fill="#000000" font-family="Times New Roman" font-size="10" lengthAdjust="spacing" textLength="74.7119" x="41" y="73.835">objective_id &#171;FK&#187;</text><text fill="#000000" font-family="Times New Roman" font-size="10" lengthAdjust="spacing" textLength="21.6553" x="41" y="85.334">name</text><text fill="#000000" font-family="Times New Roman" font-size="10" lengthAdjust="spacing" textLength="44.4336" x="41" y="96.833">description</text><text fill="#000000" font-family="Times New Roman" font-size="10" lengthAdjust="spacing" textLength="29.4238" x="41" y="108.332">chapter</text></g><!--class QA--><g id="elem_QA"><rect codeLine="16" fill="#F1F1F1" height="112.9941" id="QA" rx="2.5" ry="2.5" style="stroke:#181818;stroke-width:0.5;" width="131.4951" x="7" y="180"/><ellipse cx="49.0098" cy="194" fill="#ADD1B2" rx="9" ry="9" style="stroke:#181818;stroke-width:1;"/><path d="M48.4785,194.5313 L48.4785,196 L51.041,196 L51.041,195.4531 Q51.041,195.0938 51.1816,194.9375 Q51.3223,194.7813 51.541,194.7813 Q51.7598,194.7813 51.9004,194.9375 Q52.041,195.0938 52.041,195.4531 L52.041,197 L47.3223,197 Q46.9629,197 46.8066,196.8594 Q46.6504,196.7188 46.6504,196.5 Q46.6504,196.2813 46.8066,196.1406 Q46.9629,196 47.3223,196 L47.4785,196 L47.4785,192.0781 L47.3223,192.0781 Q46.9629,192.0781 46.8066,191.9375 Q46.6504,191.7969 46.6504,191.5781 Q46.6504,191.3594 46.8066,191.2188 Q46.9629,191.0781 47.3223,191.0781 L51.8223,191.0781 L51.8223,192.6094 Q51.8223,192.9688 51.6816,193.125 Q51.541,193.2656 51.3223,193.2656 Q51.0879,193.2656 50.9473,193.125 Q50.8223,192.9688 50.8223,192.6094 L50.8223,192.0781 L48.4785,192.0781 L48.4785,193.5313 L49.3691,193.5313 Q49.3691,193.1406 49.4316,193.0313 Q49.5879,192.7813 49.8691,192.7813 Q50.0879,192.7813 50.2285,192.9375 Q50.3691,193.0938 50.3691,193.4531 L50.3691,194.6094 Q50.3691,194.9375 50.291,195.0469 Q50.1348,195.2813 49.8691,195.2813 Q49.5879,195.2813 49.4316,195.0313 Q49.3691,194.9219 49.3691,194.5313 L48.4785,194.5313 Z " fill="#000000"/><text fill="#000000" font-family="Times New Roman" font-size="10" lengthAdjust="spacing" textLength="39.9756" x="66.5098" y="197.5864">qa_record</text><line style="stroke:#181818;stroke-width:0.5;" x1="8" x2="137.4951" y1="208" y2="208"/><ellipse cx="18" cy="219.2495" fill="#000000" rx="3" ry="3" style="stroke:#000000;stroke-width:1;"/><text fill="#000000" font-family="Times New Roman" font-size="10" lengthAdjust="spacing" textLength="33.0615" x="25" y="221.3359">id &#171;PK&#187;</text><line style="stroke:#181818;stroke-width:1;" x1="8" x2="137.4951" y1="227.499" y2="227.499"/><ellipse cx="18" cy="238.7485" fill="#000000" rx="3" ry="3" style="stroke:#000000;stroke-width:1;"/><text fill="#000000" font-family="Times New Roman" font-size="10" lengthAdjust="spacing" textLength="54.7217" x="25" y="240.835">user_id &#171;FK&#187;</text><ellipse cx="18" cy="250.2476" fill="#000000" rx="3" ry="3" style="stroke:#000000;stroke-width:1;"/><text fill="#000000" font-family="Times New Roman" font-size="10" lengthAdjust="spacing" textLength="107.4951" x="25" y="252.334">knowledge_point_id &#171;FK&#187;</text><text fill="#000000" font-family="Times New Roman" font-size="10" lengthAdjust="spacing" textLength="33.8867" x="25" y="263.833">question</text><text fill="#000000" font-family="Times New Roman" font-size="10" lengthAdjust="spacing" textLength="28.3203" x="25" y="275.332">answer</text><text fill="#000000" font-family="Times New Roman" font-size="10" lengthAdjust="spacing" textLength="33.877" x="25" y="286.8311">resolved</text></g><!--class QZ--><g id="elem_QZ"><rect codeLine="26" fill="#F1F1F1" height="112.9941" id="QZ" rx="2.5" ry="2.5" style="stroke:#181818;stroke-width:0.5;" width="98.7119" x="235" y="7"/><ellipse cx="272.0728" cy="21" fill="#ADD1B2" rx="9" ry="9" style="stroke:#181818;stroke-width:1;"/><path d="M271.5416,21.5313 L271.5416,23 L274.1041,23 L274.1041,22.4531 Q274.1041,22.0938 274.2447,21.9375 Q274.3853,21.7813 274.6041,21.7813 Q274.8228,21.7813 274.9634,21.9375 Q275.1041,22.0938 275.1041,22.4531 L275.1041,24 L270.3853,24 Q270.0259,24 269.8697,23.8594 Q269.7134,23.7188 269.7134,23.5 Q269.7134,23.2813 269.8697,23.1406 Q270.0259,23 270.3853,23 L270.5416,23 L270.5416,19.0781 L270.3853,19.0781 Q270.0259,19.0781 269.8697,18.9375 Q269.7134,18.7969 269.7134,18.5781 Q269.7134,18.3594 269.8697,18.2188 Q270.0259,18.0781 270.3853,18.0781 L274.8853,18.0781 L274.8853,19.6094 Q274.8853,19.9688 274.7447,20.125 Q274.6041,20.2656 274.3853,20.2656 Q274.1509,20.2656 274.0103,20.125 Q273.8853,19.9688 273.8853,19.6094 L273.8853,19.0781 L271.5416,19.0781 L271.5416,20.5313 L272.4322,20.5313 Q272.4322,20.1406 272.4947,20.0313 Q272.6509,19.7813 272.9322,19.7813 Q273.1509,19.7813 273.2916,19.9375 Q273.4322,20.0938 273.4322,20.4531 L273.4322,21.6094 Q273.4322,21.9375 273.3541,22.0469 Q273.1978,22.2813 272.9322,22.2813 Q272.6509,22.2813 272.4947,22.0313 Q272.4322,21.9219 272.4322,21.5313 L271.5416,21.5313 Z " fill="#000000"/><text fill="#000000" font-family="Times New Roman" font-size="10" lengthAdjust="spacing" textLength="17.2168" x="289.4223" y="24.5864">quiz</text><line style="stroke:#181818;stroke-width:0.5;" x1="236" x2="332.7119" y1="35" y2="35"/><ellipse cx="246" cy="46.2495" fill="#000000" rx="3" ry="3" style="stroke:#000000;stroke-width:1;"/><text fill="#000000" font-family="Times New Roman" font-size="10" lengthAdjust="spacing" textLength="33.0615" x="253" y="48.3359">id &#171;PK&#187;</text><line style="stroke:#181818;stroke-width:1;" x1="236" x2="332.7119" y1="54.499" y2="54.499"/><ellipse cx="246" cy="65.7485" fill="#000000" rx="3" ry="3" style="stroke:#000000;stroke-width:1;"/><text fill="#000000" font-family="Times New Roman" font-size="10" lengthAdjust="spacing" textLength="74.7119" x="253" y="67.835">objective_id &#171;FK&#187;</text><ellipse cx="246" cy="77.2476" fill="#000000" rx="3" ry="3" style="stroke:#000000;stroke-width:1;"/><text fill="#000000" font-family="Times New Roman" font-size="10" lengthAdjust="spacing" textLength="65.8154" x="253" y="79.334">creator_id &#171;FK&#187;</text><text fill="#000000" font-family="Times New Roman" font-size="10" lengthAdjust="spacing" textLength="15.5518" x="253" y="90.833">title</text><text fill="#000000" font-family="Times New Roman" font-size="10" lengthAdjust="spacing" textLength="61.1035" x="253" y="102.332">question_count</text><text fill="#000000" font-family="Times New Roman" font-size="10" lengthAdjust="spacing" textLength="22.7783" x="253" y="113.8311">status</text></g><!--class QNA--><g id="elem_QNA"><rect codeLine="36" fill="#F1F1F1" height="112.9941" id="QNA" rx="2.5" ry="2.5" style="stroke:#181818;stroke-width:0.5;" width="95.207" x="173" y="180"/><ellipse cx="186" cy="194" fill="#ADD1B2" rx="9" ry="9" style="stroke:#181818;stroke-width:1;"/><path d="M185.4688,194.5313 L185.4688,196 L188.0313,196 L188.0313,195.4531 Q188.0313,195.0938 188.1719,194.9375 Q188.3125,194.7813 188.5313,194.7813 Q188.75,194.7813 188.8906,194.9375 Q189.0313,195.0938 189.0313,195.4531 L189.0313,197 L184.3125,197 Q183.9531,197 183.7969,196.8594 Q183.6406,196.7188 183.6406,196.5 Q183.6406,196.2813 183.7969,196.1406 Q183.9531,196 184.3125,196 L184.4688,196 L184.4688,192.0781 L184.3125,192.0781 Q183.9531,192.0781 183.7969,191.9375 Q183.6406,191.7969 183.6406,191.5781 Q183.6406,191.3594 183.7969,191.2188 Q183.9531,191.0781 184.3125,191.0781 L188.8125,191.0781 L188.8125,192.6094 Q188.8125,192.9688 188.6719,193.125 Q188.5313,193.2656 188.3125,193.2656 Q188.0781,193.2656 187.9375,193.125 Q187.8125,192.9688 187.8125,192.6094 L187.8125,192.0781 L185.4688,192.0781 L185.4688,193.5313 L186.3594,193.5313 Q186.3594,193.1406 186.4219,193.0313 Q186.5781,192.7813 186.8594,192.7813 Q187.0781,192.7813 187.2188,192.9375 Q187.3594,193.0938 187.3594,193.4531 L187.3594,194.6094 Q187.3594,194.9375 187.2813,195.0469 Q187.125,195.2813 186.8594,195.2813 Q186.5781,195.2813 186.4219,195.0313 Q186.3594,194.9219 186.3594,194.5313 L185.4688,194.5313 Z " fill="#000000"/><text fill="#000000" font-family="Times New Roman" font-size="10" lengthAdjust="spacing" textLength="67.207" x="198" y="197.5864">question_answer</text><line style="stroke:#181818;stroke-width:0.5;" x1="174" x2="267.207" y1="208" y2="208"/><ellipse cx="184" cy="219.2495" fill="#000000" rx="3" ry="3" style="stroke:#000000;stroke-width:1;"/><text fill="#000000" font-family="Times New Roman" font-size="10" lengthAdjust="spacing" textLength="33.0615" x="191" y="221.3359">id &#171;PK&#187;</text><line style="stroke:#181818;stroke-width:1;" x1="174" x2="267.207" y1="227.499" y2="227.499"/><ellipse cx="184" cy="238.7485" fill="#000000" rx="3" ry="3" style="stroke:#000000;stroke-width:1;"/><text fill="#000000" font-family="Times New Roman" font-size="10" lengthAdjust="spacing" textLength="55.2783" x="191" y="240.835">quiz_id &#171;FK&#187;</text><text fill="#000000" font-family="Times New Roman" font-size="10" lengthAdjust="spacing" textLength="53.8818" x="191" y="252.334">question_text</text><text fill="#000000" font-family="Times New Roman" font-size="10" lengthAdjust="spacing" textLength="56.1035" x="191" y="263.833">question_type</text><text fill="#000000" font-family="Times New Roman" font-size="10" lengthAdjust="spacing" textLength="61.0742" x="191" y="275.332">correct_answer</text><text fill="#000000" font-family="Times New Roman" font-size="10" lengthAdjust="spacing" textLength="21.0986" x="191" y="286.8311">score</text></g><!--class ST--><g id="elem_ST"><rect codeLine="46" fill="#F1F1F1" height="112.9941" id="ST" rx="2.5" ry="2.5" style="stroke:#181818;stroke-width:0.5;" width="91.8623" x="303.5" y="180"/><ellipse cx="316.5" cy="194" fill="#ADD1B2" rx="9" ry="9" style="stroke:#181818;stroke-width:1;"/><path d="M315.9688,194.5313 L315.9688,196 L318.5313,196 L318.5313,195.4531 Q318.5313,195.0938 318.6719,194.9375 Q318.8125,194.7813 319.0313,194.7813 Q319.25,194.7813 319.3906,194.9375 Q319.5313,195.0938 319.5313,195.4531 L319.5313,197 L314.8125,197 Q314.4531,197 314.2969,196.8594 Q314.1406,196.7188 314.1406,196.5 Q314.1406,196.2813 314.2969,196.1406 Q314.4531,196 314.8125,196 L314.9688,196 L314.9688,192.0781 L314.8125,192.0781 Q314.4531,192.0781 314.2969,191.9375 Q314.1406,191.7969 314.1406,191.5781 Q314.1406,191.3594 314.2969,191.2188 Q314.4531,191.0781 314.8125,191.0781 L319.3125,191.0781 L319.3125,192.6094 Q319.3125,192.9688 319.1719,193.125 Q319.0313,193.2656 318.8125,193.2656 Q318.5781,193.2656 318.4375,193.125 Q318.3125,192.9688 318.3125,192.6094 L318.3125,192.0781 L315.9688,192.0781 L315.9688,193.5313 L316.8594,193.5313 Q316.8594,193.1406 316.9219,193.0313 Q317.0781,192.7813 317.3594,192.7813 Q317.5781,192.7813 317.7188,192.9375 Q317.8594,193.0938 317.8594,193.4531 L317.8594,194.6094 Q317.8594,194.9375 317.7813,195.0469 Q317.625,195.2813 317.3594,195.2813 Q317.0781,195.2813 316.9219,195.0313 Q316.8594,194.9219 316.8594,194.5313 L315.9688,194.5313 Z " fill="#000000"/><text fill="#000000" font-family="Times New Roman" font-size="10" lengthAdjust="spacing" textLength="63.8623" x="328.5" y="197.5864">self_test_record</text><line style="stroke:#181818;stroke-width:0.5;" x1="304.5" x2="394.3623" y1="208" y2="208"/><ellipse cx="314.5" cy="219.2495" fill="#000000" rx="3" ry="3" style="stroke:#000000;stroke-width:1;"/><text fill="#000000" font-family="Times New Roman" font-size="10" lengthAdjust="spacing" textLength="33.0615" x="321.5" y="221.3359">id &#171;PK&#187;</text><line style="stroke:#181818;stroke-width:1;" x1="304.5" x2="394.3623" y1="227.499" y2="227.499"/><ellipse cx="314.5" cy="238.7485" fill="#000000" rx="3" ry="3" style="stroke:#000000;stroke-width:1;"/><text fill="#000000" font-family="Times New Roman" font-size="10" lengthAdjust="spacing" textLength="54.7217" x="321.5" y="240.835">user_id &#171;FK&#187;</text><ellipse cx="314.5" cy="250.2476" fill="#000000" rx="3" ry="3" style="stroke:#000000;stroke-width:1;"/><text fill="#000000" font-family="Times New Roman" font-size="10" lengthAdjust="spacing" textLength="55.2783" x="321.5" y="252.334">quiz_id &#171;FK&#187;</text><text fill="#000000" font-family="Times New Roman" font-size="10" lengthAdjust="spacing" textLength="43.8721" x="321.5" y="263.833">total_score</text><text fill="#000000" font-family="Times New Roman" font-size="10" lengthAdjust="spacing" textLength="54.9707" x="321.5" y="275.332">correct_count</text><text fill="#000000" font-family="Times New Roman" font-size="10" lengthAdjust="spacing" textLength="53.8672" x="321.5" y="286.8311">completed_at</text></g><!--link KP to QA--><g id="link_KP_QA"><path codeLine="56" d="M72.5,122.42 C72.5,142.92 72.5,140.75 72.5,161.82 " fill="none" id="KP-QA" style="stroke:#181818;stroke-width:1;"/><line style="stroke:#181818;stroke-width:1;" x1="68.5" x2="76.5" y1="118.42" y2="118.42"/><line style="stroke:#181818;stroke-width:1;" x1="68.5" x2="76.5" y1="121.42" y2="121.42"/><line style="stroke:#181818;stroke-width:1;" x1="72.5" x2="72.5" y1="122.42" y2="114.42"/><line style="stroke:#181818;stroke-width:1;" x1="72.5" x2="78.5" y1="171.82" y2="179.82"/><line style="stroke:#181818;stroke-width:1;" x1="72.5" x2="66.5" y1="171.82" y2="179.82"/><line style="stroke:#181818;stroke-width:1;" x1="72.5" x2="72.5" y1="171.82" y2="179.82"/><ellipse cx="72.5" cy="165.82" fill="none" rx="4" ry="4" style="stroke:#181818;stroke-width:1;"/></g><!--link QZ to QNA--><g id="link_QZ_QNA"><path codeLine="57" d="M260.9157,127.5124 C253.7257,146.7224 254.7768,143.891 247.5868,163.111 " fill="none" id="QZ-QNA" style="stroke:#181818;stroke-width:1;"/><line style="stroke:#181818;stroke-width:1;" x1="258.5717" x2="266.0641" y1="122.3641" y2="125.1683"/><line style="stroke:#181818;stroke-width:1;" x1="257.5201" x2="265.0124" y1="125.1737" y2="127.978"/><line style="stroke:#181818;stroke-width:1;" x1="260.9157" x2="263.72" y1="127.5124" y2="120.02"/><line style="stroke:#181818;stroke-width:1;" x1="244.083" x2="246.8997" y1="172.4771" y2="182.0723"/><line style="stroke:#181818;stroke-width:1;" x1="244.083" x2="235.6603" y1="172.4771" y2="177.8677"/><line style="stroke:#181818;stroke-width:1;" x1="244.083" x2="241.28" y1="172.4771" y2="179.97"/><ellipse cx="246.1853" cy="166.8575" fill="none" rx="4" ry="4" style="stroke:#181818;stroke-width:1;"/></g><!--link QZ to ST--><g id="link_QZ_ST"><path codeLine="58" d="M308.4452,127.4969 C315.7552,146.7069 314.6988,143.9228 321.9988,163.1428 " fill="none" id="QZ-ST" style="stroke:#181818;stroke-width:1;"/><line style="stroke:#181818;stroke-width:1;" x1="303.2841" x2="310.7611" y1="125.1811" y2="122.3359"/><line style="stroke:#181818;stroke-width:1;" x1="304.3511" x2="311.828" y1="127.9849" y2="125.1397"/><line style="stroke:#181818;stroke-width:1;" x1="308.4452" x2="305.6" y1="127.4969" y2="120.02"/><line style="stroke:#181818;stroke-width:1;" x1="325.5495" x2="333.9991" y1="172.4913" y2="177.8396"/><line style="stroke:#181818;stroke-width:1;" x1="325.5495" x2="322.7809" y1="172.4913" y2="182.1004"/><line style="stroke:#181818;stroke-width:1;" x1="325.5495" x2="328.39" y1="172.4913" y2="179.97"/><ellipse cx="323.4191" cy="166.8822" fill="none" rx="4" ry="4" style="stroke:#181818;stroke-width:1;"/></g><!--SRC=[bPBBRi8m44Nt-OeHtI55QjMYia1852aRf8WMLjrOnXweIs87UmBbqN-lINWaXLOY6siUyJrpnswkTCOjJs72nNncJQvbtoJ6mbrKV84xTKYSyZoXo6YAUOemLYawY745RoRb-dhdI6qG7kuhHTIaQFrYh4Hxa7hijvxQxSkU2wHMz1prWg0iGsEkpIf1EKEM6QMf0Tp1O0ZR0A09IaAdCnnqkpuAmo9b9fyeI2sH5SMeB6e_Z3yaEc5LHife7uaFdX7QuFkijk3Cel3SXSvhxs-TtA6jIJJX5sgjkiZH7MIvTYkl2c3HcMI9iWQGgqsf_NxhZ4qG5ZcPEfQ_Di4A01FURF89HvnoLzS-j9I49KRyZmTxsAjJCi8lgiNhR0_XdVNs4ZjPu7m6gmmEawd_sr5r3wFnJNkum293F66brXdYQ8GmQPOWeMISzYZ-TUrsOMYsVl-1NyCnYAlHQFm3]--></g></svg>