<svg xmlns="http://www.w3.org/2000/svg" xmlns:xlink="http://www.w3.org/1999/xlink" contentStyleType="text/css" height="426px" preserveAspectRatio="none" style="width:234px;height:426px;background:#FFFFFF;" version="1.1" viewBox="0 0 234 426" width="234px" zoomAndPan="magnify"><defs/><g><!--class G--><g id="elem_G"><rect codeLine="7" fill="#F1F1F1" height="89.9961" id="G" rx="2.5" ry="2.5" style="stroke:#181818;stroke-width:0.5;" width="88.1602" x="10.5" y="7"/><ellipse cx="25.3299" cy="21" fill="#ADD1B2" rx="9" ry="9" style="stroke:#181818;stroke-width:1;"/><path d="M24.7986,21.5313 L24.7986,23 L27.3611,23 L27.3611,22.4531 Q27.3611,22.0938 27.5018,21.9375 Q27.6424,21.7813 27.8611,21.7813 Q28.0799,21.7813 28.2205,21.9375 Q28.3611,22.0938 28.3611,22.4531 L28.3611,24 L23.6424,24 Q23.283,24 23.1268,23.8594 Q22.9705,23.7188 22.9705,23.5 Q22.9705,23.2813 23.1268,23.1406 Q23.283,23 23.6424,23 L23.7986,23 L23.7986,19.0781 L23.6424,19.0781 Q23.283,19.0781 23.1268,18.9375 Q22.9705,18.7969 22.9705,18.5781 Q22.9705,18.3594 23.1268,18.2188 Q23.283,18.0781 23.6424,18.0781 L28.1424,18.0781 L28.1424,19.6094 Q28.1424,19.9688 28.0018,20.125 Q27.8611,20.2656 27.6424,20.2656 Q27.408,20.2656 27.2674,20.125 Q27.1424,19.9688 27.1424,19.6094 L27.1424,19.0781 L24.7986,19.0781 L24.7986,20.5313 L25.6893,20.5313 Q25.6893,20.1406 25.7518,20.0313 Q25.908,19.7813 26.1893,19.7813 Q26.408,19.7813 26.5486,19.9375 Q26.6893,20.0938 26.6893,20.4531 L26.6893,21.6094 Q26.6893,21.9375 26.6111,22.0469 Q26.4549,22.2813 26.1893,22.2813 Q25.908,22.2813 25.7518,22.0313 Q25.6893,21.9219 25.6893,21.5313 L24.7986,21.5313 Z " fill="#000000"/><text fill="#000000" font-family="Times New Roman" font-size="10" lengthAdjust="spacing" textLength="56.0938" x="37.7365" y="24.5864">project_group</text><line style="stroke:#181818;stroke-width:0.5;" x1="11.5" x2="97.6602" y1="35" y2="35"/><ellipse cx="21.5" cy="46.2495" fill="#000000" rx="3" ry="3" style="stroke:#000000;stroke-width:1;"/><text fill="#000000" font-family="Times New Roman" font-size="10" lengthAdjust="spacing" textLength="33.0615" x="28.5" y="48.3359">id &#171;PK&#187;</text><line style="stroke:#181818;stroke-width:1;" x1="11.5" x2="97.6602" y1="54.499" y2="54.499"/><ellipse cx="21.5" cy="65.7485" fill="#000000" rx="3" ry="3" style="stroke:#000000;stroke-width:1;"/><text fill="#000000" font-family="Times New Roman" font-size="10" lengthAdjust="spacing" textLength="64.1602" x="28.5" y="67.835">course_id &#171;FK&#187;</text><text fill="#000000" font-family="Times New Roman" font-size="10" lengthAdjust="spacing" textLength="21.6553" x="28.5" y="79.334">name</text><text fill="#000000" font-family="Times New Roman" font-size="10" lengthAdjust="spacing" textLength="54.4189" x="28.5" y="90.833">project_name</text></g><!--class GM--><g id="elem_GM"><rect codeLine="15" fill="#F1F1F1" height="101.4951" id="GM" rx="2.5" ry="2.5" style="stroke:#181818;stroke-width:0.5;" width="89.0938" x="10" y="157"/><ellipse cx="23" cy="171" fill="#ADD1B2" rx="9" ry="9" style="stroke:#181818;stroke-width:1;"/><path d="M22.4688,171.5313 L22.4688,173 L25.0313,173 L25.0313,172.4531 Q25.0313,172.0938 25.1719,171.9375 Q25.3125,171.7813 25.5313,171.7813 Q25.75,171.7813 25.8906,171.9375 Q26.0313,172.0938 26.0313,172.4531 L26.0313,174 L21.3125,174 Q20.9531,174 20.7969,173.8594 Q20.6406,173.7188 20.6406,173.5 Q20.6406,173.2813 20.7969,173.1406 Q20.9531,173 21.3125,173 L21.4688,173 L21.4688,169.0781 L21.3125,169.0781 Q20.9531,169.0781 20.7969,168.9375 Q20.6406,168.7969 20.6406,168.5781 Q20.6406,168.3594 20.7969,168.2188 Q20.9531,168.0781 21.3125,168.0781 L25.8125,168.0781 L25.8125,169.6094 Q25.8125,169.9688 25.6719,170.125 Q25.5313,170.2656 25.3125,170.2656 Q25.0781,170.2656 24.9375,170.125 Q24.8125,169.9688 24.8125,169.6094 L24.8125,169.0781 L22.4688,169.0781 L22.4688,170.5313 L23.3594,170.5313 Q23.3594,170.1406 23.4219,170.0313 Q23.5781,169.7813 23.8594,169.7813 Q24.0781,169.7813 24.2188,169.9375 Q24.3594,170.0938 24.3594,170.4531 L24.3594,171.6094 Q24.3594,171.9375 24.2813,172.0469 Q24.125,172.2813 23.8594,172.2813 Q23.5781,172.2813 23.4219,172.0313 Q23.3594,171.9219 23.3594,171.5313 L22.4688,171.5313 Z " fill="#000000"/><text fill="#000000" font-family="Times New Roman" font-size="10" lengthAdjust="spacing" textLength="61.0938" x="35" y="174.5864">group_member</text><line style="stroke:#181818;stroke-width:0.5;" x1="11" x2="98.0938" y1="185" y2="185"/><ellipse cx="21" cy="196.2495" fill="#000000" rx="3" ry="3" style="stroke:#000000;stroke-width:1;"/><text fill="#000000" font-family="Times New Roman" font-size="10" lengthAdjust="spacing" textLength="33.0615" x="28" y="198.3359">id &#171;PK&#187;</text><line style="stroke:#181818;stroke-width:1;" x1="11" x2="98.0938" y1="204.499" y2="204.499"/><ellipse cx="21" cy="215.7485" fill="#000000" rx="3" ry="3" style="stroke:#000000;stroke-width:1;"/><text fill="#000000" font-family="Times New Roman" font-size="10" lengthAdjust="spacing" textLength="54.7217" x="28" y="217.835">user_id &#171;FK&#187;</text><ellipse cx="21" cy="227.2476" fill="#000000" rx="3" ry="3" style="stroke:#000000;stroke-width:1;"/><text fill="#000000" font-family="Times New Roman" font-size="10" lengthAdjust="spacing" textLength="61.3916" x="28" y="229.334">group_id &#171;FK&#187;</text><text fill="#000000" font-family="Times New Roman" font-size="10" lengthAdjust="spacing" textLength="32.2266" x="28" y="240.833">position</text><text fill="#000000" font-family="Times New Roman" font-size="10" lengthAdjust="spacing" textLength="37.2119" x="28" y="252.332">joined_at</text></g><!--class PH--><g id="elem_PH"><rect codeLine="24" fill="#F1F1F1" height="101.4951" id="PH" rx="2.5" ry="2.5" style="stroke:#181818;stroke-width:0.5;" width="94.8252" x="7" y="318"/><ellipse cx="20.8191" cy="332" fill="#ADD1B2" rx="9" ry="9" style="stroke:#181818;stroke-width:1;"/><path d="M20.2879,332.5313 L20.2879,334 L22.8504,334 L22.8504,333.4531 Q22.8504,333.0938 22.991,332.9375 Q23.1316,332.7813 23.3504,332.7813 Q23.5691,332.7813 23.7098,332.9375 Q23.8504,333.0938 23.8504,333.4531 L23.8504,335 L19.1316,335 Q18.7723,335 18.616,334.8594 Q18.4598,334.7188 18.4598,334.5 Q18.4598,334.2813 18.616,334.1406 Q18.7723,334 19.1316,334 L19.2879,334 L19.2879,330.0781 L19.1316,330.0781 Q18.7723,330.0781 18.616,329.9375 Q18.4598,329.7969 18.4598,329.5781 Q18.4598,329.3594 18.616,329.2188 Q18.7723,329.0781 19.1316,329.0781 L23.6316,329.0781 L23.6316,330.6094 Q23.6316,330.9688 23.491,331.125 Q23.3504,331.2656 23.1316,331.2656 Q22.8973,331.2656 22.7566,331.125 Q22.6316,330.9688 22.6316,330.6094 L22.6316,330.0781 L20.2879,330.0781 L20.2879,331.5313 L21.1785,331.5313 Q21.1785,331.1406 21.241,331.0313 Q21.3973,330.7813 21.6785,330.7813 Q21.8973,330.7813 22.0379,330.9375 Q22.1785,331.0938 22.1785,331.4531 L22.1785,332.6094 Q22.1785,332.9375 22.1004,333.0469 Q21.9441,333.2813 21.6785,333.2813 Q21.3973,333.2813 21.241,333.0313 Q21.1785,332.9219 21.1785,332.5313 L20.2879,332.5313 Z " fill="#000000"/><text fill="#000000" font-family="Times New Roman" font-size="10" lengthAdjust="spacing" textLength="65.0049" x="33.0012" y="335.5864">position_history</text><line style="stroke:#181818;stroke-width:0.5;" x1="8" x2="100.8252" y1="346" y2="346"/><ellipse cx="18" cy="357.2495" fill="#000000" rx="3" ry="3" style="stroke:#000000;stroke-width:1;"/><text fill="#000000" font-family="Times New Roman" font-size="10" lengthAdjust="spacing" textLength="33.0615" x="25" y="359.3359">id &#171;PK&#187;</text><line style="stroke:#181818;stroke-width:1;" x1="8" x2="100.8252" y1="365.499" y2="365.499"/><ellipse cx="18" cy="376.7485" fill="#000000" rx="3" ry="3" style="stroke:#000000;stroke-width:1;"/><text fill="#000000" font-family="Times New Roman" font-size="10" lengthAdjust="spacing" textLength="70.8252" x="25" y="378.835">member_id &#171;FK&#187;</text><text fill="#000000" font-family="Times New Roman" font-size="10" lengthAdjust="spacing" textLength="50.0049" x="25" y="390.334">old_position</text><text fill="#000000" font-family="Times New Roman" font-size="10" lengthAdjust="spacing" textLength="53.8867" x="25" y="401.833">new_position</text><text fill="#000000" font-family="Times New Roman" font-size="10" lengthAdjust="spacing" textLength="45.5322" x="25" y="413.332">changed_at</text></g><!--class PC--><g id="elem_PC"><rect codeLine="33" fill="#F1F1F1" height="89.9961" id="PC" rx="2.5" ry="2.5" style="stroke:#181818;stroke-width:0.5;" width="93.5371" x="133.5" y="7"/><ellipse cx="146.5" cy="21" fill="#ADD1B2" rx="9" ry="9" style="stroke:#181818;stroke-width:1;"/><path d="M145.9688,21.5313 L145.9688,23 L148.5313,23 L148.5313,22.4531 Q148.5313,22.0938 148.6719,21.9375 Q148.8125,21.7813 149.0313,21.7813 Q149.25,21.7813 149.3906,21.9375 Q149.5313,22.0938 149.5313,22.4531 L149.5313,24 L144.8125,24 Q144.4531,24 144.2969,23.8594 Q144.1406,23.7188 144.1406,23.5 Q144.1406,23.2813 144.2969,23.1406 Q144.4531,23 144.8125,23 L144.9688,23 L144.9688,19.0781 L144.8125,19.0781 Q144.4531,19.0781 144.2969,18.9375 Q144.1406,18.7969 144.1406,18.5781 Q144.1406,18.3594 144.2969,18.2188 Q144.4531,18.0781 144.8125,18.0781 L149.3125,18.0781 L149.3125,19.6094 Q149.3125,19.9688 149.1719,20.125 Q149.0313,20.2656 148.8125,20.2656 Q148.5781,20.2656 148.4375,20.125 Q148.3125,19.9688 148.3125,19.6094 L148.3125,19.0781 L145.9688,19.0781 L145.9688,20.5313 L146.8594,20.5313 Q146.8594,20.1406 146.9219,20.0313 Q147.0781,19.7813 147.3594,19.7813 Q147.5781,19.7813 147.7188,19.9375 Q147.8594,20.0938 147.8594,20.4531 L147.8594,21.6094 Q147.8594,21.9375 147.7813,22.0469 Q147.625,22.2813 147.3594,22.2813 Q147.0781,22.2813 146.9219,22.0313 Q146.8594,21.9219 146.8594,21.5313 L145.9688,21.5313 Z " fill="#000000"/><text fill="#000000" font-family="Times New Roman" font-size="10" lengthAdjust="spacing" textLength="65.5371" x="158.5" y="24.5864">position_criteria</text><line style="stroke:#181818;stroke-width:0.5;" x1="134.5" x2="226.0371" y1="35" y2="35"/><ellipse cx="144.5" cy="46.2495" fill="#000000" rx="3" ry="3" style="stroke:#000000;stroke-width:1;"/><text fill="#000000" font-family="Times New Roman" font-size="10" lengthAdjust="spacing" textLength="33.0615" x="151.5" y="48.3359">id &#171;PK&#187;</text><line style="stroke:#181818;stroke-width:1;" x1="134.5" x2="226.0371" y1="54.499" y2="54.499"/><text fill="#000000" font-family="Times New Roman" font-size="10" lengthAdjust="spacing" textLength="56.1035" x="139.5" y="67.835">position_code</text><text fill="#000000" font-family="Times New Roman" font-size="10" lengthAdjust="spacing" textLength="54.9658" x="139.5" y="79.334">criteria_name</text><text fill="#000000" font-family="Times New Roman" font-size="10" lengthAdjust="spacing" textLength="27.2168" x="139.5" y="90.833">weight</text></g><!--link G to GM--><g id="link_G_GM"><path codeLine="41" d="M54.5,105.4 C54.5,123.99 54.5,119.69 54.5,138.81 " fill="none" id="G-GM" style="stroke:#181818;stroke-width:1;"/><line style="stroke:#181818;stroke-width:1;" x1="50.5" x2="58.5" y1="101.4" y2="101.4"/><line style="stroke:#181818;stroke-width:1;" x1="50.5" x2="58.5" y1="104.4" y2="104.4"/><line style="stroke:#181818;stroke-width:1;" x1="54.5" x2="54.5" y1="105.4" y2="97.4"/><line style="stroke:#181818;stroke-width:1;" x1="54.5" x2="60.5" y1="148.81" y2="156.81"/><line style="stroke:#181818;stroke-width:1;" x1="54.5" x2="48.5" y1="148.81" y2="156.81"/><line style="stroke:#181818;stroke-width:1;" x1="54.5" x2="54.5" y1="148.81" y2="156.81"/><ellipse cx="54.5" cy="142.81" fill="none" rx="4" ry="4" style="stroke:#181818;stroke-width:1;"/></g><!--link GM to PH--><g id="link_GM_PH"><path codeLine="42" d="M54.5,266.37 C54.5,285.32 54.5,280.88 54.5,299.8 " fill="none" id="GM-PH" style="stroke:#181818;stroke-width:1;"/><line style="stroke:#181818;stroke-width:1;" x1="50.5" x2="58.5" y1="262.37" y2="262.37"/><line style="stroke:#181818;stroke-width:1;" x1="50.5" x2="58.5" y1="265.37" y2="265.37"/><line style="stroke:#181818;stroke-width:1;" x1="54.5" x2="54.5" y1="266.37" y2="258.37"/><line style="stroke:#181818;stroke-width:1;" x1="54.5" x2="60.5" y1="309.8" y2="317.8"/><line style="stroke:#181818;stroke-width:1;" x1="54.5" x2="48.5" y1="309.8" y2="317.8"/><line style="stroke:#181818;stroke-width:1;" x1="54.5" x2="54.5" y1="309.8" y2="317.8"/><ellipse cx="54.5" cy="303.8" fill="none" rx="4" ry="4" style="stroke:#181818;stroke-width:1;"/></g><!--SRC=[TP1HQy8m58NV-oikxaqeR6mo7qHmXIgCITds7c9prqRRt9Aa5AVxxukfdHNNl2Gtvzpp9TVifAguvYLiUBhBDDLAH5IGXhlOhy3yEGH-yRgmCIcxvYN2fopHm1eRUAUIg_-T7_8RuU6-9wAoqkvVI0lKPzHZD7cQJcyzDq-QnC_n8WXQ6KQLfYscbfrCrGYuWIKS0e0nI06pMV8wdxig3FrLIhKsoBmIjufott1R5-FBdqkyZsKbbXlKRVhRS7njK5-5Zw7jxzzLPAILfDnnIrAXODpsYPtEScaiwRsd9gjXQlkuAmOLWlKu2fj-cUPSPSFSL4kBMl8M70s1BtuIfmbsRUmyqGPbbdl24ex7CAI3crtWndSkajKl]--></g></svg>