<svg xmlns="http://www.w3.org/2000/svg" xmlns:xlink="http://www.w3.org/1999/xlink" contentStyleType="text/css" height="449px" preserveAspectRatio="none" style="width:458px;height:449px;background:#FFFFFF;" version="1.1" viewBox="0 0 458 449" width="458px" zoomAndPan="magnify"><defs/><g><!--class C--><g id="elem_C"><rect codeLine="7" fill="#F1F1F1" height="89.9961" id="C" rx="2.5" ry="2.5" style="stroke:#181818;stroke-width:0.5;" width="57.0615" x="227.5" y="7"/><ellipse cx="241.8333" cy="21" fill="#ADD1B2" rx="9" ry="9" style="stroke:#181818;stroke-width:1;"/><path d="M241.3021,21.5313 L241.3021,23 L243.8646,23 L243.8646,22.4531 Q243.8646,22.0938 244.0052,21.9375 Q244.1458,21.7813 244.3646,21.7813 Q244.5833,21.7813 244.7239,21.9375 Q244.8646,22.0938 244.8646,22.4531 L244.8646,24 L240.1458,24 Q239.7864,24 239.6302,23.8594 Q239.4739,23.7188 239.4739,23.5 Q239.4739,23.2813 239.6302,23.1406 Q239.7864,23 240.1458,23 L240.3021,23 L240.3021,19.0781 L240.1458,19.0781 Q239.7864,19.0781 239.6302,18.9375 Q239.4739,18.7969 239.4739,18.5781 Q239.4739,18.3594 239.6302,18.2188 Q239.7864,18.0781 240.1458,18.0781 L244.6458,18.0781 L244.6458,19.6094 Q244.6458,19.9688 244.5052,20.125 Q244.3646,20.2656 244.1458,20.2656 Q243.9114,20.2656 243.7708,20.125 Q243.6458,19.9688 243.6458,19.6094 L243.6458,19.0781 L241.3021,19.0781 L241.3021,20.5313 L242.1927,20.5313 Q242.1927,20.1406 242.2552,20.0313 Q242.4114,19.7813 242.6927,19.7813 Q242.9114,19.7813 243.0521,19.9375 Q243.1927,20.0938 243.1927,20.4531 L243.1927,21.6094 Q243.1927,21.9375 243.1146,22.0469 Q242.9583,22.2813 242.6927,22.2813 Q242.4114,22.2813 242.2552,22.0313 Q242.1927,21.9219 242.1927,21.5313 L241.3021,21.5313 Z " fill="#000000"/><text fill="#000000" font-family="Times New Roman" font-size="10" lengthAdjust="spacing" textLength="26.0986" x="254.1296" y="24.5864">course</text><line style="stroke:#181818;stroke-width:0.5;" x1="228.5" x2="283.5615" y1="35" y2="35"/><ellipse cx="238.5" cy="46.2495" fill="#000000" rx="3" ry="3" style="stroke:#000000;stroke-width:1;"/><text fill="#000000" font-family="Times New Roman" font-size="10" lengthAdjust="spacing" textLength="33.0615" x="245.5" y="48.3359">id &#171;PK&#187;</text><line style="stroke:#181818;stroke-width:1;" x1="228.5" x2="283.5615" y1="54.499" y2="54.499"/><text fill="#000000" font-family="Times New Roman" font-size="10" lengthAdjust="spacing" textLength="21.6553" x="233.5" y="67.835">name</text><text fill="#000000" font-family="Times New Roman" font-size="10" lengthAdjust="spacing" textLength="18.877" x="233.5" y="79.334">code</text><text fill="#000000" font-family="Times New Roman" font-size="10" lengthAdjust="spacing" textLength="34.9854" x="233.5" y="90.833">semester</text></g><!--class CO--><g id="elem_CO"><rect codeLine="15" fill="#F1F1F1" height="112.9941" id="CO" rx="2.5" ry="2.5" style="stroke:#181818;stroke-width:0.5;" width="95.749" x="208" y="157"/><ellipse cx="221" cy="171" fill="#ADD1B2" rx="9" ry="9" style="stroke:#181818;stroke-width:1;"/><path d="M220.4688,171.5313 L220.4688,173 L223.0313,173 L223.0313,172.4531 Q223.0313,172.0938 223.1719,171.9375 Q223.3125,171.7813 223.5313,171.7813 Q223.75,171.7813 223.8906,171.9375 Q224.0313,172.0938 224.0313,172.4531 L224.0313,174 L219.3125,174 Q218.9531,174 218.7969,173.8594 Q218.6406,173.7188 218.6406,173.5 Q218.6406,173.2813 218.7969,173.1406 Q218.9531,173 219.3125,173 L219.4688,173 L219.4688,169.0781 L219.3125,169.0781 Q218.9531,169.0781 218.7969,168.9375 Q218.6406,168.7969 218.6406,168.5781 Q218.6406,168.3594 218.7969,168.2188 Q218.9531,168.0781 219.3125,168.0781 L223.8125,168.0781 L223.8125,169.6094 Q223.8125,169.9688 223.6719,170.125 Q223.5313,170.2656 223.3125,170.2656 Q223.0781,170.2656 222.9375,170.125 Q222.8125,169.9688 222.8125,169.6094 L222.8125,169.0781 L220.4688,169.0781 L220.4688,170.5313 L221.3594,170.5313 Q221.3594,170.1406 221.4219,170.0313 Q221.5781,169.7813 221.8594,169.7813 Q222.0781,169.7813 222.2188,169.9375 Q222.3594,170.0938 222.3594,170.4531 L222.3594,171.6094 Q222.3594,171.9375 222.2813,172.0469 Q222.125,172.2813 221.8594,172.2813 Q221.5781,172.2813 221.4219,172.0313 Q221.3594,171.9219 221.3594,171.5313 L220.4688,171.5313 Z " fill="#000000"/><text fill="#000000" font-family="Times New Roman" font-size="10" lengthAdjust="spacing" textLength="67.749" x="233" y="174.5864">course_objective</text><line style="stroke:#181818;stroke-width:0.5;" x1="209" x2="302.749" y1="185" y2="185"/><ellipse cx="219" cy="196.2495" fill="#000000" rx="3" ry="3" style="stroke:#000000;stroke-width:1;"/><text fill="#000000" font-family="Times New Roman" font-size="10" lengthAdjust="spacing" textLength="33.0615" x="226" y="198.3359">id &#171;PK&#187;</text><line style="stroke:#181818;stroke-width:1;" x1="209" x2="302.749" y1="204.499" y2="204.499"/><ellipse cx="219" cy="215.7485" fill="#000000" rx="3" ry="3" style="stroke:#000000;stroke-width:1;"/><text fill="#000000" font-family="Times New Roman" font-size="10" lengthAdjust="spacing" textLength="64.1602" x="226" y="217.835">course_id &#171;FK&#187;</text><text fill="#000000" font-family="Times New Roman" font-size="10" lengthAdjust="spacing" textLength="51.6504" x="226" y="229.334">objective_no</text><text fill="#000000" font-family="Times New Roman" font-size="10" lengthAdjust="spacing" textLength="15.5518" x="226" y="240.833">title</text><text fill="#000000" font-family="Times New Roman" font-size="10" lengthAdjust="spacing" textLength="41.665" x="226" y="252.332">dimension</text><text fill="#000000" font-family="Times New Roman" font-size="10" lengthAdjust="spacing" textLength="27.2168" x="226" y="263.8311">weight</text></g><!--class GR--><g id="elem_GR"><rect codeLine="25" fill="#F1F1F1" height="89.9961" id="GR" rx="2.5" ry="2.5" style="stroke:#181818;stroke-width:0.5;" width="124.0742" x="37" y="168.5"/><ellipse cx="50" cy="182.5" fill="#ADD1B2" rx="9" ry="9" style="stroke:#181818;stroke-width:1;"/><path d="M49.4688,183.0313 L49.4688,184.5 L52.0313,184.5 L52.0313,183.9531 Q52.0313,183.5938 52.1719,183.4375 Q52.3125,183.2813 52.5313,183.2813 Q52.75,183.2813 52.8906,183.4375 Q53.0313,183.5938 53.0313,183.9531 L53.0313,185.5 L48.3125,185.5 Q47.9531,185.5 47.7969,185.3594 Q47.6406,185.2188 47.6406,185 Q47.6406,184.7813 47.7969,184.6406 Q47.9531,184.5 48.3125,184.5 L48.4688,184.5 L48.4688,180.5781 L48.3125,180.5781 Q47.9531,180.5781 47.7969,180.4375 Q47.6406,180.2969 47.6406,180.0781 Q47.6406,179.8594 47.7969,179.7188 Q47.9531,179.5781 48.3125,179.5781 L52.8125,179.5781 L52.8125,181.1094 Q52.8125,181.4688 52.6719,181.625 Q52.5313,181.7656 52.3125,181.7656 Q52.0781,181.7656 51.9375,181.625 Q51.8125,181.4688 51.8125,181.1094 L51.8125,180.5781 L49.4688,180.5781 L49.4688,182.0313 L50.3594,182.0313 Q50.3594,181.6406 50.4219,181.5313 Q50.5781,181.2813 50.8594,181.2813 Q51.0781,181.2813 51.2188,181.4375 Q51.3594,181.5938 51.3594,181.9531 L51.3594,183.1094 Q51.3594,183.4375 51.2813,183.5469 Q51.125,183.7813 50.8594,183.7813 Q50.5781,183.7813 50.4219,183.5313 Q50.3594,183.4219 50.3594,183.0313 L49.4688,183.0313 Z " fill="#000000"/><text fill="#000000" font-family="Times New Roman" font-size="10" lengthAdjust="spacing" textLength="96.0742" x="62" y="186.0864">graduation_requirement</text><line style="stroke:#181818;stroke-width:0.5;" x1="38" x2="160.0742" y1="196.5" y2="196.5"/><ellipse cx="48" cy="207.7495" fill="#000000" rx="3" ry="3" style="stroke:#000000;stroke-width:1;"/><text fill="#000000" font-family="Times New Roman" font-size="10" lengthAdjust="spacing" textLength="33.0615" x="55" y="209.8359">id &#171;PK&#187;</text><line style="stroke:#181818;stroke-width:1;" x1="38" x2="160.0742" y1="215.999" y2="215.999"/><text fill="#000000" font-family="Times New Roman" font-size="10" lengthAdjust="spacing" textLength="18.877" x="43" y="229.335">code</text><text fill="#000000" font-family="Times New Roman" font-size="10" lengthAdjust="spacing" textLength="15.5518" x="43" y="240.834">title</text><text fill="#000000" font-family="Times New Roman" font-size="10" lengthAdjust="spacing" textLength="44.4336" x="43" y="252.333">description</text></g><!--class GI--><g id="elem_GI"><rect codeLine="33" fill="#F1F1F1" height="101.4951" id="GI" rx="2.5" ry="2.5" style="stroke:#181818;stroke-width:0.5;" width="111.3057" x="200.5" y="336"/><ellipse cx="213.5" cy="350" fill="#ADD1B2" rx="9" ry="9" style="stroke:#181818;stroke-width:1;"/><path d="M212.9688,350.5313 L212.9688,352 L215.5313,352 L215.5313,351.4531 Q215.5313,351.0938 215.6719,350.9375 Q215.8125,350.7813 216.0313,350.7813 Q216.25,350.7813 216.3906,350.9375 Q216.5313,351.0938 216.5313,351.4531 L216.5313,353 L211.8125,353 Q211.4531,353 211.2969,352.8594 Q211.1406,352.7188 211.1406,352.5 Q211.1406,352.2813 211.2969,352.1406 Q211.4531,352 211.8125,352 L211.9688,352 L211.9688,348.0781 L211.8125,348.0781 Q211.4531,348.0781 211.2969,347.9375 Q211.1406,347.7969 211.1406,347.5781 Q211.1406,347.3594 211.2969,347.2188 Q211.4531,347.0781 211.8125,347.0781 L216.3125,347.0781 L216.3125,348.6094 Q216.3125,348.9688 216.1719,349.125 Q216.0313,349.2656 215.8125,349.2656 Q215.5781,349.2656 215.4375,349.125 Q215.3125,348.9688 215.3125,348.6094 L215.3125,348.0781 L212.9688,348.0781 L212.9688,349.5313 L213.8594,349.5313 Q213.8594,349.1406 213.9219,349.0313 Q214.0781,348.7813 214.3594,348.7813 Q214.5781,348.7813 214.7188,348.9375 Q214.8594,349.0938 214.8594,349.4531 L214.8594,350.6094 Q214.8594,350.9375 214.7813,351.0469 Q214.625,351.2813 214.3594,351.2813 Q214.0781,351.2813 213.9219,351.0313 Q213.8594,350.9219 213.8594,350.5313 L212.9688,350.5313 Z " fill="#000000"/><text fill="#000000" font-family="Times New Roman" font-size="10" lengthAdjust="spacing" textLength="83.3057" x="225.5" y="353.5864">graduation_indicator</text><line style="stroke:#181818;stroke-width:0.5;" x1="201.5" x2="310.8057" y1="364" y2="364"/><ellipse cx="211.5" cy="375.2495" fill="#000000" rx="3" ry="3" style="stroke:#000000;stroke-width:1;"/><text fill="#000000" font-family="Times New Roman" font-size="10" lengthAdjust="spacing" textLength="33.0615" x="218.5" y="377.3359">id &#171;PK&#187;</text><line style="stroke:#181818;stroke-width:1;" x1="201.5" x2="310.8057" y1="383.499" y2="383.499"/><ellipse cx="211.5" cy="394.7485" fill="#000000" rx="3" ry="3" style="stroke:#000000;stroke-width:1;"/><text fill="#000000" font-family="Times New Roman" font-size="10" lengthAdjust="spacing" textLength="46.3916" x="218.5" y="396.835">gr_id &#171;FK&#187;</text><ellipse cx="211.5" cy="406.2476" fill="#000000" rx="3" ry="3" style="stroke:#000000;stroke-width:1;"/><text fill="#000000" font-family="Times New Roman" font-size="10" lengthAdjust="spacing" textLength="74.7119" x="218.5" y="408.334">objective_id &#171;FK&#187;</text><text fill="#000000" font-family="Times New Roman" font-size="10" lengthAdjust="spacing" textLength="18.877" x="218.5" y="419.833">code</text><text fill="#000000" font-family="Times New Roman" font-size="10" lengthAdjust="spacing" textLength="44.4336" x="218.5" y="431.332">description</text></g><!--class EM--><g id="elem_EM"><rect codeLine="42" fill="#F1F1F1" height="112.9941" id="EM" rx="2.5" ry="2.5" style="stroke:#181818;stroke-width:0.5;" width="104.6455" x="346.5" y="330"/><ellipse cx="359.5" cy="344" fill="#ADD1B2" rx="9" ry="9" style="stroke:#181818;stroke-width:1;"/><path d="M358.9688,344.5313 L358.9688,346 L361.5313,346 L361.5313,345.4531 Q361.5313,345.0938 361.6719,344.9375 Q361.8125,344.7813 362.0313,344.7813 Q362.25,344.7813 362.3906,344.9375 Q362.5313,345.0938 362.5313,345.4531 L362.5313,347 L357.8125,347 Q357.4531,347 357.2969,346.8594 Q357.1406,346.7188 357.1406,346.5 Q357.1406,346.2813 357.2969,346.1406 Q357.4531,346 357.8125,346 L357.9688,346 L357.9688,342.0781 L357.8125,342.0781 Q357.4531,342.0781 357.2969,341.9375 Q357.1406,341.7969 357.1406,341.5781 Q357.1406,341.3594 357.2969,341.2188 Q357.4531,341.0781 357.8125,341.0781 L362.3125,341.0781 L362.3125,342.6094 Q362.3125,342.9688 362.1719,343.125 Q362.0313,343.2656 361.8125,343.2656 Q361.5781,343.2656 361.4375,343.125 Q361.3125,342.9688 361.3125,342.6094 L361.3125,342.0781 L358.9688,342.0781 L358.9688,343.5313 L359.8594,343.5313 Q359.8594,343.1406 359.9219,343.0313 Q360.0781,342.7813 360.3594,342.7813 Q360.5781,342.7813 360.7188,342.9375 Q360.8594,343.0938 360.8594,343.4531 L360.8594,344.6094 Q360.8594,344.9375 360.7813,345.0469 Q360.625,345.2813 360.3594,345.2813 Q360.0781,345.2813 359.9219,345.0313 Q359.8594,344.9219 359.8594,344.5313 L358.9688,344.5313 Z " fill="#000000"/><text fill="#000000" font-family="Times New Roman" font-size="10" lengthAdjust="spacing" textLength="76.6455" x="371.5" y="347.5864">evaluation_method</text><line style="stroke:#181818;stroke-width:0.5;" x1="347.5" x2="450.1455" y1="358" y2="358"/><ellipse cx="357.5" cy="369.2495" fill="#000000" rx="3" ry="3" style="stroke:#000000;stroke-width:1;"/><text fill="#000000" font-family="Times New Roman" font-size="10" lengthAdjust="spacing" textLength="33.0615" x="364.5" y="371.3359">id &#171;PK&#187;</text><line style="stroke:#181818;stroke-width:1;" x1="347.5" x2="450.1455" y1="377.499" y2="377.499"/><ellipse cx="357.5" cy="388.7485" fill="#000000" rx="3" ry="3" style="stroke:#000000;stroke-width:1;"/><text fill="#000000" font-family="Times New Roman" font-size="10" lengthAdjust="spacing" textLength="74.7119" x="364.5" y="390.835">objective_id &#171;FK&#187;</text><text fill="#000000" font-family="Times New Roman" font-size="10" lengthAdjust="spacing" textLength="21.6553" x="364.5" y="402.334">name</text><text fill="#000000" font-family="Times New Roman" font-size="10" lengthAdjust="spacing" textLength="47.7539" x="364.5" y="413.833">data_source</text><text fill="#000000" font-family="Times New Roman" font-size="10" lengthAdjust="spacing" textLength="27.2168" x="364.5" y="425.332">weight</text><text fill="#000000" font-family="Times New Roman" font-size="10" lengthAdjust="spacing" textLength="43.3154" x="364.5" y="436.8311">max_score</text></g><!--class ORM--><g id="elem_ORM"><rect codeLine="52" fill="#F1F1F1" height="89.9961" id="ORM" rx="2.5" ry="2.5" style="stroke:#181818;stroke-width:0.5;" width="157.9561" x="7" y="341.5"/><ellipse cx="20" cy="355.5" fill="#ADD1B2" rx="9" ry="9" style="stroke:#181818;stroke-width:1;"/><path d="M19.4688,356.0313 L19.4688,357.5 L22.0313,357.5 L22.0313,356.9531 Q22.0313,356.5938 22.1719,356.4375 Q22.3125,356.2813 22.5313,356.2813 Q22.75,356.2813 22.8906,356.4375 Q23.0313,356.5938 23.0313,356.9531 L23.0313,358.5 L18.3125,358.5 Q17.9531,358.5 17.7969,358.3594 Q17.6406,358.2188 17.6406,358 Q17.6406,357.7813 17.7969,357.6406 Q17.9531,357.5 18.3125,357.5 L18.4688,357.5 L18.4688,353.5781 L18.3125,353.5781 Q17.9531,353.5781 17.7969,353.4375 Q17.6406,353.2969 17.6406,353.0781 Q17.6406,352.8594 17.7969,352.7188 Q17.9531,352.5781 18.3125,352.5781 L22.8125,352.5781 L22.8125,354.1094 Q22.8125,354.4688 22.6719,354.625 Q22.5313,354.7656 22.3125,354.7656 Q22.0781,354.7656 21.9375,354.625 Q21.8125,354.4688 21.8125,354.1094 L21.8125,353.5781 L19.4688,353.5781 L19.4688,355.0313 L20.3594,355.0313 Q20.3594,354.6406 20.4219,354.5313 Q20.5781,354.2813 20.8594,354.2813 Q21.0781,354.2813 21.2188,354.4375 Q21.3594,354.5938 21.3594,354.9531 L21.3594,356.1094 Q21.3594,356.4375 21.2813,356.5469 Q21.125,356.7813 20.8594,356.7813 Q20.5781,356.7813 20.4219,356.5313 Q20.3594,356.4219 20.3594,356.0313 L19.4688,356.0313 Z " fill="#000000"/><text fill="#000000" font-family="Times New Roman" font-size="10" lengthAdjust="spacing" textLength="129.9561" x="32" y="359.0864">objective_requirement_mapping</text><line style="stroke:#181818;stroke-width:0.5;" x1="8" x2="163.9561" y1="369.5" y2="369.5"/><ellipse cx="18" cy="380.7495" fill="#000000" rx="3" ry="3" style="stroke:#000000;stroke-width:1;"/><text fill="#000000" font-family="Times New Roman" font-size="10" lengthAdjust="spacing" textLength="33.0615" x="25" y="382.8359">id &#171;PK&#187;</text><line style="stroke:#181818;stroke-width:1;" x1="8" x2="163.9561" y1="388.999" y2="388.999"/><ellipse cx="18" cy="400.2485" fill="#000000" rx="3" ry="3" style="stroke:#000000;stroke-width:1;"/><text fill="#000000" font-family="Times New Roman" font-size="10" lengthAdjust="spacing" textLength="74.7119" x="25" y="402.335">objective_id &#171;FK&#187;</text><ellipse cx="18" cy="411.7476" fill="#000000" rx="3" ry="3" style="stroke:#000000;stroke-width:1;"/><text fill="#000000" font-family="Times New Roman" font-size="10" lengthAdjust="spacing" textLength="86.3721" x="25" y="413.834">requirement_id &#171;FK&#187;</text><text fill="#000000" font-family="Times New Roman" font-size="10" lengthAdjust="spacing" textLength="54.4336" x="25" y="425.333">support_level</text></g><!--link C to CO--><g id="link_C_CO"><path codeLine="60" d="M256,105.01 C256,123.54 256,119.32 256,138.94 " fill="none" id="C-CO" style="stroke:#181818;stroke-width:1;"/><line style="stroke:#181818;stroke-width:1;" x1="252" x2="260" y1="101.01" y2="101.01"/><line style="stroke:#181818;stroke-width:1;" x1="252" x2="260" y1="104.01" y2="104.01"/><line style="stroke:#181818;stroke-width:1;" x1="256" x2="256" y1="105.01" y2="97.01"/><line style="stroke:#181818;stroke-width:1;" x1="256" x2="262" y1="148.94" y2="156.94"/><line style="stroke:#181818;stroke-width:1;" x1="256" x2="250" y1="148.94" y2="156.94"/><line style="stroke:#181818;stroke-width:1;" x1="256" x2="256" y1="148.94" y2="156.94"/><ellipse cx="256" cy="142.94" fill="none" rx="4" ry="4" style="stroke:#181818;stroke-width:1;"/></g><!--link CO to GI--><g id="link_CO_GI"><path codeLine="61" d="M256,278.02 C256,299.18 256,297.15 256,317.74 " fill="none" id="CO-GI" style="stroke:#181818;stroke-width:1;"/><line style="stroke:#181818;stroke-width:1;" x1="252" x2="260" y1="274.02" y2="274.02"/><line style="stroke:#181818;stroke-width:1;" x1="252" x2="260" y1="277.02" y2="277.02"/><line style="stroke:#181818;stroke-width:1;" x1="256" x2="256" y1="278.02" y2="270.02"/><line style="stroke:#181818;stroke-width:1;" x1="256" x2="262" y1="327.74" y2="335.74"/><line style="stroke:#181818;stroke-width:1;" x1="256" x2="250" y1="327.74" y2="335.74"/><line style="stroke:#181818;stroke-width:1;" x1="256" x2="256" y1="327.74" y2="335.74"/><ellipse cx="256" cy="321.74" fill="none" rx="4" ry="4" style="stroke:#181818;stroke-width:1;"/></g><!--link GR to GI--><g id="link_GR_GI"><path codeLine="62" d="M144.8413,264.4322 C166.5613,288.0822 175.8186,298.1589 198.2686,322.6189 " fill="none" id="GR-GI" style="stroke:#181818;stroke-width:1;"/><line style="stroke:#181818;stroke-width:1;" x1="139.1896" x2="145.0817" y1="264.1917" y2="258.7804"/><line style="stroke:#181818;stroke-width:1;" x1="141.2188" x2="147.111" y1="266.4013" y2="260.99"/><line style="stroke:#181818;stroke-width:1;" x1="144.8413" x2="139.43" y1="264.4322" y2="258.54"/><line style="stroke:#181818;stroke-width:1;" x1="205.0305" x2="214.8604" y1="329.9862" y2="331.8229"/><line style="stroke:#181818;stroke-width:1;" x1="205.0305" x2="206.0196" y1="329.9862" y2="339.9371"/><line style="stroke:#181818;stroke-width:1;" x1="205.0305" x2="210.44" y1="329.9862" y2="335.88"/><ellipse cx="200.9734" cy="325.5658" fill="none" rx="4" ry="4" style="stroke:#181818;stroke-width:1;"/></g><!--link CO to EM--><g id="link_CO_EM"><path codeLine="63" d="M307.5612,276.1576 C323.6212,295.3676 324.9441,296.9409 341.0141,316.1609 " fill="none" id="CO-EM" style="stroke:#181818;stroke-width:1;"/><line style="stroke:#181818;stroke-width:1;" x1="301.9268" x2="308.0644" y1="275.6544" y2="270.5232"/><line style="stroke:#181818;stroke-width:1;" x1="303.851" x2="309.9886" y1="277.956" y2="272.8248"/><line style="stroke:#181818;stroke-width:1;" x1="307.5612" x2="302.43" y1="276.1576" y2="270.02"/><line style="stroke:#181818;stroke-width:1;" x1="347.4285" x2="357.163" y1="323.8326" y2="326.1214"/><line style="stroke:#181818;stroke-width:1;" x1="347.4285" x2="347.957" y1="323.8326" y2="333.8186"/><line style="stroke:#181818;stroke-width:1;" x1="347.4285" x2="352.56" y1="323.8326" y2="329.97"/><ellipse cx="343.5798" cy="319.2296" fill="none" rx="4" ry="4" style="stroke:#181818;stroke-width:1;"/></g><!--link CO to ORM--><g id="link_CO_ORM"><path codeLine="64" d="M202.1005,268.7141 C177.6605,293.3041 166.5332,304.5075 142.7132,328.4575 " fill="none" id="CO-ORM" style="stroke:#181818;stroke-width:1;"/><line style="stroke:#181818;stroke-width:1;" x1="202.0832" x2="207.7573" y1="263.0573" y2="268.6968"/><line style="stroke:#181818;stroke-width:1;" x1="199.9684" x2="205.6425" y1="265.1851" y2="270.8246"/><line style="stroke:#181818;stroke-width:1;" x1="202.1005" x2="207.74" y1="268.7141" y2="263.04"/><line style="stroke:#181818;stroke-width:1;" x1="135.6614" x2="134.2742" y1="335.5478" y2="345.4511"/><line style="stroke:#181818;stroke-width:1;" x1="135.6614" x2="125.7658" y1="335.5478" y2="336.9889"/><line style="stroke:#181818;stroke-width:1;" x1="135.6614" x2="130.02" y1="335.5478" y2="341.22"/><ellipse cx="139.8925" cy="331.2936" fill="none" rx="4" ry="4" style="stroke:#181818;stroke-width:1;"/></g><!--link GR to ORM--><g id="link_GR_ORM"><path codeLine="65" d="M95.0446,266.5171 C93.1146,291.9471 92.6506,297.9115 90.7206,323.3715 " fill="none" id="GR-ORM" style="stroke:#181818;stroke-width:1;"/><line style="stroke:#181818;stroke-width:1;" x1="91.3588" x2="99.3358" y1="262.2258" y2="262.8312"/><line style="stroke:#181818;stroke-width:1;" x1="91.1317" x2="99.1088" y1="265.2172" y2="265.8226"/><line style="stroke:#181818;stroke-width:1;" x1="95.0446" x2="95.65" y1="266.5171" y2="258.54"/><line style="stroke:#181818;stroke-width:1;" x1="89.9647" x2="95.3428" y1="333.3429" y2="341.7735"/><line style="stroke:#181818;stroke-width:1;" x1="89.9647" x2="83.3772" y1="333.3429" y2="340.8665"/><line style="stroke:#181818;stroke-width:1;" x1="89.9647" x2="89.36" y1="333.3429" y2="341.32"/><ellipse cx="90.4182" cy="327.3601" fill="none" rx="4" ry="4" style="stroke:#181818;stroke-width:1;"/></g><!--SRC=[bLBHJi8m57tVLzpWsv8b6YNoG4nqOOGOmA3lIrclexAri-r01V_Tkx6mAkp1FQmxExVdd7jRinQoO9hbi6J9EjMgb3nKcT9m4TMFPuuL75zPcTb8IJjZESABoD703BUmK3cJvokVnHV2rQL3ehJ2VZuepL4tLjTX_sOmEAqvYTIFRgDxpplGq4jKgGtsW1a8OUS1-20u38TFZtTtX8A0NfAYqf8eNYq6ARD5xNt_LOdLyWqJApQDthnBq8TcGyr41-QuEPQA80bdbHsd4KaZbAJlBOfqPLtZL3DUCajqhF6z59h2ILlRZnTTzaqZHmSqYHP59T8XBIGN2RDA7uGdtNsb-bTFljEL-xz9qE6C6vOrpZdQbUArxMZQRNlUfJatpYoB3GqymNQ603dxY4sYDBhMhP0ppZXdHI5aMiUOB_wTmmTNp6LCMHHAspZ33MPLZX3s-o1GExey7jsV1emd7frc2rfcD7K0HNFg2Fq0]--></g></svg>