<svg xmlns="http://www.w3.org/2000/svg" xmlns:xlink="http://www.w3.org/1999/xlink" contentStyleType="text/css" height="438px" preserveAspectRatio="none" style="width:634px;height:438px;background:#FFFFFF;" version="1.1" viewBox="0 0 634 438" width="634px" zoomAndPan="magnify"><defs/><g><!--class G--><g id="elem_G"><rect codeLine="7" fill="#F1F1F1" height="66.998" id="G" rx="2.5" ry="2.5" style="stroke:#181818;stroke-width:0.5;" width="84.0938" x="267.5" y="7"/><ellipse cx="280.5" cy="21" fill="#ADD1B2" rx="9" ry="9" style="stroke:#181818;stroke-width:1;"/><path d="M279.9688,21.5313 L279.9688,23 L282.5313,23 L282.5313,22.4531 Q282.5313,22.0938 282.6719,21.9375 Q282.8125,21.7813 283.0313,21.7813 Q283.25,21.7813 283.3906,21.9375 Q283.5313,22.0938 283.5313,22.4531 L283.5313,24 L278.8125,24 Q278.4531,24 278.2969,23.8594 Q278.1406,23.7188 278.1406,23.5 Q278.1406,23.2813 278.2969,23.1406 Q278.4531,23 278.8125,23 L278.9688,23 L278.9688,19.0781 L278.8125,19.0781 Q278.4531,19.0781 278.2969,18.9375 Q278.1406,18.7969 278.1406,18.5781 Q278.1406,18.3594 278.2969,18.2188 Q278.4531,18.0781 278.8125,18.0781 L283.3125,18.0781 L283.3125,19.6094 Q283.3125,19.9688 283.1719,20.125 Q283.0313,20.2656 282.8125,20.2656 Q282.5781,20.2656 282.4375,20.125 Q282.3125,19.9688 282.3125,19.6094 L282.3125,19.0781 L279.9688,19.0781 L279.9688,20.5313 L280.8594,20.5313 Q280.8594,20.1406 280.9219,20.0313 Q281.0781,19.7813 281.3594,19.7813 Q281.5781,19.7813 281.7188,19.9375 Q281.8594,20.0938 281.8594,20.4531 L281.8594,21.6094 Q281.8594,21.9375 281.7813,22.0469 Q281.625,22.2813 281.3594,22.2813 Q281.0781,22.2813 280.9219,22.0313 Q280.8594,21.9219 280.8594,21.5313 L279.9688,21.5313 Z " fill="#000000"/><text fill="#000000" font-family="Times New Roman" font-size="10" lengthAdjust="spacing" textLength="56.0938" x="292.5" y="24.5864">project_group</text><line style="stroke:#181818;stroke-width:0.5;" x1="268.5" x2="350.5938" y1="35" y2="35"/><ellipse cx="278.5" cy="46.2495" fill="#000000" rx="3" ry="3" style="stroke:#000000;stroke-width:1;"/><text fill="#000000" font-family="Times New Roman" font-size="10" lengthAdjust="spacing" textLength="33.0615" x="285.5" y="48.3359">id &#171;PK&#187;</text><line style="stroke:#181818;stroke-width:1;" x1="268.5" x2="350.5938" y1="54.499" y2="54.499"/><text fill="#000000" font-family="Times New Roman" font-size="10" lengthAdjust="spacing" textLength="21.6553" x="273.5" y="67.835">name</text></g><!--class MS--><g id="elem_MS"><rect codeLine="13" fill="#F1F1F1" height="112.9941" id="MS" rx="2.5" ry="2.5" style="stroke:#181818;stroke-width:0.5;" width="99.6455" x="7.5" y="134"/><ellipse cx="20.5" cy="148" fill="#ADD1B2" rx="9" ry="9" style="stroke:#181818;stroke-width:1;"/><path d="M19.9688,148.5313 L19.9688,150 L22.5313,150 L22.5313,149.4531 Q22.5313,149.0938 22.6719,148.9375 Q22.8125,148.7813 23.0313,148.7813 Q23.25,148.7813 23.3906,148.9375 Q23.5313,149.0938 23.5313,149.4531 L23.5313,151 L18.8125,151 Q18.4531,151 18.2969,150.8594 Q18.1406,150.7188 18.1406,150.5 Q18.1406,150.2813 18.2969,150.1406 Q18.4531,150 18.8125,150 L18.9688,150 L18.9688,146.0781 L18.8125,146.0781 Q18.4531,146.0781 18.2969,145.9375 Q18.1406,145.7969 18.1406,145.5781 Q18.1406,145.3594 18.2969,145.2188 Q18.4531,145.0781 18.8125,145.0781 L23.3125,145.0781 L23.3125,146.6094 Q23.3125,146.9688 23.1719,147.125 Q23.0313,147.2656 22.8125,147.2656 Q22.5781,147.2656 22.4375,147.125 Q22.3125,146.9688 22.3125,146.6094 L22.3125,146.0781 L19.9688,146.0781 L19.9688,147.5313 L20.8594,147.5313 Q20.8594,147.1406 20.9219,147.0313 Q21.0781,146.7813 21.3594,146.7813 Q21.5781,146.7813 21.7188,146.9375 Q21.8594,147.0938 21.8594,147.4531 L21.8594,148.6094 Q21.8594,148.9375 21.7813,149.0469 Q21.625,149.2813 21.3594,149.2813 Q21.0781,149.2813 20.9219,149.0313 Q20.8594,148.9219 20.8594,148.5313 L19.9688,148.5313 Z " fill="#000000"/><text fill="#000000" font-family="Times New Roman" font-size="10" lengthAdjust="spacing" textLength="71.6455" x="32.5" y="151.5864">project_milestone</text><line style="stroke:#181818;stroke-width:0.5;" x1="8.5" x2="106.1455" y1="162" y2="162"/><ellipse cx="18.5" cy="173.2495" fill="#000000" rx="3" ry="3" style="stroke:#000000;stroke-width:1;"/><text fill="#000000" font-family="Times New Roman" font-size="10" lengthAdjust="spacing" textLength="33.0615" x="25.5" y="175.3359">id &#171;PK&#187;</text><line style="stroke:#181818;stroke-width:1;" x1="8.5" x2="106.1455" y1="181.499" y2="181.499"/><ellipse cx="18.5" cy="192.7485" fill="#000000" rx="3" ry="3" style="stroke:#000000;stroke-width:1;"/><text fill="#000000" font-family="Times New Roman" font-size="10" lengthAdjust="spacing" textLength="61.3916" x="25.5" y="194.835">group_id &#171;FK&#187;</text><text fill="#000000" font-family="Times New Roman" font-size="10" lengthAdjust="spacing" textLength="21.6553" x="25.5" y="206.334">name</text><text fill="#000000" font-family="Times New Roman" font-size="10" lengthAdjust="spacing" textLength="44.9854" x="25.5" y="217.833">cdio_phase</text><text fill="#000000" font-family="Times New Roman" font-size="10" lengthAdjust="spacing" textLength="33.8721" x="25.5" y="229.332">deadline</text><text fill="#000000" font-family="Times New Roman" font-size="10" lengthAdjust="spacing" textLength="22.7783" x="25.5" y="240.8311">status</text></g><!--class PT--><g id="elem_PT"><rect codeLine="23" fill="#F1F1F1" height="112.9941" id="PT" rx="2.5" ry="2.5" style="stroke:#181818;stroke-width:0.5;" width="100.9434" x="7" y="312.5"/><ellipse cx="30.8321" cy="326.5" fill="#ADD1B2" rx="9" ry="9" style="stroke:#181818;stroke-width:1;"/><path d="M30.3008,327.0313 L30.3008,328.5 L32.8633,328.5 L32.8633,327.9531 Q32.8633,327.5938 33.004,327.4375 Q33.1446,327.2813 33.3633,327.2813 Q33.5821,327.2813 33.7227,327.4375 Q33.8633,327.5938 33.8633,327.9531 L33.8633,329.5 L29.1446,329.5 Q28.7852,329.5 28.629,329.3594 Q28.4727,329.2188 28.4727,329 Q28.4727,328.7813 28.629,328.6406 Q28.7852,328.5 29.1446,328.5 L29.3008,328.5 L29.3008,324.5781 L29.1446,324.5781 Q28.7852,324.5781 28.629,324.4375 Q28.4727,324.2969 28.4727,324.0781 Q28.4727,323.8594 28.629,323.7188 Q28.7852,323.5781 29.1446,323.5781 L33.6446,323.5781 L33.6446,325.1094 Q33.6446,325.4688 33.504,325.625 Q33.3633,325.7656 33.1446,325.7656 Q32.9102,325.7656 32.7696,325.625 Q32.6446,325.4688 32.6446,325.1094 L32.6446,324.5781 L30.3008,324.5781 L30.3008,326.0313 L31.1915,326.0313 Q31.1915,325.6406 31.254,325.5313 Q31.4102,325.2813 31.6915,325.2813 Q31.9102,325.2813 32.0508,325.4375 Q32.1915,325.5938 32.1915,325.9531 L32.1915,327.1094 Q32.1915,327.4375 32.1133,327.5469 Q31.9571,327.7813 31.6915,327.7813 Q31.4102,327.7813 31.254,327.5313 Q31.1915,327.4219 31.1915,327.0313 L30.3008,327.0313 Z " fill="#000000"/><text fill="#000000" font-family="Times New Roman" font-size="10" lengthAdjust="spacing" textLength="48.8721" x="45.2392" y="330.0864">project_task</text><line style="stroke:#181818;stroke-width:0.5;" x1="8" x2="106.9434" y1="340.5" y2="340.5"/><ellipse cx="18" cy="351.7495" fill="#000000" rx="3" ry="3" style="stroke:#000000;stroke-width:1;"/><text fill="#000000" font-family="Times New Roman" font-size="10" lengthAdjust="spacing" textLength="33.0615" x="25" y="353.8359">id &#171;PK&#187;</text><line style="stroke:#181818;stroke-width:1;" x1="8" x2="106.9434" y1="359.999" y2="359.999"/><ellipse cx="18" cy="371.2485" fill="#000000" rx="3" ry="3" style="stroke:#000000;stroke-width:1;"/><text fill="#000000" font-family="Times New Roman" font-size="10" lengthAdjust="spacing" textLength="76.9434" x="25" y="373.335">milestone_id &#171;FK&#187;</text><ellipse cx="18" cy="382.7476" fill="#000000" rx="3" ry="3" style="stroke:#000000;stroke-width:1;"/><text fill="#000000" font-family="Times New Roman" font-size="10" lengthAdjust="spacing" textLength="71.9385" x="25" y="384.834">assignee_id &#171;FK&#187;</text><text fill="#000000" font-family="Times New Roman" font-size="10" lengthAdjust="spacing" textLength="15.5518" x="25" y="396.333">title</text><text fill="#000000" font-family="Times New Roman" font-size="10" lengthAdjust="spacing" textLength="22.7783" x="25" y="407.832">status</text><text fill="#000000" font-family="Times New Roman" font-size="10" lengthAdjust="spacing" textLength="29.9951" x="25" y="419.3311">priority</text></g><!--class PJ--><g id="elem_PJ"><rect codeLine="33" fill="#F1F1F1" height="101.4951" id="PJ" rx="2.5" ry="2.5" style="stroke:#181818;stroke-width:0.5;" width="89.0889" x="143" y="140"/><ellipse cx="156" cy="154" fill="#ADD1B2" rx="9" ry="9" style="stroke:#181818;stroke-width:1;"/><path d="M155.4688,154.5313 L155.4688,156 L158.0313,156 L158.0313,155.4531 Q158.0313,155.0938 158.1719,154.9375 Q158.3125,154.7813 158.5313,154.7813 Q158.75,154.7813 158.8906,154.9375 Q159.0313,155.0938 159.0313,155.4531 L159.0313,157 L154.3125,157 Q153.9531,157 153.7969,156.8594 Q153.6406,156.7188 153.6406,156.5 Q153.6406,156.2813 153.7969,156.1406 Q153.9531,156 154.3125,156 L154.4688,156 L154.4688,152.0781 L154.3125,152.0781 Q153.9531,152.0781 153.7969,151.9375 Q153.6406,151.7969 153.6406,151.5781 Q153.6406,151.3594 153.7969,151.2188 Q153.9531,151.0781 154.3125,151.0781 L158.8125,151.0781 L158.8125,152.6094 Q158.8125,152.9688 158.6719,153.125 Q158.5313,153.2656 158.3125,153.2656 Q158.0781,153.2656 157.9375,153.125 Q157.8125,152.9688 157.8125,152.6094 L157.8125,152.0781 L155.4688,152.0781 L155.4688,153.5313 L156.3594,153.5313 Q156.3594,153.1406 156.4219,153.0313 Q156.5781,152.7813 156.8594,152.7813 Q157.0781,152.7813 157.2188,152.9375 Q157.3594,153.0938 157.3594,153.4531 L157.3594,154.6094 Q157.3594,154.9375 157.2813,155.0469 Q157.125,155.2813 156.8594,155.2813 Q156.5781,155.2813 156.4219,155.0313 Q156.3594,154.9219 156.3594,154.5313 L155.4688,154.5313 Z " fill="#000000"/><text fill="#000000" font-family="Times New Roman" font-size="10" lengthAdjust="spacing" textLength="61.0889" x="168" y="157.5864">project_journal</text><line style="stroke:#181818;stroke-width:0.5;" x1="144" x2="231.0889" y1="168" y2="168"/><ellipse cx="154" cy="179.2495" fill="#000000" rx="3" ry="3" style="stroke:#000000;stroke-width:1;"/><text fill="#000000" font-family="Times New Roman" font-size="10" lengthAdjust="spacing" textLength="33.0615" x="161" y="181.3359">id &#171;PK&#187;</text><line style="stroke:#181818;stroke-width:1;" x1="144" x2="231.0889" y1="187.499" y2="187.499"/><ellipse cx="154" cy="198.7485" fill="#000000" rx="3" ry="3" style="stroke:#000000;stroke-width:1;"/><text fill="#000000" font-family="Times New Roman" font-size="10" lengthAdjust="spacing" textLength="54.7217" x="161" y="200.835">user_id &#171;FK&#187;</text><ellipse cx="154" cy="210.2476" fill="#000000" rx="3" ry="3" style="stroke:#000000;stroke-width:1;"/><text fill="#000000" font-family="Times New Roman" font-size="10" lengthAdjust="spacing" textLength="61.3916" x="161" y="212.334">group_id &#171;FK&#187;</text><text fill="#000000" font-family="Times New Roman" font-size="10" lengthAdjust="spacing" textLength="29.4336" x="161" y="223.833">content</text><text fill="#000000" font-family="Times New Roman" font-size="10" lengthAdjust="spacing" textLength="41.0791" x="161" y="235.332">created_at</text></g><!--class RC--><g id="elem_RC"><rect codeLine="42" fill="#F1F1F1" height="101.4951" id="RC" rx="2.5" ry="2.5" style="stroke:#181818;stroke-width:0.5;" width="85.3916" x="267" y="140"/><ellipse cx="284.0843" cy="154" fill="#ADD1B2" rx="9" ry="9" style="stroke:#181818;stroke-width:1;"/><path d="M283.553,154.5313 L283.553,156 L286.1155,156 L286.1155,155.4531 Q286.1155,155.0938 286.2562,154.9375 Q286.3968,154.7813 286.6155,154.7813 Q286.8343,154.7813 286.9749,154.9375 Q287.1155,155.0938 287.1155,155.4531 L287.1155,157 L282.3968,157 Q282.0374,157 281.8812,156.8594 Q281.7249,156.7188 281.7249,156.5 Q281.7249,156.2813 281.8812,156.1406 Q282.0374,156 282.3968,156 L282.553,156 L282.553,152.0781 L282.3968,152.0781 Q282.0374,152.0781 281.8812,151.9375 Q281.7249,151.7969 281.7249,151.5781 Q281.7249,151.3594 281.8812,151.2188 Q282.0374,151.0781 282.3968,151.0781 L286.8968,151.0781 L286.8968,152.6094 Q286.8968,152.9688 286.7562,153.125 Q286.6155,153.2656 286.3968,153.2656 Q286.1624,153.2656 286.0218,153.125 Q285.8968,152.9688 285.8968,152.6094 L285.8968,152.0781 L283.553,152.0781 L283.553,153.5313 L284.4437,153.5313 Q284.4437,153.1406 284.5062,153.0313 Q284.6624,152.7813 284.9437,152.7813 Q285.1624,152.7813 285.303,152.9375 Q285.4437,153.0938 285.4437,153.4531 L285.4437,154.6094 Q285.4437,154.9375 285.3655,155.0469 Q285.2093,155.2813 284.9437,155.2813 Q284.6624,155.2813 284.5062,155.0313 Q284.4437,154.9219 284.4437,154.5313 L283.553,154.5313 Z " fill="#000000"/><text fill="#000000" font-family="Times New Roman" font-size="10" lengthAdjust="spacing" textLength="48.3154" x="296.9919" y="157.5864">repo_config</text><line style="stroke:#181818;stroke-width:0.5;" x1="268" x2="351.3916" y1="168" y2="168"/><ellipse cx="278" cy="179.2495" fill="#000000" rx="3" ry="3" style="stroke:#000000;stroke-width:1;"/><text fill="#000000" font-family="Times New Roman" font-size="10" lengthAdjust="spacing" textLength="33.0615" x="285" y="181.3359">id &#171;PK&#187;</text><line style="stroke:#181818;stroke-width:1;" x1="268" x2="351.3916" y1="187.499" y2="187.499"/><ellipse cx="278" cy="198.7485" fill="#000000" rx="3" ry="3" style="stroke:#000000;stroke-width:1;"/><text fill="#000000" font-family="Times New Roman" font-size="10" lengthAdjust="spacing" textLength="61.3916" x="285" y="200.835">group_id &#171;FK&#187;</text><text fill="#000000" font-family="Times New Roman" font-size="10" lengthAdjust="spacing" textLength="34.4336" x="285" y="212.334">platform</text><text fill="#000000" font-family="Times New Roman" font-size="10" lengthAdjust="spacing" textLength="33.877" x="285" y="223.833">repo_url</text><text fill="#000000" font-family="Times New Roman" font-size="10" lengthAdjust="spacing" textLength="27.207" x="285" y="235.332">branch</text></g><!--class GC--><g id="elem_GC"><rect codeLine="51" fill="#F1F1F1" height="124.4932" id="GC" rx="2.5" ry="2.5" style="stroke:#181818;stroke-width:0.5;" width="110.377" x="254.5" y="307"/><ellipse cx="275.8206" cy="321" fill="#ADD1B2" rx="9" ry="9" style="stroke:#181818;stroke-width:1;"/><path d="M275.2894,321.5313 L275.2894,323 L277.8519,323 L277.8519,322.4531 Q277.8519,322.0938 277.9925,321.9375 Q278.1331,321.7813 278.3519,321.7813 Q278.5706,321.7813 278.7112,321.9375 Q278.8519,322.0938 278.8519,322.4531 L278.8519,324 L274.1331,324 Q273.7737,324 273.6175,323.8594 Q273.4612,323.7188 273.4612,323.5 Q273.4612,323.2813 273.6175,323.1406 Q273.7737,323 274.1331,323 L274.2894,323 L274.2894,319.0781 L274.1331,319.0781 Q273.7737,319.0781 273.6175,318.9375 Q273.4612,318.7969 273.4612,318.5781 Q273.4612,318.3594 273.6175,318.2188 Q273.7737,318.0781 274.1331,318.0781 L278.6331,318.0781 L278.6331,319.6094 Q278.6331,319.9688 278.4925,320.125 Q278.3519,320.2656 278.1331,320.2656 Q277.8987,320.2656 277.7581,320.125 Q277.6331,319.9688 277.6331,319.6094 L277.6331,319.0781 L275.2894,319.0781 L275.2894,320.5313 L276.18,320.5313 Q276.18,320.1406 276.2425,320.0313 Q276.3987,319.7813 276.68,319.7813 Q276.8987,319.7813 277.0394,319.9375 Q277.18,320.0938 277.18,320.4531 L277.18,321.6094 Q277.18,321.9375 277.1019,322.0469 Q276.9456,322.2813 276.68,322.2813 Q276.3987,322.2813 276.2425,322.0313 Q276.18,321.9219 276.18,321.5313 L275.2894,321.5313 Z " fill="#000000"/><text fill="#000000" font-family="Times New Roman" font-size="10" lengthAdjust="spacing" textLength="63.8867" x="289.6696" y="324.5864">git_commit_log</text><line style="stroke:#181818;stroke-width:0.5;" x1="255.5" x2="363.877" y1="335" y2="335"/><ellipse cx="265.5" cy="346.2495" fill="#000000" rx="3" ry="3" style="stroke:#000000;stroke-width:1;"/><text fill="#000000" font-family="Times New Roman" font-size="10" lengthAdjust="spacing" textLength="33.0615" x="272.5" y="348.3359">id &#171;PK&#187;</text><line style="stroke:#181818;stroke-width:1;" x1="255.5" x2="363.877" y1="354.499" y2="354.499"/><ellipse cx="265.5" cy="365.7485" fill="#000000" rx="3" ry="3" style="stroke:#000000;stroke-width:1;"/><text fill="#000000" font-family="Times New Roman" font-size="10" lengthAdjust="spacing" textLength="86.377" x="272.5" y="367.835">repo_config_id &#171;FK&#187;</text><ellipse cx="265.5" cy="377.2476" fill="#000000" rx="3" ry="3" style="stroke:#000000;stroke-width:1;"/><text fill="#000000" font-family="Times New Roman" font-size="10" lengthAdjust="spacing" textLength="70.8252" x="272.5" y="379.334">member_id &#171;FK&#187;</text><text fill="#000000" font-family="Times New Roman" font-size="10" lengthAdjust="spacing" textLength="53.8818" x="272.5" y="390.833">commit_hash</text><text fill="#000000" font-family="Times New Roman" font-size="10" lengthAdjust="spacing" textLength="33.877" x="272.5" y="402.332">message</text><text fill="#000000" font-family="Times New Roman" font-size="10" lengthAdjust="spacing" textLength="36.665" x="272.5" y="413.8311">additions</text><text fill="#000000" font-family="Times New Roman" font-size="10" lengthAdjust="spacing" textLength="36.1035" x="272.5" y="425.3301">deletions</text></g><!--class CL--><g id="elem_CL"><rect codeLine="62" fill="#F1F1F1" height="101.4951" id="CL" rx="2.5" ry="2.5" style="stroke:#181818;stroke-width:0.5;" width="94.6602" x="387" y="140"/><ellipse cx="400" cy="154" fill="#ADD1B2" rx="9" ry="9" style="stroke:#181818;stroke-width:1;"/><path d="M399.4688,154.5313 L399.4688,156 L402.0313,156 L402.0313,155.4531 Q402.0313,155.0938 402.1719,154.9375 Q402.3125,154.7813 402.5313,154.7813 Q402.75,154.7813 402.8906,154.9375 Q403.0313,155.0938 403.0313,155.4531 L403.0313,157 L398.3125,157 Q397.9531,157 397.7969,156.8594 Q397.6406,156.7188 397.6406,156.5 Q397.6406,156.2813 397.7969,156.1406 Q397.9531,156 398.3125,156 L398.4688,156 L398.4688,152.0781 L398.3125,152.0781 Q397.9531,152.0781 397.7969,151.9375 Q397.6406,151.7969 397.6406,151.5781 Q397.6406,151.3594 397.7969,151.2188 Q397.9531,151.0781 398.3125,151.0781 L402.8125,151.0781 L402.8125,152.6094 Q402.8125,152.9688 402.6719,153.125 Q402.5313,153.2656 402.3125,153.2656 Q402.0781,153.2656 401.9375,153.125 Q401.8125,152.9688 401.8125,152.6094 L401.8125,152.0781 L399.4688,152.0781 L399.4688,153.5313 L400.3594,153.5313 Q400.3594,153.1406 400.4219,153.0313 Q400.5781,152.7813 400.8594,152.7813 Q401.0781,152.7813 401.2188,152.9375 Q401.3594,153.0938 401.3594,153.4531 L401.3594,154.6094 Q401.3594,154.9375 401.2813,155.0469 Q401.125,155.2813 400.8594,155.2813 Q400.5781,155.2813 400.4219,155.0313 Q400.3594,154.9219 400.3594,154.5313 L399.4688,154.5313 Z " fill="#000000"/><text fill="#000000" font-family="Times New Roman" font-size="10" lengthAdjust="spacing" textLength="66.6602" x="412" y="157.5864">contribution_log</text><line style="stroke:#181818;stroke-width:0.5;" x1="388" x2="480.6602" y1="168" y2="168"/><ellipse cx="398" cy="179.2495" fill="#000000" rx="3" ry="3" style="stroke:#000000;stroke-width:1;"/><text fill="#000000" font-family="Times New Roman" font-size="10" lengthAdjust="spacing" textLength="33.0615" x="405" y="181.3359">id &#171;PK&#187;</text><line style="stroke:#181818;stroke-width:1;" x1="388" x2="480.6602" y1="187.499" y2="187.499"/><ellipse cx="398" cy="198.7485" fill="#000000" rx="3" ry="3" style="stroke:#000000;stroke-width:1;"/><text fill="#000000" font-family="Times New Roman" font-size="10" lengthAdjust="spacing" textLength="54.7217" x="405" y="200.835">user_id &#171;FK&#187;</text><ellipse cx="398" cy="210.2476" fill="#000000" rx="3" ry="3" style="stroke:#000000;stroke-width:1;"/><text fill="#000000" font-family="Times New Roman" font-size="10" lengthAdjust="spacing" textLength="61.3916" x="405" y="212.334">group_id &#171;FK&#187;</text><text fill="#000000" font-family="Times New Roman" font-size="10" lengthAdjust="spacing" textLength="43.3154" x="405" y="223.833">score_type</text><text fill="#000000" font-family="Times New Roman" font-size="10" lengthAdjust="spacing" textLength="47.7539" x="405" y="235.332">score_value</text></g><!--class RCH--><g id="elem_RCH"><rect codeLine="71" fill="#F1F1F1" height="101.4951" id="RCH" rx="2.5" ry="2.5" style="stroke:#181818;stroke-width:0.5;" width="109.626" x="517.5" y="140"/><ellipse cx="530.5" cy="154" fill="#ADD1B2" rx="9" ry="9" style="stroke:#181818;stroke-width:1;"/><path d="M529.9688,154.5313 L529.9688,156 L532.5313,156 L532.5313,155.4531 Q532.5313,155.0938 532.6719,154.9375 Q532.8125,154.7813 533.0313,154.7813 Q533.25,154.7813 533.3906,154.9375 Q533.5313,155.0938 533.5313,155.4531 L533.5313,157 L528.8125,157 Q528.4531,157 528.2969,156.8594 Q528.1406,156.7188 528.1406,156.5 Q528.1406,156.2813 528.2969,156.1406 Q528.4531,156 528.8125,156 L528.9688,156 L528.9688,152.0781 L528.8125,152.0781 Q528.4531,152.0781 528.2969,151.9375 Q528.1406,151.7969 528.1406,151.5781 Q528.1406,151.3594 528.2969,151.2188 Q528.4531,151.0781 528.8125,151.0781 L533.3125,151.0781 L533.3125,152.6094 Q533.3125,152.9688 533.1719,153.125 Q533.0313,153.2656 532.8125,153.2656 Q532.5781,153.2656 532.4375,153.125 Q532.3125,152.9688 532.3125,152.6094 L532.3125,152.0781 L529.9688,152.0781 L529.9688,153.5313 L530.8594,153.5313 Q530.8594,153.1406 530.9219,153.0313 Q531.0781,152.7813 531.3594,152.7813 Q531.5781,152.7813 531.7188,152.9375 Q531.8594,153.0938 531.8594,153.4531 L531.8594,154.6094 Q531.8594,154.9375 531.7813,155.0469 Q531.625,155.2813 531.3594,155.2813 Q531.0781,155.2813 530.9219,155.0313 Q530.8594,154.9219 530.8594,154.5313 L529.9688,154.5313 Z " fill="#000000"/><text fill="#000000" font-family="Times New Roman" font-size="10" lengthAdjust="spacing" textLength="81.626" x="542.5" y="157.5864">requirement_change</text><line style="stroke:#181818;stroke-width:0.5;" x1="518.5" x2="626.126" y1="168" y2="168"/><ellipse cx="528.5" cy="179.2495" fill="#000000" rx="3" ry="3" style="stroke:#000000;stroke-width:1;"/><text fill="#000000" font-family="Times New Roman" font-size="10" lengthAdjust="spacing" textLength="33.0615" x="535.5" y="181.3359">id &#171;PK&#187;</text><line style="stroke:#181818;stroke-width:1;" x1="518.5" x2="626.126" y1="187.499" y2="187.499"/><ellipse cx="528.5" cy="198.7485" fill="#000000" rx="3" ry="3" style="stroke:#000000;stroke-width:1;"/><text fill="#000000" font-family="Times New Roman" font-size="10" lengthAdjust="spacing" textLength="61.3916" x="535.5" y="200.835">group_id &#171;FK&#187;</text><text fill="#000000" font-family="Times New Roman" font-size="10" lengthAdjust="spacing" textLength="50.5322" x="535.5" y="212.334">change_type</text><text fill="#000000" font-family="Times New Roman" font-size="10" lengthAdjust="spacing" textLength="44.4336" x="535.5" y="223.833">description</text><text fill="#000000" font-family="Times New Roman" font-size="10" lengthAdjust="spacing" textLength="26.0986" x="535.5" y="235.332">reason</text></g><!--link G to MS--><g id="link_G_MS"><path codeLine="80" d="M259.8445,62.8503 C221.5945,79.9203 171.7,104.05 125.5,134 C119.62,137.81 128.0322,131.2263 122.2122,135.6063 " fill="none" id="G-MS" style="stroke:#181818;stroke-width:1;"/><line style="stroke:#181818;stroke-width:1;" x1="261.8671" x2="265.1274" y1="57.5674" y2="64.8729"/><line style="stroke:#181818;stroke-width:1;" x1="259.1275" x2="262.3878" y1="58.79" y2="66.0955"/><line style="stroke:#181818;stroke-width:1;" x1="259.8445" x2="267.15" y1="62.8503" y2="59.59"/><line style="stroke:#181818;stroke-width:1;" x1="114.2221" x2="111.4379" y1="141.6195" y2="151.2241"/><line style="stroke:#181818;stroke-width:1;" x1="114.2221" x2="104.2221" y1="141.6195" y2="141.6359"/><line style="stroke:#181818;stroke-width:1;" x1="114.2221" x2="107.83" y1="141.6195" y2="146.43"/><ellipse cx="119.0161" cy="138.0116" fill="none" rx="4" ry="4" style="stroke:#181818;stroke-width:1;"/></g><!--link MS to PT--><g id="link_MS_PT"><path codeLine="81" d="M57.5,255.35 C57.5,276.05 57.5,273.52 57.5,294.21 " fill="none" id="MS-PT" style="stroke:#181818;stroke-width:1;"/><line style="stroke:#181818;stroke-width:1;" x1="53.5" x2="61.5" y1="251.35" y2="251.35"/><line style="stroke:#181818;stroke-width:1;" x1="53.5" x2="61.5" y1="254.35" y2="254.35"/><line style="stroke:#181818;stroke-width:1;" x1="57.5" x2="57.5" y1="255.35" y2="247.35"/><line style="stroke:#181818;stroke-width:1;" x1="57.5" x2="63.5" y1="304.21" y2="312.21"/><line style="stroke:#181818;stroke-width:1;" x1="57.5" x2="51.5" y1="304.21" y2="312.21"/><line style="stroke:#181818;stroke-width:1;" x1="57.5" x2="57.5" y1="304.21" y2="312.21"/><ellipse cx="57.5" cy="298.21" fill="none" rx="4" ry="4" style="stroke:#181818;stroke-width:1;"/></g><!--link G to PJ--><g id="link_G_PJ"><path codeLine="82" d="M277.3314,80.523 C261.4714,99.763 257.6459,104.3879 239.8659,125.9679 " fill="none" id="G-PJ" style="stroke:#181818;stroke-width:1;"/><line style="stroke:#181818;stroke-width:1;" x1="276.7892" x2="282.9622" y1="74.8922" y2="79.9808"/><line style="stroke:#181818;stroke-width:1;" x1="274.881" x2="281.054" y1="77.2071" y2="82.2957"/><line style="stroke:#181818;stroke-width:1;" x1="277.3314" x2="282.42" y1="80.523" y2="74.35"/><line style="stroke:#181818;stroke-width:1;" x1="233.5071" x2="233.0507" y1="133.6857" y2="143.6753"/><line style="stroke:#181818;stroke-width:1;" x1="233.5071" x2="223.7893" y1="133.6857" y2="136.0447"/><line style="stroke:#181818;stroke-width:1;" x1="233.5071" x2="228.42" y1="133.6857" y2="139.86"/><ellipse cx="237.3224" cy="129.055" fill="none" rx="4" ry="4" style="stroke:#181818;stroke-width:1;"/></g><!--link G to RC--><g id="link_G_RC"><path codeLine="83" d="M309.5,82.35 C309.5,101.59 309.5,100.28 309.5,121.86 " fill="none" id="G-RC" style="stroke:#181818;stroke-width:1;"/><line style="stroke:#181818;stroke-width:1;" x1="305.5" x2="313.5" y1="78.35" y2="78.35"/><line style="stroke:#181818;stroke-width:1;" x1="305.5" x2="313.5" y1="81.35" y2="81.35"/><line style="stroke:#181818;stroke-width:1;" x1="309.5" x2="309.5" y1="82.35" y2="74.35"/><line style="stroke:#181818;stroke-width:1;" x1="309.5" x2="315.5" y1="131.86" y2="139.86"/><line style="stroke:#181818;stroke-width:1;" x1="309.5" x2="303.5" y1="131.86" y2="139.86"/><line style="stroke:#181818;stroke-width:1;" x1="309.5" x2="309.5" y1="131.86" y2="139.86"/><ellipse cx="309.5" cy="125.86" fill="none" rx="4" ry="4" style="stroke:#181818;stroke-width:1;"/></g><!--link RC to GC--><g id="link_RC_GC"><path codeLine="84" d="M309.5,249.13 C309.5,269.53 309.5,267.35 309.5,288.8 " fill="none" id="RC-GC" style="stroke:#181818;stroke-width:1;"/><line style="stroke:#181818;stroke-width:1;" x1="305.5" x2="313.5" y1="245.13" y2="245.13"/><line style="stroke:#181818;stroke-width:1;" x1="305.5" x2="313.5" y1="248.13" y2="248.13"/><line style="stroke:#181818;stroke-width:1;" x1="309.5" x2="309.5" y1="249.13" y2="241.13"/><line style="stroke:#181818;stroke-width:1;" x1="309.5" x2="315.5" y1="298.8" y2="306.8"/><line style="stroke:#181818;stroke-width:1;" x1="309.5" x2="303.5" y1="298.8" y2="306.8"/><line style="stroke:#181818;stroke-width:1;" x1="309.5" x2="309.5" y1="298.8" y2="306.8"/><ellipse cx="309.5" cy="292.8" fill="none" rx="4" ry="4" style="stroke:#181818;stroke-width:1;"/></g><!--link G to CL--><g id="link_G_CL"><path codeLine="85" d="M342.4038,80.4602 C358.6638,99.7002 362.7342,104.5296 380.9642,126.1096 " fill="none" id="G-CL" style="stroke:#181818;stroke-width:1;"/><line style="stroke:#181818;stroke-width:1;" x1="336.7668" x2="342.877" y1="79.987" y2="74.8232"/><line style="stroke:#181818;stroke-width:1;" x1="338.7032" x2="344.8135" y1="82.2784" y2="77.1145"/><line style="stroke:#181818;stroke-width:1;" x1="342.4038" x2="337.24" y1="80.4602" y2="74.35"/><line style="stroke:#181818;stroke-width:1;" x1="387.4174" x2="397.1635" y1="133.7487" y2="135.9881"/><line style="stroke:#181818;stroke-width:1;" x1="387.4174" x2="387.9965" y1="133.7487" y2="143.7319"/><line style="stroke:#181818;stroke-width:1;" x1="387.4174" x2="392.58" y1="133.7487" y2="139.86"/><ellipse cx="383.5455" cy="129.1653" fill="none" rx="4" ry="4" style="stroke:#181818;stroke-width:1;"/></g><!--link G to RCH--><g id="link_G_RCH"><path codeLine="86" d="M358.8451,62.2831 C398.1951,79.4131 450.75,104.01 499.5,134 C505.33,137.59 496.5043,131.2312 502.3443,135.3112 " fill="none" id="G-RCH" style="stroke:#181818;stroke-width:1;"/><line style="stroke:#181818;stroke-width:1;" x1="353.581" x2="356.7741" y1="64.3541" y2="57.019"/><line style="stroke:#181818;stroke-width:1;" x1="356.3316" x2="359.5248" y1="65.5516" y2="58.2165"/><line style="stroke:#181818;stroke-width:1;" x1="358.8451" x2="351.51" y1="62.2831" y2="59.09"/><line style="stroke:#181818;stroke-width:1;" x1="510.5419" x2="520.5363" y1="141.0383" y2="140.7014"/><line style="stroke:#181818;stroke-width:1;" x1="510.5419" x2="513.6637" y1="141.0383" y2="150.5386"/><line style="stroke:#181818;stroke-width:1;" x1="510.5419" x2="517.1" y1="141.0383" y2="145.62"/><ellipse cx="505.6234" cy="137.6021" fill="none" rx="4" ry="4" style="stroke:#181818;stroke-width:1;"/></g><!--SRC=[fPDBQzj04CVl-XH3UZCOMjBG74AW5SWXJODnV1TZxLZUU1_gFbhIfD-zevLYowz2Y0xIZERnc_tlhbzBqw133GkirhMpqOZSAklWGv6Up6yo12qngb1O4-vH4yob9W_tz1jcLgCvdlaW_n1y-ZW8aWaoF7spJf3hKUVvnUVBoyESWv4kYY_5rophmd3MEFj8LIZRfEOCqCC4dZE04KW1LrVJxzVNx8t7_38ySVRti5HBHJvOGwdynyEf-X4aI9a2HHT8FG4g8MtPhD2tZY0KIfhMz053zCUW0VqwyQRpqxpDP3lC4PTvMHlQ_StzrO09q3Xf7KEFuHzjT0PLDy7jwGcY9xS7FnIXuarcG6ivma2Yn324EcfioKbBMIVWB7-Bn8t2iBHEivaQHQVON3WqrMf8gMLWYDRyKRO3JVu36Worjq1DUh6twhulR_2AFJxp7kjMQnH21ccDJzkkgBC7GxNIEBc8RM0pLdxtJi5zPHsLuQcXZVCBLQHTqNz6wKYpNrOhD3Nrsj-yHVokyXKbo5TEDkrYqcwWPuEP4tXv6O_jCr-UZEzFxqpdsy3qTclFyenFGEzCycqWlnictVm3]--></g></svg>