<svg xmlns="http://www.w3.org/2000/svg" xmlns:xlink="http://www.w3.org/1999/xlink" contentStyleType="text/css" height="299px" preserveAspectRatio="none" style="width:206px;height:299px;background:#FFFFFF;" version="1.1" viewBox="0 0 206 299" width="206px" zoomAndPan="magnify"><defs/><g><!--class U--><g id="elem_U"><rect codeLine="7" fill="#F1F1F1" height="112.9941" id="U" rx="2.5" ry="2.5" style="stroke:#181818;stroke-width:0.5;" width="62.4434" x="72.5" y="7"/><ellipse cx="85.5" cy="21" fill="#ADD1B2" rx="9" ry="9" style="stroke:#181818;stroke-width:1;"/><path d="M84.9688,21.5313 L84.9688,23 L87.5313,23 L87.5313,22.4531 Q87.5313,22.0938 87.6719,21.9375 Q87.8125,21.7813 88.0313,21.7813 Q88.25,21.7813 88.3906,21.9375 Q88.5313,22.0938 88.5313,22.4531 L88.5313,24 L83.8125,24 Q83.4531,24 83.2969,23.8594 Q83.1406,23.7188 83.1406,23.5 Q83.1406,23.2813 83.2969,23.1406 Q83.4531,23 83.8125,23 L83.9688,23 L83.9688,19.0781 L83.8125,19.0781 Q83.4531,19.0781 83.2969,18.9375 Q83.1406,18.7969 83.1406,18.5781 Q83.1406,18.3594 83.2969,18.2188 Q83.4531,18.0781 83.8125,18.0781 L88.3125,18.0781 L88.3125,19.6094 Q88.3125,19.9688 88.1719,20.125 Q88.0313,20.2656 87.8125,20.2656 Q87.5781,20.2656 87.4375,20.125 Q87.3125,19.9688 87.3125,19.6094 L87.3125,19.0781 L84.9688,19.0781 L84.9688,20.5313 L85.8594,20.5313 Q85.8594,20.1406 85.9219,20.0313 Q86.0781,19.7813 86.3594,19.7813 Q86.5781,19.7813 86.7188,19.9375 Q86.8594,20.0938 86.8594,20.4531 L86.8594,21.6094 Q86.8594,21.9375 86.7813,22.0469 Q86.625,22.2813 86.3594,22.2813 Q86.0781,22.2813 85.9219,22.0313 Q85.8594,21.9219 85.8594,21.5313 L84.9688,21.5313 Z " fill="#000000"/><text fill="#000000" font-family="Times New Roman" font-size="10" lengthAdjust="spacing" textLength="34.4434" x="97.5" y="24.5864">sys_user</text><line style="stroke:#181818;stroke-width:0.5;" x1="73.5" x2="133.9434" y1="35" y2="35"/><ellipse cx="83.5" cy="46.2495" fill="#000000" rx="3" ry="3" style="stroke:#000000;stroke-width:1;"/><text fill="#000000" font-family="Times New Roman" font-size="10" lengthAdjust="spacing" textLength="33.0615" x="90.5" y="48.3359">id &#171;PK&#187;</text><line style="stroke:#181818;stroke-width:1;" x1="73.5" x2="133.9434" y1="54.499" y2="54.499"/><text fill="#000000" font-family="Times New Roman" font-size="10" lengthAdjust="spacing" textLength="38.3154" x="78.5" y="67.835">username</text><text fill="#000000" font-family="Times New Roman" font-size="10" lengthAdjust="spacing" textLength="37.7734" x="78.5" y="79.334">password</text><text fill="#000000" font-family="Times New Roman" font-size="10" lengthAdjust="spacing" textLength="41.6406" x="78.5" y="90.833">real_name</text><text fill="#000000" font-family="Times New Roman" font-size="10" lengthAdjust="spacing" textLength="22.2119" x="78.5" y="102.332">email</text><text fill="#000000" font-family="Times New Roman" font-size="10" lengthAdjust="spacing" textLength="39.4238" x="78.5" y="113.8311">role_code</text></g><!--class AL--><g id="elem_AL"><rect codeLine="17" fill="#F1F1F1" height="112.9941" id="AL" rx="2.5" ry="2.5" style="stroke:#181818;stroke-width:0.5;" width="78.7217" x="7" y="180"/><ellipse cx="25.8267" cy="194" fill="#ADD1B2" rx="9" ry="9" style="stroke:#181818;stroke-width:1;"/><path d="M25.2955,194.5313 L25.2955,196 L27.858,196 L27.858,195.4531 Q27.858,195.0938 27.9986,194.9375 Q28.1392,194.7813 28.358,194.7813 Q28.5767,194.7813 28.7173,194.9375 Q28.858,195.0938 28.858,195.4531 L28.858,197 L24.1392,197 Q23.7798,197 23.6236,196.8594 Q23.4673,196.7188 23.4673,196.5 Q23.4673,196.2813 23.6236,196.1406 Q23.7798,196 24.1392,196 L24.2955,196 L24.2955,192.0781 L24.1392,192.0781 Q23.7798,192.0781 23.6236,191.9375 Q23.4673,191.7969 23.4673,191.5781 Q23.4673,191.3594 23.6236,191.2188 Q23.7798,191.0781 24.1392,191.0781 L28.6392,191.0781 L28.6392,192.6094 Q28.6392,192.9688 28.4986,193.125 Q28.358,193.2656 28.1392,193.2656 Q27.9048,193.2656 27.7642,193.125 Q27.6392,192.9688 27.6392,192.6094 L27.6392,192.0781 L25.2955,192.0781 L25.2955,193.5313 L26.1861,193.5313 Q26.1861,193.1406 26.2486,193.0313 Q26.4048,192.7813 26.6861,192.7813 Q26.9048,192.7813 27.0455,192.9375 Q27.1861,193.0938 27.1861,193.4531 L27.1861,194.6094 Q27.1861,194.9375 27.108,195.0469 Q26.9517,195.2813 26.6861,195.2813 Q26.4048,195.2813 26.2486,195.0313 Q26.1861,194.9219 26.1861,194.5313 L25.2955,194.5313 Z " fill="#000000"/><text fill="#000000" font-family="Times New Roman" font-size="10" lengthAdjust="spacing" textLength="37.7734" x="39.1215" y="197.5864">audit_log</text><line style="stroke:#181818;stroke-width:0.5;" x1="8" x2="84.7217" y1="208" y2="208"/><ellipse cx="18" cy="219.2495" fill="#000000" rx="3" ry="3" style="stroke:#000000;stroke-width:1;"/><text fill="#000000" font-family="Times New Roman" font-size="10" lengthAdjust="spacing" textLength="33.0615" x="25" y="221.3359">id &#171;PK&#187;</text><line style="stroke:#181818;stroke-width:1;" x1="8" x2="84.7217" y1="227.499" y2="227.499"/><ellipse cx="18" cy="238.7485" fill="#000000" rx="3" ry="3" style="stroke:#000000;stroke-width:1;"/><text fill="#000000" font-family="Times New Roman" font-size="10" lengthAdjust="spacing" textLength="54.7217" x="25" y="240.835">user_id &#171;FK&#187;</text><text fill="#000000" font-family="Times New Roman" font-size="10" lengthAdjust="spacing" textLength="24.4336" x="25" y="252.334">action</text><text fill="#000000" font-family="Times New Roman" font-size="10" lengthAdjust="spacing" textLength="22.7637" x="25" y="263.833">target</text><text fill="#000000" font-family="Times New Roman" font-size="10" lengthAdjust="spacing" textLength="7.7783" x="25" y="275.332">ip</text><text fill="#000000" font-family="Times New Roman" font-size="10" lengthAdjust="spacing" textLength="41.0791" x="25" y="286.8311">created_at</text></g><!--class NF--><g id="elem_NF"><rect codeLine="27" fill="#F1F1F1" height="112.9941" id="NF" rx="2.5" ry="2.5" style="stroke:#181818;stroke-width:0.5;" width="78.7217" x="121" y="180"/><ellipse cx="136.0804" cy="194" fill="#ADD1B2" rx="9" ry="9" style="stroke:#181818;stroke-width:1;"/><path d="M135.5491,194.5313 L135.5491,196 L138.1116,196 L138.1116,195.4531 Q138.1116,195.0938 138.2522,194.9375 Q138.3929,194.7813 138.6116,194.7813 Q138.8304,194.7813 138.971,194.9375 Q139.1116,195.0938 139.1116,195.4531 L139.1116,197 L134.3929,197 Q134.0335,197 133.8772,196.8594 Q133.721,196.7188 133.721,196.5 Q133.721,196.2813 133.8772,196.1406 Q134.0335,196 134.3929,196 L134.5491,196 L134.5491,192.0781 L134.3929,192.0781 Q134.0335,192.0781 133.8772,191.9375 Q133.721,191.7969 133.721,191.5781 Q133.721,191.3594 133.8772,191.2188 Q134.0335,191.0781 134.3929,191.0781 L138.8929,191.0781 L138.8929,192.6094 Q138.8929,192.9688 138.7522,193.125 Q138.6116,193.2656 138.3929,193.2656 Q138.1585,193.2656 138.0179,193.125 Q137.8929,192.9688 137.8929,192.6094 L137.8929,192.0781 L135.5491,192.0781 L135.5491,193.5313 L136.4397,193.5313 Q136.4397,193.1406 136.5022,193.0313 Q136.6585,192.7813 136.9397,192.7813 Q137.1585,192.7813 137.2991,192.9375 Q137.4397,193.0938 137.4397,193.4531 L137.4397,194.6094 Q137.4397,194.9375 137.3616,195.0469 Q137.2054,195.2813 136.9397,195.2813 Q136.6585,195.2813 136.5022,195.0313 Q136.4397,194.9219 136.4397,194.5313 L135.5491,194.5313 Z " fill="#000000"/><text fill="#000000" font-family="Times New Roman" font-size="10" lengthAdjust="spacing" textLength="46.0986" x="148.5427" y="197.5864">notification</text><line style="stroke:#181818;stroke-width:0.5;" x1="122" x2="198.7217" y1="208" y2="208"/><ellipse cx="132" cy="219.2495" fill="#000000" rx="3" ry="3" style="stroke:#000000;stroke-width:1;"/><text fill="#000000" font-family="Times New Roman" font-size="10" lengthAdjust="spacing" textLength="33.0615" x="139" y="221.3359">id &#171;PK&#187;</text><line style="stroke:#181818;stroke-width:1;" x1="122" x2="198.7217" y1="227.499" y2="227.499"/><ellipse cx="132" cy="238.7485" fill="#000000" rx="3" ry="3" style="stroke:#000000;stroke-width:1;"/><text fill="#000000" font-family="Times New Roman" font-size="10" lengthAdjust="spacing" textLength="54.7217" x="139" y="240.835">user_id &#171;FK&#187;</text><text fill="#000000" font-family="Times New Roman" font-size="10" lengthAdjust="spacing" textLength="15.5518" x="139" y="252.334">title</text><text fill="#000000" font-family="Times New Roman" font-size="10" lengthAdjust="spacing" textLength="29.4336" x="139" y="263.833">content</text><text fill="#000000" font-family="Times New Roman" font-size="10" lengthAdjust="spacing" textLength="28.877" x="139" y="275.332">is_read</text><text fill="#000000" font-family="Times New Roman" font-size="10" lengthAdjust="spacing" textLength="41.0791" x="139" y="286.8311">created_at</text></g><!--link U to AL--><g id="link_U_AL"><path codeLine="37" d="M82.4614,127.6099 C76.0614,146.8199 77.1148,143.6746 70.7048,162.8946 " fill="none" id="U-AL" style="stroke:#181818;stroke-width:1;"/><line style="stroke:#181818;stroke-width:1;" x1="79.9308" x2="87.5206" y1="122.5506" y2="125.0792"/><line style="stroke:#181818;stroke-width:1;" x1="78.9825" x2="86.5724" y1="125.3968" y2="127.9254"/><line style="stroke:#181818;stroke-width:1;" x1="82.4614" x2="84.99" y1="127.6099" y2="120.02"/><line style="stroke:#181818;stroke-width:1;" x1="67.541" x2="70.7018" y1="172.3809" y2="181.8683"/><line style="stroke:#181818;stroke-width:1;" x1="67.541" x2="59.3182" y1="172.3809" y2="178.0717"/><line style="stroke:#181818;stroke-width:1;" x1="67.541" x2="65.01" y1="172.3809" y2="179.97"/><ellipse cx="69.4393" cy="166.6891" fill="none" rx="4" ry="4" style="stroke:#181818;stroke-width:1;"/></g><!--link U to NF--><g id="link_U_NF"><path codeLine="38" d="M124.5386,127.6099 C130.9386,146.8199 129.8852,143.6746 136.2952,162.8946 " fill="none" id="U-NF" style="stroke:#181818;stroke-width:1;"/><line style="stroke:#181818;stroke-width:1;" x1="119.4794" x2="127.0692" y1="125.0792" y2="122.5506"/><line style="stroke:#181818;stroke-width:1;" x1="120.4276" x2="128.0175" y1="127.9254" y2="125.3968"/><line style="stroke:#181818;stroke-width:1;" x1="124.5386" x2="122.01" y1="127.6099" y2="120.02"/><line style="stroke:#181818;stroke-width:1;" x1="139.459" x2="147.6818" y1="172.3809" y2="178.0717"/><line style="stroke:#181818;stroke-width:1;" x1="139.459" x2="136.2982" y1="172.3809" y2="181.8683"/><line style="stroke:#181818;stroke-width:1;" x1="139.459" x2="141.99" y1="172.3809" y2="179.97"/><ellipse cx="137.5607" cy="166.6891" fill="none" rx="4" ry="4" style="stroke:#181818;stroke-width:1;"/></g><!--SRC=[bP31QiCm38RlUGhHtGg1ZQsiXrBe2hviXB6jPwF5QZ1rh60xbAxTkqz9orh8UfWFulSlMP_akB6-mO0rV6AvgGAttYpPSO0RrPyi_bOOMcFhacAV2gm9FcnD4GhQmXlNwF-kVBTV17Ut5qdooQRT4mT3uOIwNquUfjDXpM2aYNfKYomxfc4KTr6taS88CC8AzXd06Ao1sUprUJwNMvvBw2gy32oomHYtGXOP29q-sLIZTPt7ZdJ9XhBlCmHROvDsNFMKnSirpBW7wTvNHn_BPDcBI1WgIY9i8w4KTYAZCLroF2UxjYLsJtfKeVw1aXwkMwMKFvUE7IfguPW1RmM7GvxpNbOvwqBz0000]--></g></svg>