<svg xmlns="http://www.w3.org/2000/svg" xmlns:xlink="http://www.w3.org/1999/xlink" contentStyleType="text/css" height="1840px" preserveAspectRatio="none" style="width:237px;height:1840px;background:#FFFFFF;" version="1.1" viewBox="0 0 237 1840" width="237px" zoomAndPan="magnify"><defs/><g><!--cluster OBE-CDIO ????????--><g id="cluster_OBE-CDIO &#25945;&#23398;&#35780;&#20215;&#31649;&#29702;&#31995;&#32479;"><rect fill="#FFFFFF" height="1827" rx="2.5" ry="2.5" style="stroke:#4DBBD5;stroke-width:1;" width="179" x="52.5" y="7"/><text fill="#000000" font-family="Times New Roman" font-size="11" font-weight="bold" lengthAdjust="spacing" textLength="126.8169" x="78.5916" y="19.2695">OBE-CDIO &#25945;&#23398;&#35780;&#20215;&#31649;&#29702;&#31995;&#32479;</text></g><!--cluster ????--><g id="cluster_&#29992;&#25143;&#31649;&#29702;"><path d="M90.5,46 L125.7246,46 A3.75,3.75 0 0 1 128.2246,48.5 L135.2246,64.6489 L193.5,64.6489 A2.5,2.5 0 0 1 196,67.1489 L196,232.5 A2.5,2.5 0 0 1 193.5,235 L90.5,235 A2.5,2.5 0 0 1 88,232.5 L88,48.5 A2.5,2.5 0 0 1 90.5,46 " fill="#FFFFFF" style="stroke:#4DBBD5;stroke-width:1.5;"/><line style="stroke:#4DBBD5;stroke-width:1.5;" x1="88" x2="135.2246" y1="64.6489" y2="64.6489"/><text fill="#2C3E50" font-family="Times New Roman" font-size="11" font-weight="bold" lengthAdjust="spacing" textLength="34.2246" x="92" y="58.2695">&#29992;&#25143;&#31649;&#29702;</text></g><!--cluster ????--><g id="cluster_&#35838;&#31243;&#31649;&#29702;"><path d="M79,259 L114.2246,259 A3.75,3.75 0 0 1 116.7246,261.5 L123.7246,277.6489 L205,277.6489 A2.5,2.5 0 0 1 207.5,280.1489 L207.5,565.5 A2.5,2.5 0 0 1 205,568 L79,568 A2.5,2.5 0 0 1 76.5,565.5 L76.5,261.5 A2.5,2.5 0 0 1 79,259 " fill="#FFFFFF" style="stroke:#4DBBD5;stroke-width:1.5;"/><line style="stroke:#4DBBD5;stroke-width:1.5;" x1="76.5" x2="123.7246" y1="277.6489" y2="277.6489"/><text fill="#2C3E50" font-family="Times New Roman" font-size="11" font-weight="bold" lengthAdjust="spacing" textLength="34.2246" x="80.5" y="271.2695">&#35838;&#31243;&#31649;&#29702;</text></g><!--cluster ????--><g id="cluster_&#23567;&#32452;&#31649;&#29702;"><path d="M93,592 L128.2246,592 A3.75,3.75 0 0 1 130.7246,594.5 L137.7246,610.6489 L191,610.6489 A2.5,2.5 0 0 1 193.5,613.1489 L193.5,778.5 A2.5,2.5 0 0 1 191,781 L93,781 A2.5,2.5 0 0 1 90.5,778.5 L90.5,594.5 A2.5,2.5 0 0 1 93,592 " fill="#FFFFFF" style="stroke:#4DBBD5;stroke-width:1.5;"/><line style="stroke:#4DBBD5;stroke-width:1.5;" x1="90.5" x2="137.7246" y1="610.6489" y2="610.6489"/><text fill="#2C3E50" font-family="Times New Roman" font-size="11" font-weight="bold" lengthAdjust="spacing" textLength="34.2246" x="94.5" y="604.2695">&#23567;&#32452;&#31649;&#29702;</text></g><!--cluster ????--><g id="cluster_&#39033;&#30446;&#36861;&#36394;"><path d="M83,1290 L118.2246,1290 A3.75,3.75 0 0 1 120.7246,1292.5 L127.7246,1308.6489 L201,1308.6489 A2.5,2.5 0 0 1 203.5,1311.1489 L203.5,1594.5 A2.5,2.5 0 0 1 201,1597 L83,1597 A2.5,2.5 0 0 1 80.5,1594.5 L80.5,1292.5 A2.5,2.5 0 0 1 83,1290 " fill="#FFFFFF" style="stroke:#4DBBD5;stroke-width:1.5;"/><line style="stroke:#4DBBD5;stroke-width:1.5;" x1="80.5" x2="127.7246" y1="1308.6489" y2="1308.6489"/><text fill="#2C3E50" font-family="Times New Roman" font-size="11" font-weight="bold" lengthAdjust="spacing" textLength="34.2246" x="84.5" y="1302.2695">&#39033;&#30446;&#36861;&#36394;</text></g><!--cluster ????--><g id="cluster_&#22810;&#20803;&#35780;&#20215;"><path d="M87,1018 L122.2246,1018 A3.75,3.75 0 0 1 124.7246,1020.5 L131.7246,1036.6489 L197,1036.6489 A2.5,2.5 0 0 1 199.5,1039.1489 L199.5,1263.5 A2.5,2.5 0 0 1 197,1266 L87,1266 A2.5,2.5 0 0 1 84.5,1263.5 L84.5,1020.5 A2.5,2.5 0 0 1 87,1018 " fill="#FFFFFF" style="stroke:#4DBBD5;stroke-width:1.5;"/><line style="stroke:#4DBBD5;stroke-width:1.5;" x1="84.5" x2="131.7246" y1="1036.6489" y2="1036.6489"/><text fill="#2C3E50" font-family="Times New Roman" font-size="11" font-weight="bold" lengthAdjust="spacing" textLength="34.2246" x="88.5" y="1030.2695">&#22810;&#20803;&#35780;&#20215;</text></g><!--cluster ?????--><g id="cluster_&#36798;&#25104;&#24230;&#20998;&#26512;"><path d="M87,805 L130.7808,805 A3.75,3.75 0 0 1 133.2808,807.5 L140.2808,823.6489 L197,823.6489 A2.5,2.5 0 0 1 199.5,826.1489 L199.5,991.5 A2.5,2.5 0 0 1 197,994 L87,994 A2.5,2.5 0 0 1 84.5,991.5 L84.5,807.5 A2.5,2.5 0 0 1 87,805 " fill="#FFFFFF" style="stroke:#4DBBD5;stroke-width:1.5;"/><line style="stroke:#4DBBD5;stroke-width:1.5;" x1="84.5" x2="140.2808" y1="823.6489" y2="823.6489"/><text fill="#2C3E50" font-family="Times New Roman" font-size="11" font-weight="bold" lengthAdjust="spacing" textLength="42.7808" x="88.5" y="817.2695">&#36798;&#25104;&#24230;&#20998;&#26512;</text></g><!--cluster AI??--><g id="cluster_AI&#21161;&#25163;"><path d="M93,1621 L123.3369,1621 A3.75,3.75 0 0 1 125.8369,1623.5 L132.8369,1639.6489 L191,1639.6489 A2.5,2.5 0 0 1 193.5,1642.1489 L193.5,1807.5 A2.5,2.5 0 0 1 191,1810 L93,1810 A2.5,2.5 0 0 1 90.5,1807.5 L90.5,1623.5 A2.5,2.5 0 0 1 93,1621 " fill="#FFFFFF" style="stroke:#4DBBD5;stroke-width:1.5;"/><line style="stroke:#4DBBD5;stroke-width:1.5;" x1="90.5" x2="132.8369" y1="1639.6489" y2="1639.6489"/><text fill="#2C3E50" font-family="Times New Roman" font-size="11" font-weight="bold" lengthAdjust="spacing" textLength="29.3369" x="94.5" y="1633.2695">AI&#21161;&#25163;</text></g><g id="elem_UC1"><ellipse cx="141.8468" cy="206.9441" fill="#F5F7FA" rx="37.8468" ry="11.9441" style="stroke:#3C5488;stroke-width:0.5;"/><text fill="#000000" font-family="Times New Roman" font-size="11" lengthAdjust="spacing" textLength="37.2808" x="123.2064" y="208.8892">&#30331;&#24405;/&#30331;&#20986;</text></g><g id="elem_UC2"><ellipse cx="142.1857" cy="147.9441" fill="#F5F7FA" rx="35.6857" ry="11.9441" style="stroke:#3C5488;stroke-width:0.5;"/><text fill="#000000" font-family="Times New Roman" font-size="11" lengthAdjust="spacing" textLength="34.2246" x="125.0734" y="149.8892">&#29992;&#25143;&#31649;&#29702;</text></g><g id="elem_UC3"><ellipse cx="142.1857" cy="88.9441" fill="#F5F7FA" rx="35.6857" ry="11.9441" style="stroke:#3C5488;stroke-width:0.5;"/><text fill="#000000" font-family="Times New Roman" font-size="11" lengthAdjust="spacing" textLength="34.2246" x="125.0734" y="90.8892">&#26435;&#38480;&#31649;&#29702;</text></g><g id="elem_UC4"><ellipse cx="141.7533" cy="301.9507" fill="#F5F7FA" rx="47.7533" ry="11.9507" style="stroke:#3C5488;stroke-width:0.5;"/><text fill="#000000" font-family="Times New Roman" font-size="11" lengthAdjust="spacing" textLength="51.3369" x="116.0849" y="303.8957">&#35838;&#31243;&#30446;&#26631;&#35774;&#23450;</text></g><g id="elem_UC5"><ellipse cx="142.2358" cy="360.9441" fill="#F5F7FA" rx="41.7358" ry="11.9441" style="stroke:#3C5488;stroke-width:0.5;"/><text fill="#000000" font-family="Times New Roman" font-size="11" lengthAdjust="spacing" textLength="42.7808" x="120.8455" y="362.8892">&#25351;&#26631;&#28857;&#31649;&#29702;</text></g><g id="elem_UC6"><ellipse cx="141.7533" cy="539.9507" fill="#F5F7FA" rx="47.7533" ry="11.9507" style="stroke:#3C5488;stroke-width:0.5;"/><text fill="#000000" font-family="Times New Roman" font-size="11" lengthAdjust="spacing" textLength="51.3369" x="116.0849" y="541.8957">&#35780;&#20215;&#26041;&#24335;&#37197;&#32622;</text></g><g id="elem_UC7"><ellipse cx="142.0167" cy="420.8033" fill="#F5F7FA" rx="49.5167" ry="12.3033" style="stroke:#3C5488;stroke-width:0.5;"/><text fill="#000000" font-family="Times New Roman" font-size="11" lengthAdjust="spacing" textLength="56.23" x="113.9017" y="422.7484">AHP&#26435;&#37325;&#26657;&#39564;</text></g><g id="elem_UC8"><ellipse cx="141.9238" cy="480.9441" fill="#F5F7FA" rx="46.9238" ry="11.9441" style="stroke:#3C5488;stroke-width:0.5;"/><text fill="#000000" font-family="Times New Roman" font-size="11" lengthAdjust="spacing" textLength="50.1177" x="116.865" y="482.8892">CO-PO&#26144;&#23556;</text></g><g id="elem_UC9"><ellipse cx="142.1857" cy="693.9441" fill="#F5F7FA" rx="35.6857" ry="11.9441" style="stroke:#3C5488;stroke-width:0.5;"/><text fill="#000000" font-family="Times New Roman" font-size="11" lengthAdjust="spacing" textLength="34.2246" x="125.0734" y="695.8892">&#21019;&#24314;&#23567;&#32452;</text></g><g id="elem_UC10"><ellipse cx="142.1857" cy="752.9441" fill="#F5F7FA" rx="35.6857" ry="11.9441" style="stroke:#3C5488;stroke-width:0.5;"/><text fill="#000000" font-family="Times New Roman" font-size="11" lengthAdjust="spacing" textLength="34.2246" x="125.0734" y="754.8892">&#25104;&#21592;&#20998;&#37197;</text></g><g id="elem_UC11"><ellipse cx="142.1857" cy="634.9441" fill="#F5F7FA" rx="35.6857" ry="11.9441" style="stroke:#3C5488;stroke-width:0.5;"/><text fill="#000000" font-family="Times New Roman" font-size="11" lengthAdjust="spacing" textLength="34.2246" x="125.0734" y="636.8892">&#23703;&#20301;&#21464;&#26356;</text></g><g id="elem_UC12"><ellipse cx="142.2358" cy="1391.9441" fill="#F5F7FA" rx="41.7358" ry="11.9441" style="stroke:#3C5488;stroke-width:0.5;"/><text fill="#000000" font-family="Times New Roman" font-size="11" lengthAdjust="spacing" textLength="42.7808" x="120.8455" y="1393.8892">&#37324;&#31243;&#30865;&#31649;&#29702;</text></g><g id="elem_UC13"><ellipse cx="142.1857" cy="1568.9441" fill="#F5F7FA" rx="35.6857" ry="11.9441" style="stroke:#3C5488;stroke-width:0.5;"/><text fill="#000000" font-family="Times New Roman" font-size="11" lengthAdjust="spacing" textLength="34.2246" x="125.0734" y="1570.8892">&#20219;&#21153;&#30475;&#26495;</text></g><g id="elem_UC14"><ellipse cx="142.1249" cy="1450.9441" fill="#F5F7FA" rx="45.6249" ry="11.9441" style="stroke:#3C5488;stroke-width:0.5;"/><text fill="#000000" font-family="Times New Roman" font-size="11" lengthAdjust="spacing" textLength="48.2808" x="117.9846" y="1452.8892">Git&#25552;&#20132;&#21516;&#27493;</text></g><g id="elem_UC15"><ellipse cx="142.1857" cy="1509.9441" fill="#F5F7FA" rx="35.6857" ry="11.9441" style="stroke:#3C5488;stroke-width:0.5;"/><text fill="#000000" font-family="Times New Roman" font-size="11" lengthAdjust="spacing" textLength="34.2246" x="125.0734" y="1511.8892">&#39033;&#30446;&#26085;&#24535;</text></g><g id="elem_UC16"><ellipse cx="142.1857" cy="1332.9441" fill="#F5F7FA" rx="35.6857" ry="11.9441" style="stroke:#3C5488;stroke-width:0.5;"/><text fill="#000000" font-family="Times New Roman" font-size="11" lengthAdjust="spacing" textLength="34.2246" x="125.0734" y="1334.8892">&#38656;&#27714;&#21464;&#26356;</text></g><g id="elem_UC17"><ellipse cx="142.1857" cy="1060.9441" fill="#F5F7FA" rx="35.6857" ry="11.9441" style="stroke:#3C5488;stroke-width:0.5;"/><text fill="#000000" font-family="Times New Roman" font-size="11" lengthAdjust="spacing" textLength="34.2246" x="125.0734" y="1062.8892">&#23567;&#32452;&#35780;&#20998;</text></g><g id="elem_UC18"><ellipse cx="142.2358" cy="1237.9441" fill="#F5F7FA" rx="41.7358" ry="11.9441" style="stroke:#3C5488;stroke-width:0.5;"/><text fill="#000000" font-family="Times New Roman" font-size="11" lengthAdjust="spacing" textLength="42.7808" x="120.8455" y="1239.8892">&#36129;&#29486;&#24230;&#35745;&#31639;</text></g><g id="elem_UC19"><ellipse cx="142.1857" cy="1119.9441" fill="#F5F7FA" rx="35.6857" ry="11.9441" style="stroke:#3C5488;stroke-width:0.5;"/><text fill="#000000" font-family="Times New Roman" font-size="11" lengthAdjust="spacing" textLength="34.2246" x="125.0734" y="1121.8892">&#23703;&#20301;&#35780;&#20215;</text></g><g id="elem_UC20"><ellipse cx="142.1857" cy="1178.9441" fill="#F5F7FA" rx="35.6857" ry="11.9441" style="stroke:#3C5488;stroke-width:0.5;"/><text fill="#000000" font-family="Times New Roman" font-size="11" lengthAdjust="spacing" textLength="34.2246" x="125.0734" y="1180.8892">&#25104;&#32489;&#30003;&#35785;</text></g><g id="elem_UC21"><ellipse cx="142.2358" cy="906.9441" fill="#F5F7FA" rx="41.7358" ry="11.9441" style="stroke:#3C5488;stroke-width:0.5;"/><text fill="#000000" font-family="Times New Roman" font-size="11" lengthAdjust="spacing" textLength="42.7808" x="120.8455" y="908.8892">&#36798;&#25104;&#24230;&#35745;&#31639;</text></g><g id="elem_UC22"><ellipse cx="142.2358" cy="965.9441" fill="#F5F7FA" rx="41.7358" ry="11.9441" style="stroke:#3C5488;stroke-width:0.5;"/><text fill="#000000" font-family="Times New Roman" font-size="11" lengthAdjust="spacing" textLength="42.7808" x="120.8455" y="967.8892">&#21487;&#35270;&#21270;&#20998;&#26512;</text></g><g id="elem_UC23"><ellipse cx="142.1857" cy="847.9441" fill="#F5F7FA" rx="35.6857" ry="11.9441" style="stroke:#3C5488;stroke-width:0.5;"/><text fill="#000000" font-family="Times New Roman" font-size="11" lengthAdjust="spacing" textLength="34.2246" x="125.0734" y="849.8892">&#25913;&#36827;&#24314;&#35758;</text></g><g id="elem_UC24"><ellipse cx="142.1857" cy="1663.9441" fill="#F5F7FA" rx="35.6857" ry="11.9441" style="stroke:#3C5488;stroke-width:0.5;"/><text fill="#000000" font-family="Times New Roman" font-size="11" lengthAdjust="spacing" textLength="34.2246" x="125.0734" y="1665.8892">&#26234;&#33021;&#38382;&#31572;</text></g><g id="elem_UC25"><ellipse cx="142.1857" cy="1722.9441" fill="#F5F7FA" rx="35.6857" ry="11.9441" style="stroke:#3C5488;stroke-width:0.5;"/><text fill="#000000" font-family="Times New Roman" font-size="11" lengthAdjust="spacing" textLength="34.2246" x="125.0734" y="1724.8892">&#33258;&#27979;&#32451;&#20064;</text></g><g id="elem_UC26"><ellipse cx="142.1857" cy="1781.9441" fill="#F5F7FA" rx="35.6857" ry="11.9441" style="stroke:#3C5488;stroke-width:0.5;"/><text fill="#000000" font-family="Times New Roman" font-size="11" lengthAdjust="spacing" textLength="34.2246" x="125.0734" y="1783.8892">&#23398;&#24773;&#39044;&#35686;</text></g><!--entity Admin--><g id="elem_Admin"><ellipse cx="19" cy="197" fill="#F1F1F1" rx="8" ry="8" style="stroke:#3C5488;stroke-width:0.5;"/><path d="M19,205 L19,232 M6,213 L32,213 M19,232 L6,247 M19,232 L32,247 " fill="none" style="stroke:#3C5488;stroke-width:0.5;"/><text fill="#000000" font-family="Times New Roman" font-size="11" lengthAdjust="spacing" textLength="25.6685" x="6.1658" y="258.7695">&#31649;&#29702;&#21592;</text></g><!--entity Teacher--><g id="elem_Teacher"><ellipse cx="19" cy="879" fill="#F1F1F1" rx="8" ry="8" style="stroke:#3C5488;stroke-width:0.5;"/><path d="M19,887 L19,914 M6,895 L32,895 M19,914 L6,929 M19,914 L32,929 " fill="none" style="stroke:#3C5488;stroke-width:0.5;"/><text fill="#000000" font-family="Times New Roman" font-size="11" lengthAdjust="spacing" textLength="17.1123" x="10.4438" y="940.7695">&#25945;&#24072;</text></g><!--entity Student--><g id="elem_Student"><ellipse cx="19" cy="1423" fill="#F1F1F1" rx="8" ry="8" style="stroke:#3C5488;stroke-width:0.5;"/><path d="M19,1431 L19,1458 M6,1439 L32,1439 M19,1458 L6,1473 M19,1458 L32,1473 " fill="none" style="stroke:#3C5488;stroke-width:0.5;"/><text fill="#000000" font-family="Times New Roman" font-size="11" lengthAdjust="spacing" textLength="17.1123" x="10.4438" y="1484.7695">&#23398;&#29983;</text></g><!--link Admin to UC2--><g id="link_Admin_UC2"><path d="M32.62,191.46 C35.83,186.06 39.76,180.96 44.5,177 C62.23,162.21 81.4209,156.0005 101.5809,152.4505 " fill="none" id="Admin-to-UC2" style="stroke:#181818;stroke-width:1;"/><polygon fill="#181818" points="107.49,151.41,97.9327,149.0314,102.5658,152.2771,99.3201,156.9102,107.49,151.41" style="stroke:#181818;stroke-width:1;"/></g><!--link Admin to UC3--><g id="link_Admin_UC3"><path d="M24.42,188.34 C28.36,161.53 35,128.16 44.5,118 C60.39,101.01 79.8801,94.6869 100.6401,91.7269 " fill="none" id="Admin-to-UC3" style="stroke:#181818;stroke-width:1;"/><polygon fill="#181818" points="106.58,90.88,97.1055,88.1904,101.6301,91.5858,98.2347,96.1103,106.58,90.88" style="stroke:#181818;stroke-width:1;"/></g><!--link Admin to UC4--><g id="link_Admin_UC4"><path d="M32.95,233.24 C54.78,247.13 93.8485,271.9881 118.4185,287.6281 " fill="none" id="Admin-to-UC4" style="stroke:#181818;stroke-width:1;"/><polygon fill="#181818" points="123.48,290.85,118.0356,282.6428,119.262,288.1651,113.7397,289.3915,123.48,290.85" style="stroke:#181818;stroke-width:1;"/></g><!--link Admin to UC5--><g id="link_Admin_UC5"><path d="M19.66,261.64 C21.37,284.28 27.28,312.45 44.5,331 C59.18,346.82 76.1254,353.2943 95.9054,356.8643 " fill="none" id="Admin-to-UC5" style="stroke:#181818;stroke-width:1;"/><polygon fill="#181818" points="101.81,357.93,93.6636,352.3951,96.8895,357.0419,92.2426,360.2679,101.81,357.93" style="stroke:#181818;stroke-width:1;"/></g><!--link Teacher to UC1--><g id="link_Teacher_UC1"><path d="M20.52,870.14 C22.49,738.81 30.13,300.22 44.5,274 C60.18,245.38 88.4731,228.7878 111.5931,218.5578 " fill="none" id="Teacher-to-UC1" style="stroke:#181818;stroke-width:1;"/><polygon fill="#181818" points="117.08,216.13,107.2312,216.1138,112.5076,218.1532,110.4682,223.4296,117.08,216.13" style="stroke:#181818;stroke-width:1;"/></g><!--link Teacher to UC4--><g id="link_Teacher_UC4"><path d="M20.4,870.34 C21.89,746.82 27.94,352.31 44.5,331 C56.47,315.6 70.4259,309.2324 89.0159,305.6924 " fill="none" id="Teacher-to-UC4" style="stroke:#181818;stroke-width:1;"/><polygon fill="#181818" points="94.91,304.57,85.3206,302.3242,89.9983,305.5053,86.8171,310.183,94.91,304.57" style="stroke:#181818;stroke-width:1;"/></g><!--link Teacher to UC5--><g id="link_Teacher_UC5"><path d="M20.6,870.22 C22.61,755.37 29.87,409.91 44.5,391 C57.7,373.93 74.5782,367.3054 94.6982,364.0254 " fill="none" id="Teacher-to-UC5" style="stroke:#181818;stroke-width:1;"/><polygon fill="#181818" points="100.62,363.06,91.0937,360.5602,95.6851,363.8645,92.3809,368.456,100.62,363.06" style="stroke:#181818;stroke-width:1;"/></g><!--link Teacher to UC6--><g id="link_Teacher_UC6"><path d="M21.25,870.38 C24.05,795.35 31.64,629.33 44.5,607 C60.38,579.43 87.2895,563.0883 110.1495,552.5683 " fill="none" id="Teacher-to-UC6" style="stroke:#181818;stroke-width:1;"/><polygon fill="#181818" points="115.6,550.06,105.752,550.1888,111.0579,552.1502,109.0964,557.4561,115.6,550.06" style="stroke:#181818;stroke-width:1;"/></g><!--link Teacher to UC7--><g id="link_Teacher_UC7"><path d="M19.6,870.21 C18.83,767.61 19.02,483.72 44.5,451 C56.36,435.77 69.965,429.3085 88.335,425.4985 " fill="none" id="Teacher-to-UC7" style="stroke:#181818;stroke-width:1;"/><polygon fill="#181818" points="94.21,424.28,84.5852,422.1911,89.3142,425.2954,86.2099,430.0244,94.21,424.28" style="stroke:#181818;stroke-width:1;"/></g><!--link Teacher to UC8--><g id="link_Teacher_UC8"><path d="M19.91,870.33 C20.01,777.37 22.44,537.84 44.5,510 C56.78,494.51 71.1216,488.1393 89.9016,484.6393 " fill="none" id="Teacher-to-UC8" style="stroke:#181818;stroke-width:1;"/><polygon fill="#181818" points="95.8,483.54,86.2195,481.2566,90.8846,484.4561,87.6852,489.1212,95.8,483.54" style="stroke:#181818;stroke-width:1;"/></g><!--link Teacher to UC9--><g id="link_Teacher_UC9"><path d="M20.3,870.25 C21.45,823.01 26.16,744.53 44.5,723 C59.7,705.16 79.4797,698.821 100.5497,696.091 " fill="none" id="Teacher-to-UC9" style="stroke:#181818;stroke-width:1;"/><polygon fill="#181818" points="106.5,695.32,97.0606,692.5096,101.5414,695.9625,98.0886,700.4433,106.5,695.32" style="stroke:#181818;stroke-width:1;"/></g><!--link Teacher to UC10--><g id="link_Teacher_UC10"><path d="M24.58,870.27 C28.02,853.74 34.03,834.7 44.5,820 C63.79,792.93 92.2507,775.8072 114.3007,765.0172 " fill="none" id="Teacher-to-UC10" style="stroke:#181818;stroke-width:1;"/><polygon fill="#181818" points="119.69,762.38,109.8478,762.743,115.1989,764.5777,113.3641,769.9287,119.69,762.38" style="stroke:#181818;stroke-width:1;"/></g><!--link Teacher to UC11--><g id="link_Teacher_UC11"><path d="M21.47,870.48 C24.36,806.53 31.65,679.58 44.5,664 C59.42,645.92 79.2069,639.5691 100.3469,636.9091 " fill="none" id="Teacher-to-UC11" style="stroke:#181818;stroke-width:1;"/><polygon fill="#181818" points="106.3,636.16,96.871,633.3149,101.3391,636.7842,97.8698,641.2523,106.3,636.16" style="stroke:#181818;stroke-width:1;"/></g><!--link Teacher to UC12--><g id="link_Teacher_UC12"><path d="M19.61,943.71 C18.85,1046.08 19.08,1329.35 44.5,1362 C57.76,1379.03 74.6287,1385.6513 94.7387,1388.9413 " fill="none" id="Teacher-to-UC12" style="stroke:#181818;stroke-width:1;"/><polygon fill="#181818" points="100.66,1389.91,92.4239,1384.5094,95.7256,1389.1027,91.1323,1392.4044,100.66,1389.91" style="stroke:#181818;stroke-width:1;"/></g><!--link Teacher to UC13--><g id="link_Teacher_UC13"><path d="M20.86,943.86 C24.03,1077.17 35.4,1527.13 44.5,1539 C58.91,1557.8 79.0079,1564.3535 100.4079,1567.0735 " fill="none" id="Teacher-to-UC13" style="stroke:#181818;stroke-width:1;"/><polygon fill="#181818" points="106.36,1567.83,97.9362,1562.7271,101.3999,1567.1996,96.9275,1570.6633,106.36,1567.83" style="stroke:#181818;stroke-width:1;"/></g><!--link Teacher to UC14--><g id="link_Teacher_UC14"><path d="M20.6,943.64 C22.63,1058.04 29.93,1402.17 44.5,1421 C56.95,1437.1 72.0313,1443.6619 91.2613,1447.2419 " fill="none" id="Teacher-to-UC14" style="stroke:#181818;stroke-width:1;"/><polygon fill="#181818" points="97.16,1448.34,89.0441,1442.7604,92.2445,1447.4249,87.5799,1450.6252,97.16,1448.34" style="stroke:#181818;stroke-width:1;"/></g><!--link Teacher to UC15--><g id="link_Teacher_UC15"><path d="M20.42,943.89 C21.96,1067.23 28.14,1458.75 44.5,1480 C58.95,1498.77 79.0382,1505.3207 100.4382,1508.0507 " fill="none" id="Teacher-to-UC15" style="stroke:#181818;stroke-width:1;"/><polygon fill="#181818" points="106.39,1508.81,97.9685,1503.7033,101.4302,1508.1773,96.9562,1511.6389,106.39,1508.81" style="stroke:#181818;stroke-width:1;"/></g><!--link Teacher to UC16--><g id="link_Teacher_UC16"><path d="M20.71,943.56 C22.63,1029.36 28.88,1238.46 44.5,1266 C60.7,1294.56 89.2114,1311.2537 112.2114,1321.5237 " fill="none" id="Teacher-to-UC16" style="stroke:#181818;stroke-width:1;"/><polygon fill="#181818" points="117.69,1323.97,111.1029,1316.6481,113.1245,1321.9314,107.8412,1323.9529,117.69,1323.97" style="stroke:#181818;stroke-width:1;"/></g><!--link Teacher to UC17--><g id="link_Teacher_UC17"><path d="M24.58,943.73 C28.02,960.26 34.03,979.3 44.5,994 C63.79,1021.07 92.2507,1038.1928 114.3007,1048.9828 " fill="none" id="Teacher-to-UC17" style="stroke:#181818;stroke-width:1;"/><polygon fill="#181818" points="119.69,1051.62,113.3641,1044.0713,115.1989,1049.4223,109.8478,1051.257,119.69,1051.62" style="stroke:#181818;stroke-width:1;"/></g><!--link Teacher to UC18--><g id="link_Teacher_UC18"><path d="M20.71,943.52 C22.51,1019.19 28.3,1187.77 44.5,1208 C57.99,1224.84 74.871,1231.4474 94.931,1234.7774 " fill="none" id="Teacher-to-UC18" style="stroke:#181818;stroke-width:1;"/><polygon fill="#181818" points="100.85,1235.76,92.6265,1230.3402,95.9175,1234.9412,91.3165,1238.2322,100.85,1235.76" style="stroke:#181818;stroke-width:1;"/></g><!--link Teacher to UC19--><g id="link_Teacher_UC19"><path d="M20.36,943.53 C21.57,990.48 26.35,1068.51 44.5,1090 C59.67,1107.96 79.458,1114.5081 100.528,1117.4581 " fill="none" id="Teacher-to-UC19" style="stroke:#181818;stroke-width:1;"/><polygon fill="#181818" points="106.47,1118.29,98.1116,1113.0807,101.5183,1117.5967,97.0023,1121.0034,106.47,1118.29" style="stroke:#181818;stroke-width:1;"/></g><!--link Teacher to UC20--><g id="link_Teacher_UC20"><path d="M21.51,943.86 C24.46,1007.69 31.81,1133.47 44.5,1149 C59.49,1167.34 79.5529,1173.8852 100.8029,1176.7252 " fill="none" id="Teacher-to-UC20" style="stroke:#181818;stroke-width:1;"/><polygon fill="#181818" points="106.75,1177.52,98.3592,1172.363,101.7941,1176.8577,97.2994,1180.2925,106.75,1177.52" style="stroke:#181818;stroke-width:1;"/></g><!--link Teacher to UC21--><g id="link_Teacher_UC21"><path d="M32.95,907 C48.92,907 70.84,907 94.3,907 " fill="none" id="Teacher-to-UC21" style="stroke:#181818;stroke-width:1;"/><polygon fill="#181818" points="100.3,907,91.3,903,95.3,907,91.3,911,100.3,907" style="stroke:#181818;stroke-width:1;"/></g><!--link Teacher to UC22--><g id="link_Teacher_UC22"><path d="M32.59,925.14 C36.06,929.16 40.11,933.09 44.5,936 C62.78,948.12 80.3744,954.1975 99.5644,958.6375 " fill="none" id="Teacher-to-UC22" style="stroke:#181818;stroke-width:1;"/><polygon fill="#181818" points="105.41,959.99,97.5433,954.0642,100.5387,958.8629,95.74,961.8583,105.41,959.99" style="stroke:#181818;stroke-width:1;"/></g><!--link Teacher to UC23--><g id="link_Teacher_UC23"><path d="M32.74,887.88 C36.16,883.84 40.14,879.91 44.5,877 C63.85,864.08 83.2614,857.9506 103.0914,853.9006 " fill="none" id="Teacher-to-UC23" style="stroke:#181818;stroke-width:1;"/><polygon fill="#181818" points="108.97,852.7,99.3516,850.5818,104.0711,853.7005,100.9525,858.42,108.97,852.7" style="stroke:#181818;stroke-width:1;"/></g><!--link Student to UC1--><g id="link_Student_UC1"><path d="M21.03,1414.43 C23.31,1332.99 28.86,1130.52 32.5,961 C32.91,941.92 35.51,290.83 44.5,274 C59.88,245.22 88.2349,228.6491 111.4549,218.4691 " fill="none" id="Student-to-UC1" style="stroke:#181818;stroke-width:1;"/><polygon fill="#181818" points="116.95,216.06,107.1013,216.0103,112.3708,218.0676,110.3134,223.3371,116.95,216.06" style="stroke:#181818;stroke-width:1;"/></g><!--link Student to UC13--><g id="link_Student_UC13"><path d="M22.17,1487.56 C25.03,1505.15 31.25,1525.34 44.5,1539 C60.75,1555.74 80.2341,1562.2497 100.9041,1565.5297 " fill="none" id="Student-to-UC13" style="stroke:#181818;stroke-width:1;"/><polygon fill="#181818" points="106.83,1566.47,98.5681,1561.1089,101.8918,1565.6864,97.3143,1569.0101,106.83,1566.47" style="stroke:#181818;stroke-width:1;"/></g><!--link Student to UC14--><g id="link_Student_UC14"><path d="M32.95,1451 C48.01,1451 67.68,1451 90.23,1451 " fill="none" id="Student-to-UC14" style="stroke:#181818;stroke-width:1;"/><polygon fill="#181818" points="96.23,1451,87.23,1447,91.23,1451,87.23,1455,96.23,1451" style="stroke:#181818;stroke-width:1;"/></g><!--link Student to UC15--><g id="link_Student_UC15"><path d="M32.59,1469.14 C36.06,1473.16 40.11,1477.09 44.5,1480 C64.1,1492.99 83.7557,1499.3309 103.6257,1503.6309 " fill="none" id="Student-to-UC15" style="stroke:#181818;stroke-width:1;"/><polygon fill="#181818" points="109.49,1504.9,101.5397,1499.0869,104.6031,1503.8424,99.8476,1506.9059,109.49,1504.9" style="stroke:#181818;stroke-width:1;"/></g><!--link Student to UC18--><g id="link_Student_UC18"><path d="M22.91,1414.2 C26.42,1377.04 33.28,1322.69 44.5,1305 C61.87,1277.61 89.4637,1260.9602 111.9937,1250.3302 " fill="none" id="Student-to-UC18" style="stroke:#181818;stroke-width:1;"/><polygon fill="#181818" points="117.42,1247.77,107.5737,1247.9928,112.898,1249.9035,110.9873,1255.2279,117.42,1247.77" style="stroke:#181818;stroke-width:1;"/></g><!--link Student to UC20--><g id="link_Student_UC20"><path d="M21.47,1414.48 C24.36,1350.53 31.65,1223.58 44.5,1208 C59.42,1189.92 79.2069,1183.5691 100.3469,1180.9091 " fill="none" id="Student-to-UC20" style="stroke:#181818;stroke-width:1;"/><polygon fill="#181818" points="106.3,1180.16,96.871,1177.3149,101.3391,1180.7842,97.8698,1185.2523,106.3,1180.16" style="stroke:#181818;stroke-width:1;"/></g><!--link Student to UC22--><g id="link_Student_UC22"><path d="M20.33,1414.18 C21.45,1318.25 26.12,1065.77 44.5,1033 C60.27,1004.9 87.8611,988.4281 110.8611,978.0481 " fill="none" id="Student-to-UC22" style="stroke:#181818;stroke-width:1;"/><polygon fill="#181818" points="116.33,975.58,106.4813,975.6363,111.7726,977.6368,109.7721,982.9281,116.33,975.58" style="stroke:#181818;stroke-width:1;"/></g><!--link Student to UC24--><g id="link_Student_UC24"><path d="M22.91,1487.8 C26.42,1524.96 33.28,1579.31 44.5,1597 C62.19,1624.9 90.7012,1641.7864 113.2412,1652.2864 " fill="none" id="Student-to-UC24" style="stroke:#181818;stroke-width:1;"/><polygon fill="#181818" points="118.68,1654.82,112.2108,1647.3937,114.1476,1652.7087,108.8327,1654.6455,118.68,1654.82" style="stroke:#181818;stroke-width:1;"/></g><!--link Student to UC25--><g id="link_Student_UC25"><path d="M21.51,1487.86 C24.46,1551.69 31.81,1677.47 44.5,1693 C59.49,1711.34 79.5529,1717.8852 100.8029,1720.7252 " fill="none" id="Student-to-UC25" style="stroke:#181818;stroke-width:1;"/><polygon fill="#181818" points="106.75,1721.52,98.3592,1716.363,101.7941,1720.8577,97.2994,1724.2925,106.75,1721.52" style="stroke:#181818;stroke-width:1;"/></g><!--SRC=[ZPLjRn9P5CVVpwUuwRxmpH8x0zFYljYafTRrJMjM_G2pC5PYOSmmnCIDoKRQGeK6Z6YBRRMO5jic3FKf2hFGByDzu5lidOThc0Dc9IJadFFZdFyvvzwPAmZl3w8H6T5F3dNUqlhfS53cBkaAMj6ilAdZTeiST4QREspxus-8DlhybnKgfD7v5P6l7zYBGpReakQMb7kGpZxKJ2s3_jAI3zPC8vzD9OnrmqI_B7kVCIAbtzFowzQoaRLMj8oExgGpUWwjw8_GdqP6oqudRwSVwqYMnu9QqZBCHSDCwMPGAPfGO_7u69BFwKajf_ySDA5RNPvVNXW37t92MmjdYoqjBYwfKw3_dK80khq5Y9A8NbTd9MbTlsSXoq1cUks-XL9fKqzQQIChILx7Q8RQJLhRmi_tPf2MGmkfJ3ehGkHb0tyhUVuxkfQyhviYmZT9ws-zo6qhdzApbYIvYRNishgEPbONhqSIIpTNaPkXtMATZQ7prI_aduqPzBU44Fy6khcC-Yaf1OmVHMAMFDXmSF_bLVUdsFEgtat800dztoEKC44E2wD6BKH4EV44266T0Jqj_q184DotoL6HsGDilmuonK2jIf4Jz6atL4w5oTona5TT_6-LNmhQjmDkBimj_77BrLxS8KVDqNabWER3K68rSckLx1tXYuq0Y4zf3bzKgRFnW-PmQHyxFHy9Sbm3RPLg_A3WqXQNAzOm2v9yt1tsTt1rZ-n_5eWyHScesULZP9TzzkryGiceM777_EvvQ7moMEZGSV2p9ZqeayDBWKJ3o8sqHQgrOUyOrogaVI8ei2rV2zazmPUx0W6x6XtyGpuy3RSrDst0nw_nPi7VxEI0lT7o89-WI0BMo3utQSN6lHRZdTlVrSId3LbKyP79LL7dZDO_iSwsk0-pquxxOE1kjTVYciYRskI95_6G80NSFbpjiFTRkF9APF4fU0FhNNRfdZ5cYwEkJBk22pVnipEoNPuGGnezLkYFTctQhei4O9UiU4w-bAbJ67QF109swRw62fkZTnkitHA8lyidakGz054ayhlt01cteY4h5h9KIGgUa8531dOCs2gmvu0z3-muiA_1UhFG0HNmsmCSKUY08cMeKeOoPQXJXa9bg5I1IXMeL85A-I6HWjVCz_42EmeTCUXGeICE75mOS2ZG0PCgwdy0]--></g></svg>